<?xml version="1.0" encoding="utf-8"?>
<!-- Generator: Adobe Illustrator 27.8.1, SVG Export Plug-In . SVG Version: 6.00 Build 0)  -->
<svg version="1.1" id="Laag_1" xmlns="http://www.w3.org/2000/svg" xmlns:xlink="http://www.w3.org/1999/xlink" x="0px" y="0px"
	 viewBox="0 0 92.61 380.92" style="enable-background:new 0 0 92.61 380.92;" xml:space="preserve">
<style type="text/css">
	.st0{fill:#ECECEC;}
	.st1{fill:#4E4955;}
	.st2{fill:#F3F3F3;}
	.st3{fill:#00FF00;}
	.st4{fill-rule:evenodd;clip-rule:evenodd;fill:#4E4955;}
	.st5{fill:#EDEDED;}
</style>
<g>
	<g>
		<g>
			<path class="st0" d="M89.75,339.92c0-17.01-13.82-29.84-32.14-29.84c-18.32,0-32.14,12.83-32.14,29.84
				c0,7.9,2.99,14.8,8.66,19.96l0.28,0.26H0.68v15.42H88.3v-15.42h-7.49l0.28-0.26C86.76,354.72,89.75,347.82,89.75,339.92z
				 M40.42,343.06c0-9.74,7.39-17.08,17.2-17.08s17.2,7.34,17.2,17.08c0,9.74-7.39,17.08-17.2,17.08S40.42,352.8,40.42,343.06z"/>
			<path class="st0" d="M41.87,266.03v-2.15H25.96v2.15c0,7.69,3.53,14.43,10.22,19.47l0.35,0.27h-9.6v15.42H88.3v-15.42H59.06
				C48.3,285.77,41.87,278.39,41.87,266.03z"/>
			<path class="st0" d="M88.3,197.09H26.93v15.42h7.49l-0.28,0.26c-5.66,5.16-8.66,12.06-8.66,19.96
				c0,17.08,13.82,29.96,32.14,29.96c18.32,0,32.14-12.88,32.14-29.96c0-7.9-2.99-14.8-8.66-19.96l-0.28-0.26h7.49V197.09z
				 M74.81,229.71c0,9.74-7.39,17.08-17.2,17.08s-17.2-7.34-17.2-17.08c0-9.8,7.39-17.2,17.2-17.2S74.81,219.91,74.81,229.71z"/>
			<path class="st0" d="M40.42,112.22c0-8.48,5.47-13.96,13.93-13.96H88.3V82.38H49.27c-14.45,0-23.79,9.66-23.79,24.61
				c0,8.15,2.87,15.08,8.3,20.04l0.28,0.26h-7.13v15.88h34.56c7.97,0,13.33,5.66,13.33,14.08c0,8.03-5.14,13.21-13.09,13.21h-34.8
				v15.88h39.39c6.94,0,12.83-2.26,17.03-6.53c4.19-4.26,6.4-10.21,6.4-17.2c0-7.77-2.83-14.4-8.17-19.17l-0.29-0.26h7.01v-15.88
				H54.59C46.11,127.29,40.42,121.23,40.42,112.22z"/>
			<path class="st0" d="M88.3,7.59H0.68v15.42h33.74l-0.28,0.26c-5.66,5.16-8.66,12.06-8.66,19.96c0,17.08,13.82,29.96,32.14,29.96
				c18.32,0,32.14-12.88,32.14-29.96c0-7.9-2.99-14.8-8.66-19.96l-0.28-0.26h7.49V7.59z M74.81,40.21c0,9.74-7.39,17.08-17.2,17.08
				s-17.2-7.34-17.2-17.08c0-9.8,7.39-17.2,17.2-17.2S74.81,30.41,74.81,40.21z"/>
		</g>
	</g>
</g>
</svg>
