<?xml version="1.0" encoding="utf-8"?>
<!-- Generator: Adobe Illustrator 27.8.1, SVG Export Plug-In . SVG Version: 6.00 Build 0)  -->
<svg version="1.1" id="Laag_1" xmlns="http://www.w3.org/2000/svg" xmlns:xlink="http://www.w3.org/1999/xlink" x="0px" y="0px"
	 viewBox="0 0 566.93 566.93" style="enable-background:new 0 0 566.93 566.93;" xml:space="preserve">
<style type="text/css">
	.st0{fill:#ECECEC;}
	.st1{fill:#4E4955;}
	.st2{fill:#F3F3F3;}
	.st3{fill:#00FF00;}
	.st4{fill-rule:evenodd;clip-rule:evenodd;fill:#4E4955;}
	.st5{fill:#EDEDED;}
</style>
<g>
	<path class="st3" d="M399.06,254.52c-22.08,0-38.74,16.77-38.74,39.01s16.65,39.01,38.74,39.01c22.24,0,39.01-16.77,39.01-39.01
		S421.3,254.52,399.06,254.52z"/>
	<path class="st3" d="M141.94,254.52c-22.08,0-38.74,16.77-38.74,39.01s16.65,39.01,38.74,39.01c22.08,0,38.74-16.77,38.74-39.01
		S164.02,254.52,141.94,254.52z"/>
	<path class="st3" d="M552.55,366.43c-15.87,0-29.37-5.02-39.03-14.51c-9.7-9.53-14.82-22.89-14.82-38.64v-89.36h36.01v78.94
		c0,17.37,10.91,28.81,27.98,29.63c2.78-15.92,4.23-32.3,4.23-49.02C566.93,126.91,440.02,0,283.46,0S0,126.91,0,283.46
		s126.91,283.46,283.46,283.46c127.7,0,235.67-84.44,271.13-200.53C553.92,366.42,553.24,366.43,552.55,366.43z M149.07,366.43
		c-17.92,0-33.58-6.79-45.29-19.64l-0.58-0.64v16.99H68.21V164.37h34.99v76.53l0.58-0.64c11.71-12.85,27.37-19.64,45.29-19.64
		c38.59,0,67.69,31.34,67.69,72.9C216.76,335.09,187.66,366.43,149.07,366.43z M321.55,257.81h-4.88
		c-28.03,0-44.77,14.58-44.77,39.01v66.32h-34.99V223.92h34.99v21.79l0.6-0.8c11.45-15.17,26.72-23.18,44.17-23.18h4.88V257.81z
		 M473.06,363.14h-34.99v-16.99l-0.58,0.64c-11.71,12.85-27.37,19.64-45.29,19.64c-38.75,0-67.97-31.34-67.97-72.9
		c0-41.56,29.22-72.9,67.97-72.9c17.92,0,33.58,6.79,45.29,19.64l0.58,0.64v-16.99h34.99V363.14z"/>
</g>
</svg>
