<?xml version="1.0" encoding="utf-8"?>
<!-- Generator: Adobe Illustrator 27.8.1, SVG Export Plug-In . SVG Version: 6.00 Build 0)  -->
<svg version="1.1" id="Laag_1" xmlns="http://www.w3.org/2000/svg" xmlns:xlink="http://www.w3.org/1999/xlink" x="0px" y="0px"
	 viewBox="0 0 370.6 132.2" style="enable-background:new 0 0 370.6 132.2;" xml:space="preserve">
<style type="text/css">
	.st0{fill:#232437;}
</style>
<g>
	<g>
		<g>
			<path class="st0" d="M8.8,124.3c-1.9,0-3.6-0.4-4.9-1.2c-1.3-0.8-2.3-2-3-3.4c-0.7-1.4-1-3.1-1-4.9c0-2,0.4-3.8,1.2-5.2
				c0.8-1.4,1.9-2.5,3.3-3.3s3-1.1,4.8-1.1c1,0,1.8,0.1,2.4,0.2s1.1,0.3,1.4,0.5c0.4,0.2,0.6,0.2,0.9,0.2s0.4-0.1,0.5-0.3
				c0.1-0.2,0.3-0.4,0.4-0.7h0.8v6.4h-1c-0.3-1.8-0.9-3.2-1.9-4c-1-0.8-2.2-1.2-3.6-1.2c-2,0-3.6,0.7-4.7,2.2s-1.6,3.4-1.6,5.9
				c0,1.9,0.3,3.4,0.9,4.6s1.4,2.1,2.4,2.6s2.2,0.8,3.5,0.8c1.3,0,2.4-0.2,3.4-0.7c1-0.5,1.9-1.2,2.6-2l0.7,0.6
				c-0.5,0.8-1.1,1.4-1.8,2s-1.5,1.1-2.5,1.4C11.1,124.1,10.1,124.3,8.8,124.3z"/>
			<path class="st0" d="M25.5,124h-7v-0.8c0.6,0,1.1-0.1,1.4-0.2c0.3-0.1,0.5-0.3,0.6-0.6s0.1-0.7,0.1-1.2v-7.7c0-0.5,0-0.9-0.1-1.1
				c-0.1-0.2-0.4-0.4-0.9-0.4c-0.3,0-0.6,0-0.9,0.1v-0.8l3.5-0.8h0.7v2.9h0.1c0.5-0.7,0.9-1.3,1.3-1.7s0.7-0.8,1.1-1
				c0.4-0.2,0.8-0.3,1.2-0.3c0.5,0,1,0.1,1.2,0.4c0.3,0.3,0.4,0.7,0.4,1.2c0,0.5-0.1,0.9-0.4,1.2s-0.5,0.4-0.9,0.4
				c-0.3,0-0.6-0.1-0.8-0.2c-0.2-0.2-0.4-0.3-0.6-0.5c-0.2-0.2-0.3-0.2-0.4-0.2c-0.3,0-0.7,0.2-1.1,0.7c-0.4,0.5-0.8,1-1.1,1.6v6.4
				c0,0.6,0.1,1,0.2,1.3s0.4,0.5,0.8,0.6s0.9,0.1,1.6,0.1L25.5,124L25.5,124z"/>
			<path class="st0" d="M35.3,124.2c-1.1,0-2.1-0.3-3-0.8c-0.9-0.5-1.6-1.3-2.1-2.4c-0.5-1-0.8-2.3-0.8-3.8c0-1.6,0.3-2.9,0.8-3.9
				c0.5-1,1.2-1.8,2.1-2.3c0.9-0.5,1.9-0.8,3-0.8c1.5,0,2.8,0.5,3.7,1.6s1.4,2.6,1.5,4.6h-9.1l0-1h6.5c0-0.7-0.1-1.3-0.4-1.9
				c-0.2-0.6-0.5-1.1-1-1.5s-1-0.6-1.7-0.6c-1.1,0-1.9,0.4-2.4,1.3c-0.5,0.8-0.8,2.1-0.8,3.6c0,1.3,0.2,2.4,0.6,3.2
				c0.4,0.9,1,1.5,1.6,1.9c0.7,0.4,1.4,0.6,2.2,0.6c0.8,0,1.4-0.1,1.9-0.3s0.9-0.5,1.2-0.8s0.7-0.7,1-1.1l0.5,0.4
				c-0.2,0.5-0.5,1-0.8,1.5s-0.7,0.9-1.1,1.2s-0.9,0.6-1.4,0.8C36.7,124.1,36,124.2,35.3,124.2z"/>
			<path class="st0" d="M46.1,124.2c-1.1,0-1.9-0.3-2.5-0.9c-0.6-0.6-0.9-1.3-0.9-2.2c0-0.8,0.2-1.4,0.5-1.9
				c0.3-0.5,0.8-0.9,1.4-1.3c0.6-0.4,1.2-0.7,1.8-0.9s1.3-0.4,2-0.6c0.6-0.2,1.2-0.3,1.7-0.5v-1.2c0-1.2-0.2-2.1-0.6-2.6
				c-0.4-0.5-1-0.8-1.9-0.8c-0.8,0-1.3,0.2-1.5,0.5c-0.2,0.3-0.3,0.9-0.3,1.8c0,0.4-0.1,0.8-0.3,1c-0.2,0.2-0.5,0.3-0.9,0.3
				c-0.3,0-0.5-0.1-0.8-0.3c-0.2-0.2-0.4-0.6-0.4-1c0-0.5,0.2-1,0.6-1.5c0.4-0.5,1-0.8,1.7-1.2c0.7-0.3,1.6-0.4,2.6-0.4
				c1.5,0,2.6,0.4,3.3,1.1s1,1.8,1,3.3v6.4c0,0.6,0.1,1,0.2,1.1c0.1,0.2,0.3,0.2,0.7,0.2c0.3,0,0.5-0.1,0.7-0.2
				c0.2-0.1,0.4-0.3,0.6-0.5l0.4,0.4c-0.5,0.7-0.9,1.2-1.3,1.5s-1,0.5-1.7,0.5c-0.7,0-1.1-0.2-1.3-0.6c-0.2-0.4-0.3-0.9-0.4-1.6
				l-0.2-0.3v-4.9c-0.8,0.2-1.6,0.4-2.4,0.7c-0.8,0.3-1.4,0.7-1.8,1.1s-0.7,1-0.7,1.8c0,0.7,0.2,1.2,0.6,1.7
				c0.4,0.4,0.9,0.6,1.5,0.6c0.5,0,1-0.1,1.5-0.4c0.5-0.2,1-0.6,1.6-1l0.2,1h-0.3c-0.4,0.4-0.8,0.7-1.2,1s-0.8,0.5-1.3,0.7
				C47.2,124.1,46.7,124.2,46.1,124.2z"/>
			<path class="st0" d="M63.7,121.4l0.5,0.4c-0.4,0.5-0.7,0.9-1,1.3s-0.7,0.6-1,0.8c-0.4,0.2-0.9,0.3-1.5,0.3c-0.9,0-1.6-0.3-2-0.8
				S58,122,58,120.7V112h-1.5v-0.7c0.7-0.4,1.2-1,1.7-1.7s1-1.7,1.5-2.8h0.7v4h3.2v1.2h-3.2v7.9c0,1,0.1,1.7,0.3,2.1
				s0.5,0.6,1.1,0.6c0.5,0,0.8-0.1,1-0.3S63.3,121.8,63.7,121.4z"/>
			<path class="st0" d="M71.8,124h-6.3v-0.8c0.6,0,1.1-0.1,1.4-0.2c0.3-0.1,0.4-0.3,0.5-0.6c0.1-0.3,0.1-0.7,0.1-1.2v-7.8
				c0-0.6-0.1-1-0.3-1.1s-0.5-0.2-0.9-0.2c-0.2,0-0.4,0-0.7,0.1v-0.8l3.5-0.8h0.7v10.7c0,0.5,0,1,0.1,1.3s0.3,0.5,0.6,0.6
				s0.7,0.2,1.4,0.2L71.8,124L71.8,124z M68.7,108.2c-0.5,0-0.8-0.2-1.2-0.5s-0.4-0.7-0.4-1.1s0.2-0.8,0.4-1.1s0.7-0.5,1.2-0.5
				s0.9,0.2,1.2,0.5s0.4,0.7,0.4,1.1s-0.2,0.8-0.4,1.1C69.5,108.1,69.1,108.2,68.7,108.2z"/>
			<path class="st0" d="M80.2,124h-6.4v-0.8c0.6,0,1.1-0.1,1.4-0.2c0.3-0.1,0.4-0.3,0.5-0.6c0.1-0.3,0.1-0.7,0.1-1.2v-7.9
				c0-0.5-0.1-0.8-0.3-1s-0.5-0.2-0.9-0.2c-0.2,0-0.5,0-0.8,0.1v-0.8l3.6-0.8H78l0,2.6l0.1,0.6v7.5c0,0.5,0,0.9,0.1,1.2
				s0.3,0.5,0.6,0.6c0.3,0.1,0.8,0.2,1.5,0.2L80.2,124L80.2,124z M88.4,124H82v-0.8c0.7,0,1.2-0.1,1.4-0.2c0.3-0.1,0.5-0.3,0.5-0.6
				c0.1-0.3,0.1-0.7,0.1-1.2V116c0-1.1-0.1-2-0.4-2.5s-0.6-0.9-1-1.1s-0.8-0.3-1.2-0.3c-0.5,0-1,0.1-1.5,0.3
				c-0.4,0.2-0.8,0.5-1.2,0.8c-0.3,0.3-0.7,0.6-1,0.8l-0.2-1.4h0.4c0.8-0.7,1.5-1.2,2.2-1.7c0.7-0.4,1.5-0.7,2.3-0.7
				c1.3,0,2.2,0.4,2.8,1.3c0.6,0.9,0.9,2.1,0.9,3.7v5.8c0,0.5,0,0.9,0.1,1.2c0.1,0.3,0.3,0.5,0.6,0.6c0.3,0.1,0.8,0.2,1.4,0.2
				L88.4,124L88.4,124z"/>
			<path class="st0" d="M94.7,130.6c-1.2,0-2.2-0.1-2.9-0.4s-1.2-0.7-1.5-1.2s-0.4-1-0.4-1.5c0-0.5,0.2-1,0.6-1.5
				c0.4-0.5,0.9-1.1,1.7-1.9v-0.3L93,124c-0.4,0.6-0.6,1.1-0.7,1.5c-0.1,0.4-0.2,0.7-0.2,1.1c0,0.8,0.3,1.4,1,1.8
				c0.7,0.4,1.8,0.6,3.2,0.6c1.1,0,2-0.1,2.7-0.4s1.2-0.6,1.5-1s0.5-0.8,0.5-1.2c0-0.5-0.2-0.9-0.5-1.2c-0.3-0.3-0.7-0.5-1.2-0.6
				c-0.5-0.1-1-0.2-1.6-0.2s-1.1,0-1.5,0c-0.8,0-1.5,0-1.9,0s-0.7,0-0.9,0s-0.4,0-0.5,0l-0.3-0.1c-0.3-0.1-0.6-0.2-0.8-0.4
				s-0.5-0.4-0.7-0.7c-0.2-0.3-0.3-0.6-0.3-0.9c0-0.3,0.1-0.7,0.3-1.1c0.2-0.4,0.5-0.7,0.8-1.1c0.4-0.4,0.8-0.7,1.2-1.1v-0.2
				l0.7,0.5c-0.1,0.1-0.2,0.3-0.3,0.5c-0.1,0.2-0.2,0.5-0.3,0.8c-0.1,0.3-0.1,0.5-0.1,0.7c0,0.3,0.1,0.5,0.3,0.7
				c0.2,0.2,0.5,0.3,1,0.3c0.5,0.1,1.2,0.1,2,0.1c1.2,0,2.2,0.1,3.2,0.2c0.9,0.1,1.7,0.4,2.2,0.9s0.8,1.2,0.8,2.3
				c0,0.9-0.2,1.7-0.7,2.4c-0.5,0.7-1.1,1.2-1.8,1.6s-1.6,0.7-2.5,0.9C96.5,130.5,95.6,130.6,94.7,130.6z M96,119.6
				c-0.5,0-0.9-0.1-1.4-0.1s-0.8-0.2-1.2-0.3l-0.3-0.3c-0.5-0.3-0.9-0.6-1.2-0.9s-0.6-0.8-0.8-1.3s-0.3-1.1-0.3-1.7
				c0-0.9,0.2-1.8,0.7-2.4s1-1.2,1.8-1.6c0.8-0.4,1.7-0.6,2.6-0.6c0.6,0,1.1,0.1,1.6,0.2c0.5,0.1,1,0.3,1.4,0.5
				c0.4,0.2,0.8,0.4,1.1,0.7v0.7c0.2,0.3,0.4,0.7,0.7,1.1c0.2,0.5,0.3,1.1,0.3,1.8c0,0.9-0.2,1.6-0.6,2.3s-1,1.1-1.7,1.5
				C97.8,119.4,97,119.6,96,119.6z M96,118.6c0.7,0,1.3-0.2,1.8-0.7c0.5-0.5,0.7-1.4,0.7-2.7c0-1.1-0.2-2.1-0.7-2.8
				c-0.5-0.7-1.2-1-2.1-1c-0.7,0-1.3,0.3-1.8,0.8s-0.7,1.4-0.7,2.6c0,1.2,0.2,2.1,0.7,2.8C94.4,118.3,95.1,118.6,96,118.6z
				 M102.6,110.8v1.5l-3-0.1l-1-1.2L102.6,110.8z"/>
			<path class="st0" d="M115.8,124.4c-1.6,0-2.8-0.4-3.6-1.1c-0.8-0.8-1.3-1.8-1.3-3.3c0-0.9,0.2-1.7,0.6-2.4s0.9-1.4,1.8-2.1
				c0.8-0.7,1.8-1.3,3.2-2.1l0.4,0.9c-1.2,0.7-2,1.4-2.5,2.2c-0.5,0.8-0.8,1.7-0.8,2.7c0,0.8,0.1,1.4,0.4,1.9
				c0.3,0.5,0.6,0.9,1.1,1.1c0.5,0.2,1.1,0.3,1.8,0.3c0.7,0,1.4-0.1,2-0.3c0.6-0.2,1.3-0.7,2.2-1.5l0.7,0.7
				c-0.7,0.7-1.3,1.2-1.9,1.7c-0.6,0.4-1.2,0.7-1.8,0.9C117.3,124.3,116.6,124.4,115.8,124.4z M125.9,124.4c-0.6,0-1.2-0.1-1.6-0.3
				c-0.5-0.2-0.9-0.5-1.4-0.9c-0.5-0.4-1.1-1-1.7-1.7c-0.4-0.4-0.9-1-1.4-1.8s-1.1-1.6-1.7-2.6c-0.6-1-1.2-2-1.8-3.1
				c-0.6-1.1-1-2-1.3-2.7s-0.4-1.5-0.4-2.3c0-1.1,0.4-2,1.2-2.6c0.8-0.7,1.9-1,3.2-1c1,0,1.9,0.3,2.6,0.8c0.7,0.6,1.1,1.4,1.1,2.6
				c0,1-0.3,1.9-1,2.6c-0.7,0.7-1.8,1.5-3.5,2.2l-0.4-0.8c0.9-0.4,1.6-0.8,2.1-1.2c0.5-0.4,0.8-0.9,1-1.3c0.2-0.5,0.3-1,0.3-1.5
				c0-0.7-0.2-1.3-0.6-1.8c-0.4-0.5-0.9-0.7-1.6-0.7c-0.7,0-1.2,0.2-1.6,0.6s-0.6,0.9-0.6,1.6c0,0.5,0.1,1.2,0.4,1.9
				s0.6,1.6,1.1,2.4s0.9,1.7,1.5,2.5s1.1,1.7,1.6,2.4s1.1,1.4,1.5,1.9c0.8,0.9,1.5,1.6,2.1,2.1c0.6,0.5,1.3,0.8,2.1,0.8
				c0.6,0,1.1-0.1,1.5-0.4s0.9-0.7,1.2-1.2l0.5,0.3c-0.2,0.7-0.6,1.2-1,1.7c-0.4,0.5-0.9,0.8-1.5,1.1
				C127.1,124.2,126.5,124.4,125.9,124.4z M122.8,120.3l-0.7-0.6c0.6-0.9,1.1-1.7,1.4-2.3c0.4-0.6,0.6-1.2,0.8-1.6
				c0.2-0.4,0.2-0.9,0.2-1.3s-0.1-0.7-0.4-0.9c-0.2-0.2-0.7-0.3-1.4-0.3v-0.9h6.2v0.9c-0.7,0-1.2,0.1-1.6,0.3
				c-0.4,0.2-0.7,0.6-1.1,1.2c-0.4,0.7-0.8,1.3-1.1,1.8c-0.3,0.5-0.7,1.1-1.1,1.6S123.4,119.5,122.8,120.3z"/>
			<path class="st0" d="M146.4,124h-8v-0.8c0.8,0,1.4-0.1,1.8-0.2c0.4-0.1,0.6-0.4,0.8-0.8c0.1-0.4,0.2-0.9,0.2-1.7v-11.8
				c0-0.7-0.1-1.2-0.2-1.5s-0.4-0.6-0.8-0.7s-0.9-0.2-1.7-0.2v-0.8h7.7c1.5,0,2.8,0.2,4.1,0.5c1.3,0.3,2.4,0.8,3.3,1.5
				s1.7,1.7,2.2,2.8c0.5,1.2,0.8,2.6,0.8,4.3c0,1.6-0.2,3-0.7,4.2s-1.2,2.2-2.1,2.9s-1.9,1.3-3.2,1.7
				C149.3,123.8,147.9,124,146.4,124z M145.3,122.9c1.7,0,3.2-0.2,4.4-0.7s2.1-1.3,2.8-2.4s1-2.8,1-4.9c0-2.7-0.7-4.7-2.1-6.1
				c-1.4-1.4-3.5-2.1-6.4-2.1c-0.2,0-0.4,0-0.7,0s-0.4,0-0.7,0.1v16.1c0.3,0,0.6,0,0.8,0.1S145.1,122.9,145.3,122.9z"/>
			<path class="st0" d="M165.4,124H159v-0.8c0.6,0,1.1-0.1,1.4-0.2s0.4-0.3,0.5-0.6c0.1-0.3,0.1-0.7,0.1-1.2v-7.8
				c0-0.6-0.1-1-0.3-1.1c-0.2-0.1-0.5-0.2-0.9-0.2c-0.2,0-0.4,0-0.7,0.1v-0.8l3.5-0.8h0.7v10.7c0,0.5,0,1,0.1,1.3s0.3,0.5,0.6,0.6
				c0.3,0.1,0.7,0.2,1.4,0.2V124z M162.2,108.2c-0.5,0-0.9-0.2-1.1-0.5c-0.3-0.3-0.4-0.7-0.4-1.1s0.1-0.8,0.4-1.1
				c0.3-0.3,0.7-0.5,1.2-0.5s0.9,0.2,1.2,0.5s0.4,0.7,0.4,1.1s-0.1,0.8-0.4,1.1C163.1,108.1,162.7,108.2,162.2,108.2z"/>
			<path class="st0" d="M174.3,124h-7v-0.8c0.6,0,1.1-0.1,1.4-0.2c0.3-0.1,0.5-0.3,0.6-0.6s0.1-0.7,0.1-1.2v-7.7
				c0-0.5,0-0.9-0.1-1.1c-0.1-0.2-0.4-0.4-0.9-0.4c-0.3,0-0.6,0-0.9,0.1v-0.8l3.5-0.8h0.7v2.9h0.1c0.5-0.7,0.9-1.3,1.3-1.7
				s0.7-0.8,1.1-1c0.4-0.2,0.8-0.3,1.2-0.3c0.5,0,0.9,0.1,1.2,0.4s0.4,0.7,0.4,1.2c0,0.5-0.1,0.9-0.4,1.2s-0.5,0.4-0.9,0.4
				c-0.3,0-0.6-0.1-0.8-0.2c-0.2-0.2-0.4-0.3-0.6-0.5c-0.2-0.2-0.3-0.2-0.4-0.2c-0.3,0-0.7,0.2-1.1,0.7c-0.4,0.5-0.8,1-1.1,1.6v6.4
				c0,0.6,0.1,1,0.2,1.3s0.4,0.5,0.8,0.6s0.9,0.1,1.6,0.1L174.3,124L174.3,124z"/>
			<path class="st0" d="M184,124.2c-1.1,0-2.1-0.3-3.1-0.8c-0.9-0.5-1.6-1.3-2.1-2.4c-0.5-1-0.8-2.3-0.8-3.8c0-1.6,0.3-2.9,0.8-3.9
				s1.2-1.8,2.1-2.3s1.9-0.8,3-0.8c1.5,0,2.8,0.5,3.7,1.6s1.4,2.6,1.5,4.6h-9.1l0-1h6.5c0-0.7-0.1-1.3-0.4-1.9
				c-0.2-0.6-0.6-1.1-1-1.5s-1-0.6-1.7-0.6c-1.1,0-1.9,0.4-2.4,1.3c-0.5,0.8-0.8,2.1-0.8,3.6c0,1.3,0.2,2.4,0.6,3.2
				c0.4,0.9,0.9,1.5,1.6,1.9c0.7,0.4,1.4,0.6,2.2,0.6c0.8,0,1.4-0.1,1.9-0.3s0.9-0.5,1.2-0.8s0.7-0.7,0.9-1.1l0.5,0.4
				c-0.2,0.5-0.5,1-0.8,1.5c-0.3,0.5-0.7,0.9-1.1,1.2c-0.4,0.4-0.9,0.6-1.4,0.8C185.4,124.1,184.8,124.2,184,124.2z"/>
			<path class="st0" d="M201.9,119.8l0.5,0.4c-0.4,0.8-0.8,1.4-1.2,2.1s-1,1.1-1.7,1.5s-1.5,0.5-2.5,0.5c-1.2,0-2.2-0.3-3-0.8
				c-0.8-0.6-1.5-1.3-1.9-2.3c-0.4-1-0.7-2.2-0.7-3.4c0-1.5,0.2-2.8,0.7-3.8c0.5-1.1,1.2-1.9,2.2-2.5c0.9-0.6,2.1-0.9,3.4-0.9
				c1.3,0,2.4,0.3,3.1,0.9c0.8,0.6,1.1,1.3,1.1,2.1c0,0.4-0.1,0.7-0.3,0.9c-0.2,0.2-0.5,0.3-0.9,0.3c-0.4,0-0.7-0.1-0.9-0.3
				c-0.2-0.2-0.4-0.5-0.5-0.8s-0.3-0.6-0.4-0.9c-0.1-0.3-0.3-0.6-0.6-0.8c-0.2-0.2-0.6-0.3-1.1-0.3c-1.1,0-2,0.4-2.7,1.2
				c-0.6,0.8-1,2.1-1,3.7c0,1.7,0.4,3.1,1.1,4.2s1.8,1.6,3.2,1.6c0.9,0,1.7-0.2,2.2-0.6C200.6,121.2,201.2,120.6,201.9,119.8z"/>
			<path class="st0" d="M211.5,121.4l0.5,0.4c-0.4,0.5-0.7,0.9-1,1.3s-0.6,0.6-1,0.8c-0.4,0.2-0.9,0.3-1.5,0.3
				c-0.9,0-1.6-0.3-2.1-0.8c-0.4-0.6-0.6-1.5-0.6-2.7V112h-1.6v-0.7c0.7-0.4,1.2-1,1.7-1.7s1-1.7,1.5-2.8h0.7v4h3.2v1.2h-3.2v7.9
				c0,1,0.1,1.7,0.3,2.1c0.2,0.4,0.5,0.6,1.1,0.6c0.4,0,0.8-0.1,1.1-0.3C210.8,122.1,211.1,121.8,211.5,121.4z"/>
			<path class="st0" d="M219.6,124h-6.3v-0.8c0.6,0,1.1-0.1,1.4-0.2s0.4-0.3,0.5-0.6s0.1-0.7,0.1-1.2v-7.8c0-0.6-0.1-1-0.3-1.1
				c-0.2-0.1-0.5-0.2-0.9-0.2c-0.2,0-0.4,0-0.7,0.1v-0.8l3.5-0.8h0.7v10.7c0,0.5,0,1,0.1,1.3c0.1,0.3,0.3,0.5,0.6,0.6
				c0.3,0.1,0.7,0.2,1.4,0.2V124z M216.4,108.2c-0.5,0-0.9-0.2-1.1-0.5c-0.3-0.3-0.4-0.7-0.4-1.1s0.1-0.8,0.4-1.1
				c0.3-0.3,0.7-0.5,1.2-0.5s0.9,0.2,1.2,0.5s0.4,0.7,0.4,1.1s-0.1,0.8-0.4,1.1C217.3,108.1,216.9,108.2,216.4,108.2z"/>
			<path class="st0" d="M228,124h-6.4v-0.8c0.6,0,1.1-0.1,1.4-0.2s0.4-0.3,0.5-0.6c0.1-0.3,0.1-0.7,0.1-1.2v-7.9
				c0-0.5-0.1-0.8-0.3-1c-0.2-0.2-0.5-0.2-0.9-0.2c-0.2,0-0.5,0-0.8,0.1v-0.8l3.6-0.8h0.6l0,2.6l0.1,0.6v7.5c0,0.5,0,0.9,0.1,1.2
				s0.3,0.5,0.6,0.6c0.3,0.1,0.8,0.2,1.5,0.2L228,124L228,124z M236.2,124h-6.5v-0.8c0.7,0,1.2-0.1,1.4-0.2s0.5-0.3,0.5-0.6
				c0.1-0.3,0.1-0.7,0.1-1.2V116c0-1.1-0.1-2-0.4-2.5s-0.6-0.9-1-1.1s-0.8-0.3-1.2-0.3c-0.5,0-1,0.1-1.5,0.3
				c-0.4,0.2-0.8,0.5-1.2,0.8c-0.4,0.3-0.7,0.6-1,0.8l-0.2-1.4h0.4c0.8-0.7,1.5-1.2,2.2-1.7c0.7-0.4,1.5-0.7,2.3-0.7
				c1.3,0,2.2,0.4,2.8,1.3s0.9,2.1,0.9,3.7v5.8c0,0.5,0,0.9,0.1,1.2c0.1,0.3,0.3,0.5,0.6,0.6c0.3,0.1,0.8,0.2,1.4,0.2L236.2,124
				L236.2,124z"/>
			<path class="st0" d="M242.5,130.6c-1.2,0-2.2-0.1-2.9-0.4c-0.7-0.3-1.2-0.7-1.5-1.2s-0.4-1-0.4-1.5c0-0.5,0.2-1,0.6-1.5
				c0.4-0.5,0.9-1.1,1.7-1.9v-0.3l0.8,0.2c-0.4,0.6-0.6,1.1-0.7,1.5c-0.1,0.4-0.2,0.7-0.2,1.1c0,0.8,0.4,1.4,1,1.8
				c0.7,0.4,1.8,0.6,3.2,0.6c1.1,0,2-0.1,2.7-0.4s1.2-0.6,1.5-1c0.3-0.4,0.5-0.8,0.5-1.2c0-0.5-0.2-0.9-0.5-1.2
				c-0.3-0.3-0.7-0.5-1.2-0.6s-1-0.2-1.6-0.2s-1.1,0-1.6,0c-0.8,0-1.5,0-1.9,0c-0.4,0-0.7,0-0.9,0c-0.2,0-0.4,0-0.5,0l-0.3-0.1
				c-0.3-0.1-0.6-0.2-0.8-0.4s-0.5-0.4-0.7-0.7c-0.2-0.3-0.3-0.6-0.3-0.9c0-0.3,0.1-0.7,0.3-1.1c0.2-0.4,0.5-0.7,0.8-1.1
				c0.4-0.4,0.8-0.7,1.2-1.1v-0.2l0.7,0.5c-0.1,0.1-0.2,0.3-0.3,0.5c-0.1,0.2-0.2,0.5-0.3,0.8c-0.1,0.3-0.1,0.5-0.1,0.7
				c0,0.3,0.1,0.5,0.3,0.7c0.2,0.2,0.5,0.3,1,0.3s1.1,0.1,2,0.1c1.2,0,2.2,0.1,3.2,0.2s1.7,0.4,2.2,0.9s0.8,1.2,0.8,2.3
				c0,0.9-0.2,1.7-0.7,2.4c-0.5,0.7-1.1,1.2-1.8,1.6s-1.6,0.7-2.5,0.9C244.2,130.5,243.3,130.6,242.5,130.6z M243.8,119.6
				c-0.5,0-0.9-0.1-1.4-0.1s-0.8-0.2-1.2-0.3l-0.3-0.3c-0.5-0.3-0.9-0.6-1.2-0.9s-0.6-0.8-0.8-1.3s-0.3-1.1-0.3-1.7
				c0-0.9,0.2-1.8,0.6-2.4s1-1.2,1.8-1.6c0.8-0.4,1.6-0.6,2.6-0.6c0.6,0,1.1,0.1,1.6,0.2c0.5,0.1,1,0.3,1.4,0.5
				c0.4,0.2,0.8,0.4,1.1,0.7v0.7c0.2,0.3,0.4,0.7,0.7,1.1c0.2,0.5,0.4,1.1,0.4,1.8c0,0.9-0.2,1.6-0.6,2.3s-1,1.1-1.7,1.5
				C245.6,119.4,244.8,119.6,243.8,119.6z M243.8,118.6c0.7,0,1.3-0.2,1.8-0.7c0.5-0.5,0.7-1.4,0.7-2.7c0-1.1-0.2-2.1-0.7-2.8
				c-0.5-0.7-1.2-1-2.1-1c-0.7,0-1.3,0.3-1.8,0.8c-0.4,0.6-0.7,1.4-0.7,2.6c0,1.2,0.2,2.1,0.7,2.8S242.9,118.6,243.8,118.6z
				 M250.4,110.8v1.5l-3-0.1l-1-1.2L250.4,110.8z"/>
			<path class="st0" d="M254.1,124.2c-0.6,0-1-0.2-1.2-0.5s-0.4-0.7-0.4-1.2c0-0.5,0.1-0.9,0.4-1.2s0.7-0.5,1.2-0.5
				c0.5,0,1,0.2,1.3,0.5c0.3,0.4,0.4,0.8,0.4,1.3c0,0.4-0.1,0.8-0.4,1.1C255.1,124,254.7,124.2,254.1,124.2z"/>
		</g>
		<g>
			<path class="st0" d="M36.9,90.2c17,0,29.8-13.8,29.8-32.1S53.9,25.9,36.9,25.9c-7.9,0-14.8,3-20,8.7l-0.3,0.3V1.1H1.2v87.6h15.4
				v-7.5l0.3,0.3C22,87.2,29,90.2,36.9,90.2z M33.7,40.8c9.7,0,17.1,7.4,17.1,17.2s-7.3,17.2-17.1,17.2S16.6,67.8,16.6,58
				S24,40.8,33.7,40.8z"/>
			<path class="st0" d="M110.7,42.3h2.2V26.4h-2.2c-7.7,0-14.4,3.5-19.5,10.2L91,36.9v-9.6H75.6v61.4H91V59.5
				C91,48.7,98.4,42.3,110.7,42.3z"/>
			<path class="st0" d="M179.7,88.7V27.3h-15.4v7.5l-0.3-0.3c-5.2-5.7-12.1-8.7-20-8.7c-17.1,0-30,13.8-30,32.1s12.9,32.1,30,32.1
				c7.9,0,14.8-3,20-8.7l0.3-0.3v7.5C164.3,88.7,179.7,88.7,179.7,88.7z M147.1,75.2c-9.7,0-17.1-7.4-17.1-17.2s7.3-17.2,17.1-17.2
				c9.8,0,17.2,7.4,17.2,17.2S156.9,75.2,147.1,75.2z"/>
			<path class="st0" d="M264.6,40.8c8.5,0,14,5.5,14,13.9v34h15.9v-39c0-14.5-9.7-23.8-24.6-23.8c-8.1,0-15.1,2.9-20,8.3l-0.3,0.3
				v-7.1h-15.9v34.6c0,8-5.7,13.3-14.1,13.3c-8,0-13.2-5.1-13.2-13.1V27.3h-15.9v39.4c0,6.9,2.3,12.8,6.5,17
				c4.3,4.2,10.2,6.4,17.2,6.4c7.8,0,14.4-2.8,19.2-8.2l0.3-0.3v7h15.9V55C249.5,46.5,255.5,40.8,264.6,40.8z"/>
			<path class="st0" d="M369.2,88.7V1.1h-15.4v33.7l-0.3-0.3c-5.2-5.7-12.1-8.7-20-8.7c-17.1,0-30,13.8-30,32.1s12.9,32.1,30,32.1
				c7.9,0,14.8-3,20-8.7l0.3-0.3v7.5L369.2,88.7L369.2,88.7z M336.6,75.2c-9.7,0-17.1-7.4-17.1-17.2s7.3-17.2,17.1-17.2
				c9.8,0,17.2,7.4,17.2,17.2S346.4,75.2,336.6,75.2z"/>
		</g>
	</g>
</g>
</svg>
