<?xml version="1.0" encoding="utf-8"?>
<!-- Generator: Adobe Illustrator 27.8.1, SVG Export Plug-In . SVG Version: 6.00 Build 0)  -->
<svg version="1.1" id="Laag_1" xmlns="http://www.w3.org/2000/svg" xmlns:xlink="http://www.w3.org/1999/xlink" x="0px" y="0px"
	 viewBox="0 0 370.59 132.24" style="enable-background:new 0 0 370.59 132.24;" xml:space="preserve">
<style type="text/css">
	.st0{fill:#ECECEC;}
	.st1{fill:#4E4955;}
	.st2{fill:#F3F3F3;}
	.st3{fill:#00FF00;}
	.st4{fill-rule:evenodd;clip-rule:evenodd;fill:#4E4955;}
	.st5{fill:#EDEDED;}
</style>
<g>
	<g>
		<g>
			<path class="st2" d="M8.82,124.28c-1.93,0-3.55-0.41-4.86-1.24c-1.31-0.82-2.3-1.96-2.96-3.4c-0.67-1.44-1-3.07-1-4.89
				c0-2.04,0.39-3.77,1.18-5.2c0.79-1.42,1.87-2.51,3.26-3.26c1.39-0.75,2.98-1.12,4.78-1.12c0.99,0,1.79,0.08,2.39,0.25
				c0.6,0.17,1.08,0.34,1.43,0.51c0.36,0.17,0.65,0.25,0.87,0.25c0.22,0,0.4-0.1,0.52-0.29c0.12-0.2,0.27-0.43,0.44-0.72h0.84v6.43
				h-0.96c-0.3-1.84-0.93-3.16-1.9-3.99c-0.96-0.82-2.17-1.24-3.61-1.24c-2.02,0-3.58,0.72-4.68,2.16c-1.1,1.44-1.64,3.42-1.64,5.93
				c0,1.87,0.29,3.4,0.86,4.58c0.57,1.18,1.36,2.05,2.37,2.61c1.01,0.56,2.17,0.84,3.48,0.84c1.29,0,2.42-0.24,3.4-0.72
				c0.97-0.48,1.85-1.15,2.64-2.01l0.67,0.59c-0.51,0.75-1.11,1.42-1.81,2.01s-1.52,1.05-2.46,1.39
				C11.14,124.11,10.06,124.28,8.82,124.28z"/>
			<path class="st2" d="M25.53,123.97h-7.02v-0.81c0.62,0,1.07-0.05,1.36-0.16c0.29-0.1,0.48-0.29,0.56-0.56
				c0.08-0.27,0.13-0.67,0.13-1.19v-7.72c0-0.51-0.04-0.88-0.13-1.14c-0.08-0.25-0.38-0.38-0.88-0.38c-0.28,0-0.57,0.02-0.87,0.06
				v-0.79l3.48-0.84h0.67v2.89h0.08c0.49-0.69,0.92-1.26,1.29-1.71c0.37-0.45,0.74-0.79,1.11-1.01c0.36-0.22,0.77-0.34,1.22-0.34
				c0.54,0,0.95,0.14,1.22,0.42c0.27,0.28,0.41,0.67,0.41,1.15c0,0.52-0.13,0.91-0.38,1.15c-0.25,0.24-0.54,0.37-0.86,0.37
				c-0.3,0-0.57-0.08-0.8-0.24c-0.23-0.16-0.44-0.32-0.6-0.48c-0.17-0.16-0.31-0.24-0.42-0.24c-0.32,0-0.68,0.24-1.1,0.73
				c-0.41,0.49-0.79,1.01-1.12,1.57v6.4c0,0.58,0.07,1.02,0.22,1.32c0.15,0.3,0.42,0.5,0.8,0.59c0.38,0.09,0.92,0.14,1.61,0.14
				V123.97z"/>
			<path class="st2" d="M35.31,124.25c-1.12,0-2.14-0.27-3.05-0.8c-0.91-0.53-1.62-1.32-2.15-2.36c-0.52-1.04-0.79-2.31-0.79-3.81
				c0-1.57,0.27-2.87,0.8-3.89c0.53-1.02,1.25-1.78,2.15-2.29c0.9-0.51,1.89-0.76,2.98-0.76c1.54,0,2.77,0.53,3.71,1.6
				c0.94,1.07,1.44,2.58,1.52,4.55h-9.13l-0.03-1.04h6.52c-0.02-0.69-0.14-1.34-0.37-1.95c-0.22-0.61-0.55-1.1-0.98-1.47
				c-0.43-0.37-0.98-0.56-1.66-0.56c-1.09,0-1.9,0.43-2.44,1.28c-0.54,0.85-0.81,2.06-0.81,3.61c0,1.29,0.21,2.37,0.62,3.23
				c0.41,0.86,0.95,1.5,1.63,1.92c0.67,0.42,1.4,0.63,2.16,0.63c0.77,0,1.39-0.1,1.87-0.31c0.48-0.21,0.88-0.47,1.22-0.8
				c0.34-0.33,0.66-0.69,0.95-1.08l0.53,0.39c-0.24,0.52-0.52,1.02-0.84,1.5c-0.32,0.48-0.68,0.89-1.08,1.25
				c-0.4,0.36-0.88,0.64-1.42,0.84C36.67,124.14,36.04,124.25,35.31,124.25z"/>
			<path class="st2" d="M46.09,124.16c-1.09,0-1.92-0.3-2.49-0.9c-0.57-0.6-0.86-1.35-0.86-2.25c0-0.75,0.17-1.38,0.52-1.9
				c0.35-0.51,0.8-0.95,1.38-1.31c0.57-0.36,1.19-0.66,1.85-0.9c0.66-0.24,1.32-0.45,1.95-0.62c0.64-0.17,1.2-0.33,1.69-0.48v-1.24
				c0-1.22-0.21-2.08-0.63-2.6c-0.42-0.51-1.05-0.77-1.9-0.77c-0.81,0-1.32,0.17-1.54,0.51c-0.22,0.34-0.34,0.93-0.34,1.77
				c0,0.43-0.11,0.75-0.32,0.97c-0.22,0.22-0.52,0.32-0.91,0.32c-0.28,0-0.55-0.11-0.8-0.32c-0.25-0.22-0.38-0.56-0.38-1.03
				c0-0.52,0.2-1.02,0.6-1.49c0.4-0.47,0.97-0.85,1.71-1.15c0.74-0.3,1.62-0.45,2.63-0.45c1.54,0,2.62,0.36,3.26,1.07
				c0.64,0.71,0.96,1.8,0.96,3.26v6.38c0,0.58,0.07,0.96,0.2,1.12c0.13,0.17,0.35,0.25,0.65,0.25c0.26,0,0.5-0.06,0.72-0.2
				c0.22-0.13,0.42-0.3,0.6-0.51l0.42,0.45c-0.47,0.67-0.91,1.17-1.33,1.47s-0.99,0.46-1.7,0.46c-0.66,0-1.08-0.19-1.28-0.56
				c-0.2-0.37-0.34-0.91-0.44-1.6l-0.17-0.34v-4.86c-0.84,0.21-1.64,0.45-2.39,0.73c-0.75,0.28-1.36,0.65-1.83,1.1
				c-0.47,0.45-0.7,1.04-0.7,1.77c0,0.69,0.19,1.25,0.56,1.66c0.37,0.41,0.86,0.62,1.46,0.62c0.49,0,1-0.12,1.53-0.37
				c0.53-0.24,1.05-0.59,1.56-1.04l0.22,1.01h-0.34c-0.43,0.37-0.85,0.71-1.25,1.01c-0.4,0.3-0.83,0.53-1.29,0.69
				C47.22,124.08,46.69,124.16,46.09,124.16z"/>
			<path class="st2" d="M63.68,121.44l0.53,0.45c-0.36,0.51-0.69,0.93-1,1.28c-0.31,0.35-0.65,0.61-1.03,0.8
				c-0.37,0.19-0.86,0.28-1.46,0.28c-0.94,0-1.62-0.28-2.05-0.83s-0.65-1.46-0.65-2.71V112h-1.54v-0.65
				c0.66-0.41,1.22-0.97,1.7-1.67c0.48-0.7,0.97-1.65,1.47-2.85h0.7v3.99h3.17V112h-3.17v7.92c0,0.99,0.09,1.69,0.27,2.08
				c0.18,0.39,0.54,0.59,1.08,0.59c0.45,0,0.8-0.09,1.05-0.28S63.32,121.83,63.68,121.44z"/>
			<path class="st2" d="M71.8,123.97h-6.32v-0.79c0.64,0,1.09-0.06,1.36-0.18c0.27-0.12,0.44-0.33,0.51-0.63
				c0.07-0.3,0.1-0.71,0.1-1.24v-7.84c0-0.6-0.1-0.97-0.31-1.11c-0.21-0.14-0.52-0.21-0.93-0.21c-0.19,0-0.42,0.02-0.7,0.06v-0.81
				l3.54-0.79h0.73v10.7c0,0.54,0.04,0.96,0.11,1.26s0.26,0.51,0.55,0.62c0.29,0.11,0.74,0.17,1.36,0.17V123.97z M68.65,108.24
				c-0.47,0-0.85-0.16-1.15-0.48c-0.3-0.32-0.45-0.69-0.45-1.12c0-0.43,0.15-0.8,0.44-1.11c0.29-0.31,0.68-0.46,1.17-0.46
				c0.49,0,0.88,0.15,1.17,0.46c0.29,0.31,0.44,0.68,0.44,1.11c0,0.43-0.15,0.81-0.44,1.12C69.52,108.08,69.14,108.24,68.65,108.24z
				"/>
			<path class="st2" d="M80.19,123.97h-6.43v-0.79c0.64,0,1.09-0.06,1.36-0.18c0.27-0.12,0.44-0.33,0.51-0.63
				c0.07-0.3,0.1-0.71,0.1-1.24v-7.89c0-0.51-0.1-0.84-0.31-1c-0.21-0.16-0.5-0.24-0.87-0.24c-0.24,0-0.5,0.02-0.76,0.06v-0.81
				l3.57-0.81H78l-0.03,2.58l0.08,0.59v7.53c0,0.52,0.04,0.94,0.11,1.24s0.26,0.51,0.56,0.63c0.3,0.12,0.79,0.18,1.46,0.18V123.97z
				 M88.45,123.97h-6.49v-0.79c0.67,0,1.16-0.06,1.45-0.18c0.29-0.12,0.47-0.33,0.53-0.63c0.07-0.3,0.1-0.71,0.1-1.24v-5.08
				c0-1.12-0.13-1.97-0.38-2.53c-0.25-0.56-0.58-0.93-0.97-1.11c-0.39-0.18-0.81-0.27-1.24-0.27c-0.54,0-1.03,0.11-1.46,0.32
				c-0.43,0.22-0.82,0.47-1.17,0.77c-0.35,0.3-0.67,0.58-0.97,0.84l-0.2-1.38h0.42c0.77-0.67,1.49-1.24,2.18-1.69
				c0.68-0.45,1.47-0.67,2.35-0.67c1.27,0,2.22,0.43,2.84,1.29c0.62,0.86,0.93,2.1,0.93,3.71v5.79c0,0.52,0.04,0.94,0.13,1.24
				c0.08,0.3,0.28,0.51,0.58,0.63c0.3,0.12,0.76,0.18,1.38,0.18V123.97z"/>
			<path class="st2" d="M94.69,130.57c-1.22,0-2.18-0.15-2.88-0.45s-1.19-0.69-1.47-1.17c-0.28-0.48-0.42-0.97-0.42-1.47
				c0-0.47,0.19-0.96,0.58-1.47c0.38-0.52,0.95-1.14,1.7-1.87v-0.31l0.84,0.17c-0.36,0.6-0.6,1.09-0.73,1.47
				c-0.13,0.38-0.2,0.73-0.2,1.05c0,0.81,0.35,1.41,1.04,1.83c0.69,0.41,1.75,0.62,3.17,0.62c1.1,0,2-0.14,2.68-0.42
				c0.68-0.28,1.18-0.63,1.49-1.04c0.31-0.41,0.46-0.81,0.46-1.21c0-0.51-0.16-0.89-0.49-1.17c-0.33-0.27-0.74-0.46-1.25-0.58
				c-0.51-0.11-1.04-0.18-1.6-0.21c-0.56-0.03-1.08-0.04-1.54-0.04c-0.84-0.02-1.48-0.03-1.91-0.03c-0.43,0-0.74,0-0.93-0.01
				c-0.19-0.01-0.36-0.01-0.51-0.01l-0.28-0.14c-0.28-0.09-0.56-0.24-0.84-0.45c-0.28-0.21-0.52-0.45-0.7-0.74
				c-0.19-0.29-0.28-0.59-0.28-0.91c0-0.34,0.1-0.69,0.29-1.05c0.2-0.37,0.47-0.73,0.83-1.1c0.36-0.37,0.75-0.72,1.18-1.05v-0.25
				l0.73,0.53c-0.09,0.09-0.21,0.26-0.34,0.51c-0.13,0.24-0.24,0.5-0.34,0.77c-0.09,0.27-0.14,0.5-0.14,0.69
				c0,0.28,0.1,0.5,0.29,0.66c0.2,0.16,0.53,0.28,1.01,0.35c0.48,0.08,1.15,0.11,2.01,0.11c1.18,0,2.24,0.06,3.19,0.17
				c0.95,0.11,1.69,0.4,2.23,0.87c0.54,0.47,0.81,1.24,0.81,2.3c0,0.94-0.23,1.73-0.69,2.37c-0.46,0.65-1.07,1.17-1.83,1.56
				c-0.76,0.39-1.59,0.68-2.5,0.86C96.46,130.48,95.57,130.57,94.69,130.57z M95.98,119.59c-0.49,0-0.94-0.05-1.36-0.14
				c-0.42-0.09-0.83-0.21-1.22-0.34l-0.31-0.28c-0.49-0.26-0.9-0.57-1.25-0.93c-0.35-0.36-0.61-0.78-0.8-1.28
				c-0.19-0.5-0.28-1.06-0.28-1.7c0-0.94,0.22-1.75,0.65-2.43c0.43-0.68,1.03-1.21,1.8-1.59c0.77-0.37,1.65-0.56,2.64-0.56
				c0.56,0,1.09,0.05,1.59,0.16c0.5,0.1,0.96,0.26,1.39,0.46c0.43,0.21,0.8,0.45,1.12,0.73v0.73c0.21,0.28,0.43,0.66,0.66,1.12
				c0.23,0.47,0.35,1.06,0.35,1.77c0,0.86-0.21,1.61-0.63,2.26c-0.42,0.65-1,1.14-1.74,1.49C97.84,119.41,96.97,119.59,95.98,119.59
				z M96.01,118.6c0.71,0,1.3-0.24,1.76-0.73c0.46-0.49,0.69-1.4,0.69-2.73c0-1.14-0.24-2.06-0.73-2.75
				c-0.49-0.69-1.18-1.04-2.08-1.04c-0.73,0-1.32,0.28-1.76,0.84c-0.44,0.56-0.66,1.43-0.66,2.61c0,1.2,0.23,2.13,0.7,2.8
				C94.4,118.27,95.09,118.6,96.01,118.6z M102.58,110.85v1.52l-3.03-0.08l-0.98-1.21L102.58,110.85z"/>
			<path class="st2" d="M115.81,124.36c-1.57,0-2.78-0.37-3.62-1.12c-0.84-0.75-1.26-1.84-1.26-3.26c0-0.88,0.18-1.68,0.55-2.39
				c0.37-0.71,0.95-1.4,1.76-2.05c0.8-0.66,1.85-1.34,3.15-2.05l0.42,0.87c-1.16,0.69-2,1.42-2.51,2.19
				c-0.52,0.77-0.77,1.68-0.77,2.73c0,0.79,0.13,1.43,0.39,1.92c0.26,0.5,0.64,0.86,1.14,1.1c0.5,0.23,1.09,0.35,1.78,0.35
				c0.71,0,1.38-0.11,2.01-0.32c0.63-0.22,1.35-0.71,2.18-1.47l0.65,0.7c-0.67,0.69-1.31,1.24-1.91,1.66
				c-0.6,0.41-1.21,0.71-1.84,0.88C117.28,124.27,116.58,124.36,115.81,124.36z M125.9,124.36c-0.62,0-1.16-0.1-1.62-0.29
				c-0.46-0.2-0.93-0.51-1.4-0.93c-0.48-0.42-1.05-0.98-1.73-1.67c-0.39-0.43-0.86-1.03-1.4-1.78s-1.12-1.63-1.73-2.63
				c-0.61-0.99-1.2-2.02-1.78-3.09c-0.58-1.09-1-1.98-1.26-2.68c-0.26-0.7-0.39-1.46-0.39-2.26c0-1.09,0.4-1.97,1.21-2.64
				c0.8-0.67,1.87-1.01,3.2-1.01c1.03,0,1.91,0.28,2.64,0.84c0.73,0.56,1.1,1.41,1.1,2.56c0,1.01-0.34,1.88-1.01,2.61
				c-0.67,0.73-1.85,1.46-3.54,2.19l-0.42-0.76c0.88-0.41,1.56-0.82,2.05-1.24c0.49-0.41,0.83-0.86,1.03-1.33
				c0.2-0.48,0.29-0.99,0.29-1.53c0-0.71-0.19-1.31-0.56-1.78c-0.37-0.48-0.92-0.72-1.63-0.72c-0.69,0-1.24,0.21-1.64,0.62
				c-0.4,0.41-0.6,0.95-0.6,1.63c0,0.54,0.13,1.19,0.39,1.94c0.26,0.75,0.61,1.55,1.05,2.39c0.44,0.84,0.93,1.69,1.46,2.54
				c0.53,0.85,1.07,1.65,1.61,2.4c0.54,0.75,1.05,1.4,1.52,1.94c0.77,0.86,1.46,1.55,2.06,2.05c0.61,0.51,1.32,0.76,2.12,0.76
				c0.58,0,1.09-0.12,1.53-0.36c0.44-0.24,0.85-0.65,1.22-1.21l0.48,0.31c-0.24,0.67-0.58,1.25-1.01,1.71
				c-0.43,0.47-0.92,0.82-1.47,1.07C127.1,124.24,126.51,124.36,125.9,124.36z M122.83,120.32l-0.65-0.62
				c0.6-0.92,1.08-1.69,1.43-2.3c0.36-0.62,0.61-1.15,0.77-1.6c0.16-0.45,0.24-0.88,0.24-1.29c0-0.41-0.13-0.71-0.38-0.88
				c-0.25-0.18-0.71-0.27-1.36-0.27v-0.87h6.18v0.87c-0.69,0-1.23,0.11-1.61,0.34c-0.38,0.23-0.74,0.62-1.05,1.18
				c-0.39,0.67-0.75,1.27-1.07,1.8c-0.32,0.52-0.67,1.07-1.05,1.63S123.41,119.53,122.83,120.32z"/>
			<path class="st2" d="M146.37,123.97h-8.03v-0.84c0.82,0,1.43-0.06,1.83-0.18c0.39-0.12,0.65-0.37,0.76-0.76
				c0.11-0.38,0.17-0.95,0.17-1.7v-11.77c0-0.69-0.08-1.2-0.25-1.53c-0.17-0.33-0.45-0.55-0.84-0.66c-0.39-0.11-0.95-0.17-1.66-0.17
				v-0.84h7.72c1.46,0,2.82,0.16,4.09,0.46c1.26,0.31,2.36,0.82,3.3,1.53c0.94,0.71,1.67,1.65,2.2,2.81c0.53,1.16,0.8,2.6,0.8,4.33
				c0,1.61-0.24,3.01-0.72,4.19c-0.48,1.18-1.16,2.15-2.05,2.91c-0.89,0.76-1.95,1.32-3.19,1.69
				C149.27,123.78,147.89,123.97,146.37,123.97z M145.33,122.9c1.7,0,3.16-0.23,4.38-0.69c1.22-0.46,2.15-1.27,2.81-2.43
				c0.66-1.16,0.98-2.79,0.98-4.89c0-2.68-0.68-4.72-2.05-6.12c-1.37-1.4-3.5-2.11-6.4-2.11c-0.22,0-0.44,0-0.66,0
				c-0.22,0-0.45,0.02-0.72,0.06v16.1c0.28,0.02,0.56,0.04,0.83,0.06S145.05,122.9,145.33,122.9z"/>
			<path class="st2" d="M165.36,123.97h-6.32v-0.79c0.64,0,1.09-0.06,1.36-0.18c0.27-0.12,0.44-0.33,0.51-0.63
				c0.07-0.3,0.1-0.71,0.1-1.24v-7.84c0-0.6-0.1-0.97-0.31-1.11c-0.21-0.14-0.52-0.21-0.93-0.21c-0.19,0-0.42,0.02-0.7,0.06v-0.81
				l3.54-0.79h0.73v10.7c0,0.54,0.04,0.96,0.11,1.26c0.07,0.3,0.26,0.51,0.55,0.62c0.29,0.11,0.74,0.17,1.36,0.17V123.97z
				 M162.21,108.24c-0.47,0-0.85-0.16-1.15-0.48c-0.3-0.32-0.45-0.69-0.45-1.12c0-0.43,0.15-0.8,0.44-1.11
				c0.29-0.31,0.68-0.46,1.17-0.46c0.49,0,0.88,0.15,1.17,0.46c0.29,0.31,0.44,0.68,0.44,1.11c0,0.43-0.15,0.81-0.44,1.12
				C163.09,108.08,162.7,108.24,162.21,108.24z"/>
			<path class="st2" d="M174.26,123.97h-7.02v-0.81c0.62,0,1.07-0.05,1.36-0.16c0.29-0.1,0.48-0.29,0.56-0.56
				c0.08-0.27,0.13-0.67,0.13-1.19v-7.72c0-0.51-0.04-0.88-0.13-1.14c-0.08-0.25-0.38-0.38-0.88-0.38c-0.28,0-0.57,0.02-0.87,0.06
				v-0.79l3.48-0.84h0.67v2.89h0.08c0.49-0.69,0.92-1.26,1.29-1.71c0.37-0.45,0.74-0.79,1.11-1.01c0.36-0.22,0.77-0.34,1.22-0.34
				c0.54,0,0.95,0.14,1.22,0.42c0.27,0.28,0.41,0.67,0.41,1.15c0,0.52-0.13,0.91-0.38,1.15c-0.25,0.24-0.54,0.37-0.86,0.37
				c-0.3,0-0.57-0.08-0.8-0.24c-0.23-0.16-0.44-0.32-0.6-0.48c-0.17-0.16-0.31-0.24-0.42-0.24c-0.32,0-0.68,0.24-1.1,0.73
				c-0.41,0.49-0.79,1.01-1.12,1.57v6.4c0,0.58,0.07,1.02,0.22,1.32c0.15,0.3,0.42,0.5,0.8,0.59c0.38,0.09,0.92,0.14,1.61,0.14
				V123.97z"/>
			<path class="st2" d="M184.04,124.25c-1.12,0-2.14-0.27-3.05-0.8c-0.91-0.53-1.62-1.32-2.15-2.36c-0.52-1.04-0.79-2.31-0.79-3.81
				c0-1.57,0.27-2.87,0.8-3.89c0.53-1.02,1.25-1.78,2.15-2.29c0.9-0.51,1.89-0.76,2.98-0.76c1.54,0,2.77,0.53,3.71,1.6
				c0.94,1.07,1.44,2.58,1.52,4.55h-9.13l-0.03-1.04h6.52c-0.02-0.69-0.14-1.34-0.37-1.95c-0.22-0.61-0.55-1.1-0.98-1.47
				c-0.43-0.37-0.98-0.56-1.66-0.56c-1.09,0-1.9,0.43-2.44,1.28c-0.54,0.85-0.81,2.06-0.81,3.61c0,1.29,0.21,2.37,0.62,3.23
				c0.41,0.86,0.95,1.5,1.63,1.92c0.67,0.42,1.4,0.63,2.16,0.63c0.77,0,1.39-0.1,1.87-0.31c0.48-0.21,0.88-0.47,1.22-0.8
				c0.34-0.33,0.66-0.69,0.95-1.08l0.53,0.39c-0.24,0.52-0.52,1.02-0.84,1.5c-0.32,0.48-0.68,0.89-1.08,1.25
				c-0.4,0.36-0.88,0.64-1.42,0.84C185.41,124.14,184.77,124.25,184.04,124.25z"/>
			<path class="st2" d="M201.88,119.81l0.53,0.39c-0.36,0.75-0.76,1.43-1.22,2.05c-0.46,0.62-1.03,1.1-1.7,1.46
				c-0.67,0.36-1.52,0.53-2.53,0.53c-1.16,0-2.16-0.28-3.01-0.84c-0.84-0.56-1.49-1.34-1.94-2.35c-0.45-1-0.67-2.15-0.67-3.44
				c0-1.48,0.25-2.76,0.74-3.85c0.5-1.09,1.22-1.93,2.16-2.53c0.95-0.6,2.09-0.9,3.44-0.9c1.33,0,2.37,0.29,3.13,0.87
				c0.76,0.58,1.14,1.28,1.14,2.11c0,0.41-0.1,0.73-0.29,0.94c-0.2,0.22-0.49,0.32-0.88,0.32c-0.41,0-0.73-0.11-0.94-0.32
				c-0.22-0.22-0.39-0.48-0.52-0.8c-0.13-0.32-0.27-0.64-0.41-0.95c-0.14-0.32-0.34-0.59-0.59-0.8c-0.25-0.21-0.62-0.32-1.11-0.32
				c-1.14,0-2.04,0.42-2.68,1.25c-0.65,0.83-0.97,2.06-0.97,3.67c0,1.7,0.35,3.1,1.05,4.2c0.7,1.1,1.77,1.64,3.22,1.64
				c0.92,0,1.66-0.19,2.23-0.56C200.64,121.2,201.24,120.61,201.88,119.81z"/>
			<path class="st2" d="M211.46,121.44l0.53,0.45c-0.36,0.51-0.69,0.93-1,1.28c-0.31,0.35-0.65,0.61-1.02,0.8
				c-0.37,0.19-0.86,0.28-1.46,0.28c-0.94,0-1.62-0.28-2.05-0.83c-0.43-0.55-0.65-1.46-0.65-2.71V112h-1.55v-0.65
				c0.66-0.41,1.22-0.97,1.7-1.67c0.48-0.7,0.97-1.65,1.47-2.85h0.7v3.99h3.17V112h-3.17v7.92c0,0.99,0.09,1.69,0.27,2.08
				c0.18,0.39,0.54,0.59,1.08,0.59c0.45,0,0.8-0.09,1.05-0.28C210.79,122.12,211.1,121.83,211.46,121.44z"/>
			<path class="st2" d="M219.57,123.97h-6.32v-0.79c0.64,0,1.09-0.06,1.36-0.18c0.27-0.12,0.44-0.33,0.51-0.63s0.1-0.71,0.1-1.24
				v-7.84c0-0.6-0.1-0.97-0.31-1.11c-0.21-0.14-0.52-0.21-0.93-0.21c-0.19,0-0.42,0.02-0.7,0.06v-0.81l3.54-0.79h0.73v10.7
				c0,0.54,0.04,0.96,0.11,1.26c0.08,0.3,0.26,0.51,0.55,0.62c0.29,0.11,0.74,0.17,1.36,0.17V123.97z M216.43,108.24
				c-0.47,0-0.85-0.16-1.15-0.48c-0.3-0.32-0.45-0.69-0.45-1.12c0-0.43,0.14-0.8,0.44-1.11c0.29-0.31,0.68-0.46,1.17-0.46
				c0.49,0,0.87,0.15,1.16,0.46s0.44,0.68,0.44,1.11c0,0.43-0.15,0.81-0.44,1.12C217.3,108.08,216.91,108.24,216.43,108.24z"/>
			<path class="st2" d="M227.97,123.97h-6.43v-0.79c0.64,0,1.09-0.06,1.36-0.18c0.27-0.12,0.44-0.33,0.51-0.63
				c0.07-0.3,0.1-0.71,0.1-1.24v-7.89c0-0.51-0.1-0.84-0.31-1c-0.21-0.16-0.5-0.24-0.87-0.24c-0.24,0-0.5,0.02-0.76,0.06v-0.81
				l3.57-0.81h0.65l-0.03,2.58l0.08,0.59v7.53c0,0.52,0.04,0.94,0.11,1.24s0.26,0.51,0.56,0.63c0.3,0.12,0.79,0.18,1.46,0.18V123.97
				z M236.23,123.97h-6.49v-0.79c0.67,0,1.16-0.06,1.45-0.18c0.29-0.12,0.47-0.33,0.53-0.63c0.06-0.3,0.1-0.71,0.1-1.24v-5.08
				c0-1.12-0.13-1.97-0.38-2.53c-0.25-0.56-0.58-0.93-0.97-1.11c-0.39-0.18-0.81-0.27-1.24-0.27c-0.54,0-1.03,0.11-1.46,0.32
				c-0.43,0.22-0.82,0.47-1.17,0.77c-0.35,0.3-0.67,0.58-0.97,0.84l-0.2-1.38h0.42c0.77-0.67,1.49-1.24,2.18-1.69
				c0.68-0.45,1.46-0.67,2.34-0.67c1.27,0,2.22,0.43,2.84,1.29c0.62,0.86,0.93,2.1,0.93,3.71v5.79c0,0.52,0.04,0.94,0.13,1.24
				c0.08,0.3,0.28,0.51,0.58,0.63c0.3,0.12,0.76,0.18,1.38,0.18V123.97z"/>
			<path class="st2" d="M242.46,130.57c-1.22,0-2.18-0.15-2.88-0.45c-0.7-0.3-1.19-0.69-1.47-1.17c-0.28-0.48-0.42-0.97-0.42-1.47
				c0-0.47,0.19-0.96,0.58-1.47c0.38-0.52,0.95-1.14,1.7-1.87v-0.31l0.84,0.17c-0.36,0.6-0.6,1.09-0.73,1.47
				c-0.13,0.38-0.2,0.73-0.2,1.05c0,0.81,0.35,1.41,1.04,1.83c0.69,0.41,1.75,0.62,3.17,0.62c1.1,0,2-0.14,2.68-0.42
				c0.68-0.28,1.18-0.63,1.49-1.04c0.31-0.41,0.46-0.81,0.46-1.21c0-0.51-0.16-0.89-0.49-1.17c-0.33-0.27-0.74-0.46-1.25-0.58
				s-1.04-0.18-1.6-0.21s-1.08-0.04-1.55-0.04c-0.84-0.02-1.48-0.03-1.91-0.03c-0.43,0-0.74,0-0.93-0.01
				c-0.19-0.01-0.36-0.01-0.51-0.01l-0.28-0.14c-0.28-0.09-0.56-0.24-0.84-0.45c-0.28-0.21-0.52-0.45-0.7-0.74
				c-0.19-0.29-0.28-0.59-0.28-0.91c0-0.34,0.1-0.69,0.29-1.05c0.2-0.37,0.47-0.73,0.83-1.1c0.36-0.37,0.75-0.72,1.18-1.05v-0.25
				l0.73,0.53c-0.09,0.09-0.21,0.26-0.34,0.51c-0.13,0.24-0.24,0.5-0.34,0.77c-0.09,0.27-0.14,0.5-0.14,0.69
				c0,0.28,0.1,0.5,0.29,0.66c0.2,0.16,0.53,0.28,1.01,0.35s1.15,0.11,2.01,0.11c1.18,0,2.24,0.06,3.19,0.17
				c0.95,0.11,1.69,0.4,2.23,0.87c0.54,0.47,0.81,1.24,0.81,2.3c0,0.94-0.23,1.73-0.69,2.37c-0.46,0.65-1.07,1.17-1.83,1.56
				c-0.76,0.39-1.59,0.68-2.5,0.86C244.24,130.48,243.34,130.57,242.46,130.57z M243.76,119.59c-0.49,0-0.94-0.05-1.36-0.14
				c-0.42-0.09-0.83-0.21-1.22-0.34l-0.31-0.28c-0.49-0.26-0.9-0.57-1.25-0.93c-0.35-0.36-0.61-0.78-0.8-1.28
				c-0.19-0.5-0.28-1.06-0.28-1.7c0-0.94,0.22-1.75,0.65-2.43c0.43-0.68,1.03-1.21,1.8-1.59c0.77-0.37,1.65-0.56,2.64-0.56
				c0.56,0,1.09,0.05,1.59,0.16c0.5,0.1,0.96,0.26,1.39,0.46c0.43,0.21,0.81,0.45,1.12,0.73v0.73c0.21,0.28,0.43,0.66,0.66,1.12
				c0.23,0.47,0.35,1.06,0.35,1.77c0,0.86-0.21,1.61-0.63,2.26c-0.42,0.65-1,1.14-1.74,1.49
				C245.61,119.41,244.75,119.59,243.76,119.59z M243.78,118.6c0.71,0,1.3-0.24,1.76-0.73c0.46-0.49,0.69-1.4,0.69-2.73
				c0-1.14-0.24-2.06-0.73-2.75c-0.49-0.69-1.18-1.04-2.08-1.04c-0.73,0-1.32,0.28-1.76,0.84c-0.44,0.56-0.66,1.43-0.66,2.61
				c0,1.2,0.23,2.13,0.7,2.8C242.17,118.27,242.87,118.6,243.78,118.6z M250.36,110.85v1.52l-3.03-0.08l-0.98-1.21L250.36,110.85z"
				/>
			<path class="st2" d="M254.09,124.19c-0.56,0-0.98-0.16-1.25-0.48c-0.27-0.32-0.41-0.71-0.41-1.18c0-0.49,0.15-0.9,0.45-1.25
				s0.71-0.52,1.24-0.52c0.54,0,0.96,0.18,1.26,0.53c0.3,0.36,0.45,0.78,0.45,1.26c0,0.43-0.15,0.81-0.45,1.14
				C255.09,124.03,254.66,124.19,254.09,124.19z"/>
		</g>
		<g>
			<path class="st3" d="M36.86,90.17c17.01,0,29.84-13.82,29.84-32.14c0-18.32-12.83-32.14-29.84-32.14c-7.9,0-14.8,2.99-19.96,8.66
				l-0.26,0.28V1.1H1.21v87.62h15.42v-7.49l0.26,0.28C22.05,87.18,28.96,90.17,36.86,90.17z M33.71,40.83
				c9.74,0,17.08,7.39,17.08,17.2s-7.34,17.2-17.08,17.2s-17.08-7.39-17.08-17.2S23.98,40.83,33.71,40.83z"/>
			<path class="st3" d="M110.74,42.29h2.15V26.38h-2.15c-7.69,0-14.43,3.53-19.47,10.22l-0.27,0.35v-9.6H75.58v61.37h15.42V59.48
				C91.01,48.71,98.38,42.29,110.74,42.29z"/>
			<path class="st3" d="M179.68,88.72V27.35h-15.42v7.49L164,34.55c-5.16-5.66-12.06-8.66-19.96-8.66
				c-17.08,0-29.96,13.82-29.96,32.14c0,18.32,12.88,32.14,29.96,32.14c7.9,0,14.8-2.99,19.96-8.66l0.26-0.28v7.49H179.68z
				 M147.06,75.23c-9.74,0-17.08-7.39-17.08-17.2s7.34-17.2,17.08-17.2c9.8,0,17.2,7.39,17.2,17.2S156.87,75.23,147.06,75.23z"/>
			<path class="st3" d="M264.56,40.83c8.48,0,13.96,5.47,13.96,13.93v33.95h15.88V49.69c0-14.45-9.66-23.79-24.61-23.79
				c-8.15,0-15.08,2.87-20.04,8.3l-0.26,0.28v-7.13h-15.88V61.9c0,7.97-5.66,13.33-14.08,13.33c-8.03,0-13.21-5.14-13.21-13.09
				v-34.8h-15.88v39.39c0,6.94,2.26,12.83,6.53,17.03c4.26,4.19,10.21,6.4,17.2,6.4c7.77,0,14.4-2.83,19.17-8.17l0.26-0.29v7.01
				h15.88V55.01C249.48,46.53,255.54,40.83,264.56,40.83z"/>
			<path class="st3" d="M369.18,88.72V1.1h-15.42v33.74l-0.26-0.28c-5.16-5.66-12.06-8.66-19.96-8.66
				c-17.08,0-29.96,13.82-29.96,32.14c0,18.32,12.88,32.14,29.96,32.14c7.9,0,14.8-2.99,19.96-8.66l0.26-0.28v7.49H369.18z
				 M336.56,75.23c-9.74,0-17.08-7.39-17.08-17.2s7.34-17.2,17.08-17.2c9.8,0,17.2,7.39,17.2,17.2S346.37,75.23,336.56,75.23z"/>
		</g>
	</g>
</g>
</svg>
