<?xml version="1.0" encoding="utf-8"?>
<!-- Generator: Adobe Illustrator 27.8.1, SVG Export Plug-In . SVG Version: 6.00 Build 0)  -->
<svg version="1.1" id="Laag_1" xmlns="http://www.w3.org/2000/svg" xmlns:xlink="http://www.w3.org/1999/xlink" x="0px" y="0px"
	 viewBox="0 0 56.69 56.75" style="enable-background:new 0 0 56.69 56.75;" xml:space="preserve">
<style type="text/css">
	.st0{fill:#ECECEC;}
	.st1{fill:#4E4955;}
	.st2{fill:#F3F3F3;}
	.st3{fill:#00FF00;}
	.st4{fill-rule:evenodd;clip-rule:evenodd;fill:#4E4955;}
	.st5{fill:#EDEDED;}
</style>
<path class="st0" d="M56.66,12.43C56.56,4.17,52.59,0.12,44.37,0.06c-10.71-0.08-21.42-0.09-32.13,0C4.25,0.13,0.12,4.25,0.06,12.19
	C-0.03,22.9-0.01,33.62,0.05,44.33c0.05,8.21,4.11,12.31,12.31,12.37c10.71,0.08,21.42,0.09,32.13,0
	c8.02-0.07,12.04-4.13,12.16-12.13c0.08-5.35,0.02-10.71,0.02-16.07C56.67,23.14,56.72,17.78,56.66,12.43z M45.85,6.4
	c4.24,0,4.24,0,4.24,5.54c0,4.22,0,4.22-5.54,4.22c-4.01,0-4.01,0-4.01-4.98C40.55,6.4,40.55,6.4,45.85,6.4z M28.25,18.35
	c5.59-0.06,10.16,4.59,10.11,10.27c-0.04,5.2-4.59,9.67-9.88,9.74c-5.31,0.06-9.94-4.3-10.08-9.51
	C18.24,23.14,22.69,18.41,28.25,18.35z M51.52,44.71c-0.09,4.67-2.11,6.78-6.76,6.82c-10.95,0.09-21.9,0.09-32.84,0
	c-4.58-0.04-6.68-2.2-6.76-6.86C5.05,38.12,5.19,31.57,5.1,25.03c-0.03-1.81,0.42-2.44,2.37-2.45c2.3-0.02,3.46-0.02,6.24,0.03
	c-2.17,8.1-0.32,14.71,6.75,19.08c5.56,3.44,11.48,3.17,16.78-0.63c6.22-4.45,7.9-11.13,5.85-18.42c4.1,0,6.43,0.01,6.43,0.01
	s2.05-0.32,2.03,3.97C51.54,31.49,51.61,39.83,51.52,44.71z"/>
</svg>
