<?xml version="1.0" encoding="utf-8"?>
<!-- Generator: Adobe Illustrator 27.8.1, SVG Export Plug-In . SVG Version: 6.00 Build 0)  -->
<svg version="1.1" id="Laag_1" xmlns="http://www.w3.org/2000/svg" xmlns:xlink="http://www.w3.org/1999/xlink" x="0px" y="0px"
	 viewBox="0 0 56.69 56.69" style="enable-background:new 0 0 56.69 56.69;" xml:space="preserve">
<style type="text/css">
	.st0{fill:#ECECEC;}
	.st1{fill:#4E4955;}
	.st2{fill:#F3F3F3;}
	.st3{fill:#00FF00;}
	.st4{fill-rule:evenodd;clip-rule:evenodd;fill:#4E4955;}
	.st5{fill:#EDEDED;}
</style>
<g>
	<g>
		<path class="st3" d="M31.37,23.33c5.01-5.79,12.23-6.82,17.72-4.67c2.23,0.94,4.8,3.41,5.95,6.46c1.04,2.75,1.44,5.61,1.46,8.53
			c0.05,7.04,0.05,14.07,0.18,21.11c0.03,1.61-0.5,1.99-1.99,1.94c-3.16,0-5.33,0-8.34,0c-1.28,0-1.72-0.31-1.7-1.67
			c0.07-5.97,0.03-11.95,0.03-17.93c0-1.34-0.07-2.68-0.34-4c-0.57-2.79-2.12-4.34-4.54-4.66c-4.01-0.52-5.9,0.79-7.08,3.46
			c-0.5,1.13-0.69,2.34-0.76,3.58c-0.33,6.42-0.21,12.84-0.13,19.26c0.02,1.55-0.43,2.01-1.97,1.94c-3.56,0-5.4-0.01-8.51-0.01
			c-1.08,0.02-1.45-0.33-1.45-1.43c0.03-11.67,0.03-23.34,0-35.01c0-1.16,0.34-1.54,1.53-1.54c2.85,0,5.52,0,8.51,0
			c1.1,0,1.42,0.42,1.42,1.46C31.38,21.07,31.37,22.01,31.37,23.33z"/>
		<path class="st3" d="M0.94,37.69c0-5.7,0.04-11.39-0.03-17.09c-0.02-1.42,0.3-1.93,1.84-1.93c2.96,0,5.24,0,8.17,0
			c1.64,0,1.93,0.56,1.92,2.01c-0.05,8.21-0.03,16.42-0.02,24.63c0,3.24-0.01,6.48,0.06,9.72c0.03,1.21-0.34,1.68-1.62,1.65
			c-3.33,0-6.01,0-8.84,0c-1.2,0.03-1.52-0.42-1.51-1.56C0.96,49.3,0.94,43.5,0.94,37.69z"/>
		<path class="st3" d="M13.74,6.95c-0.01,3.92-2.94,6.84-6.87,6.85C3.1,13.8-0.05,10.63,0,6.87C0.05,3.05,3.16-0.02,6.95,0
			C10.82,0.02,13.75,3.02,13.74,6.95z"/>
	</g>
</g>
</svg>
