<?xml version="1.0" encoding="utf-8"?>
<!-- Generator: Adobe Illustrator 27.8.1, SVG Export Plug-In . SVG Version: 6.00 Build 0)  -->
<svg version="1.1" id="Laag_1" xmlns="http://www.w3.org/2000/svg" xmlns:xlink="http://www.w3.org/1999/xlink" x="0px" y="0px"
	 viewBox="0 0 414.14 257.86" style="enable-background:new 0 0 414.14 257.86;" xml:space="preserve">
<style type="text/css">
	.st0{fill:#ECECEC;}
	.st1{fill:#4E4955;}
	.st2{fill:#F3F3F3;}
	.st3{fill:#00FF00;}
	.st4{fill-rule:evenodd;clip-rule:evenodd;fill:#4E4955;}
	.st5{fill:#EDEDED;}
</style>
<g>
	<g>
		<path class="st5" d="M21.52,44.63H4.24v-1.8c1.8,0,3.12-0.15,3.96-0.45s1.38-0.88,1.62-1.74c0.24-0.86,0.36-2.15,0.36-3.87V13.13
			c0-1.56-0.1-2.79-0.3-3.69c-0.2-0.9-0.71-1.53-1.53-1.89C7.53,7.19,6.16,7.01,4.24,7.01v-1.8h17.28v1.8
			c-1.88,0-3.24,0.18-4.08,0.54c-0.84,0.36-1.35,0.99-1.53,1.89c-0.18,0.9-0.27,2.13-0.27,3.69v23.64c0,1.72,0.12,3.01,0.36,3.87
			c0.24,0.86,0.78,1.44,1.62,1.74s2.14,0.45,3.9,0.45V44.63z"/>
		<path class="st5" d="M39.22,44.63H25.54v-1.74c1.28,0,2.21-0.11,2.79-0.33c0.58-0.22,0.96-0.64,1.14-1.26
			c0.18-0.62,0.27-1.53,0.27-2.73v-16.8c0-1.08-0.21-1.8-0.63-2.16c-0.42-0.36-1.05-0.54-1.89-0.54c-0.44,0-0.98,0.04-1.62,0.12
			v-1.74l7.5-1.74h1.44v5.52l0.18,1.32v16.26c0,1.12,0.12,1.97,0.36,2.55c0.24,0.58,0.68,0.98,1.32,1.2
			c0.64,0.22,1.58,0.33,2.82,0.33V44.63z M56.62,44.63H42.4v-1.74c1.44,0,2.48-0.14,3.12-0.42c0.64-0.28,1.05-0.8,1.23-1.56
			c0.18-0.76,0.27-1.84,0.27-3.24V25.79c0-2.56-0.45-4.27-1.35-5.13c-0.9-0.86-2.05-1.29-3.45-1.29c-1.12,0-2.17,0.24-3.15,0.72
			c-0.98,0.48-1.87,1.04-2.67,1.68c-0.8,0.64-1.48,1.24-2.04,1.8l-0.48-3h0.9c1.64-1.4,3.22-2.59,4.74-3.57
			c1.52-0.98,3.3-1.47,5.34-1.47c1.8,0,3.25,0.52,4.35,1.56c1.1,1.04,1.93,2.34,2.49,3.9c0.08,0.12,0.14,0.25,0.18,0.39
			c0.04,0.14,0.08,0.29,0.12,0.45v15.84c0,1.36,0.09,2.42,0.27,3.18c0.18,0.76,0.59,1.29,1.23,1.59c0.64,0.3,1.68,0.45,3.12,0.45
			V44.63z M73.36,44.63H59.8v-1.74c1.36,0,2.34-0.18,2.94-0.54c0.6-0.36,0.97-0.93,1.11-1.71c0.14-0.78,0.21-1.77,0.21-2.97V26.15
			c0-1.84-0.23-3.24-0.69-4.2c-0.46-0.96-1.08-1.63-1.86-2.01c-0.78-0.38-1.65-0.57-2.61-0.57c-1.32,0-2.62,0.47-3.9,1.41
			c-1.28,0.94-2.44,1.85-3.48,2.73l-0.66-3h0.9c1.64-1.64,3.24-2.88,4.8-3.72c1.56-0.84,3.14-1.26,4.74-1.26
			c2.36,0,4.24,0.74,5.64,2.22c1.4,1.48,2.1,4.04,2.1,7.68v12.24c0,1.24,0.07,2.25,0.21,3.03c0.14,0.78,0.52,1.34,1.14,1.68
			c0.62,0.34,1.61,0.51,2.97,0.51V44.63z"/>
		<path class="st5" d="M91.24,57.83H76.06v-1.68c1.88,0,3.08-0.31,3.6-0.93c0.52-0.62,0.78-1.77,0.78-3.45v-29.7
			c0-1.16-0.13-1.96-0.39-2.4c-0.26-0.44-0.89-0.66-1.89-0.66c-0.4,0-1.04,0.04-1.92,0.12v-1.74l7.56-1.68h1.5v5.04h0.18
			c1.44-1.68,2.91-2.97,4.41-3.87c1.5-0.9,3.13-1.35,4.89-1.35c2,0,3.75,0.57,5.25,1.71c1.5,1.14,2.68,2.72,3.54,4.74
			c0.86,2.02,1.29,4.35,1.29,6.99c0,3.4-0.59,6.31-1.77,8.73c-1.18,2.42-2.77,4.28-4.77,5.58c-2,1.3-4.2,1.95-6.6,1.95
			c-1.12,0-2.19-0.13-3.21-0.39s-1.97-0.69-2.85-1.29h-0.24v7.86c0,1.28,0.16,2.26,0.48,2.94c0.32,0.68,0.9,1.14,1.74,1.38
			c0.84,0.24,2.04,0.36,3.6,0.36V57.83z M92.02,42.89c2.12,0,3.88-1,5.28-3c1.4-2,2.1-5.08,2.1-9.24c0-3.8-0.62-6.59-1.86-8.37
			c-1.24-1.78-2.98-2.67-5.22-2.67c-1.6,0-3.01,0.42-4.23,1.26c-1.22,0.84-2.11,1.64-2.67,2.4v15.66c0.4,0.4,0.9,0.92,1.5,1.56
			c0.6,0.64,1.32,1.2,2.16,1.68C89.92,42.65,90.9,42.89,92.02,42.89z"/>
		<path class="st5" d="M116.38,45.05c-2.32,0-4.09-0.64-5.31-1.92c-1.22-1.28-1.83-2.88-1.83-4.8c0-1.6,0.37-2.95,1.11-4.05
			c0.74-1.1,1.72-2.03,2.94-2.79c1.22-0.76,2.54-1.4,3.96-1.92c1.42-0.52,2.81-0.96,4.17-1.32c1.36-0.36,2.56-0.7,3.6-1.02v-2.64
			c0-2.6-0.45-4.45-1.35-5.55c-0.9-1.1-2.25-1.65-4.05-1.65c-1.72,0-2.82,0.36-3.3,1.08c-0.48,0.72-0.72,1.98-0.72,3.78
			c0,0.92-0.23,1.61-0.69,2.07c-0.46,0.46-1.11,0.69-1.95,0.69c-0.6,0-1.17-0.23-1.71-0.69c-0.54-0.46-0.81-1.19-0.81-2.19
			c0-1.12,0.43-2.18,1.29-3.18c0.86-1,2.08-1.82,3.66-2.46c1.58-0.64,3.45-0.96,5.61-0.96c3.28,0,5.6,0.76,6.96,2.28
			c1.36,1.52,2.04,3.84,2.04,6.96v13.62c0,1.24,0.14,2.04,0.42,2.4c0.28,0.36,0.74,0.54,1.38,0.54c0.56,0,1.07-0.14,1.53-0.42
			c0.46-0.28,0.89-0.64,1.29-1.08l0.9,0.96c-1,1.44-1.95,2.49-2.85,3.15s-2.11,0.99-3.63,0.99c-1.4,0-2.31-0.4-2.73-1.2
			c-0.42-0.8-0.73-1.94-0.93-3.42l-0.36-0.72V29.21c-1.8,0.44-3.5,0.96-5.1,1.56c-1.6,0.6-2.9,1.38-3.9,2.34
			c-1,0.96-1.5,2.22-1.5,3.78c0,1.48,0.4,2.66,1.2,3.54c0.8,0.88,1.84,1.32,3.12,1.32c1.04,0,2.13-0.26,3.27-0.78
			c1.14-0.52,2.25-1.26,3.33-2.22l0.48,2.16h-0.72c-0.92,0.8-1.81,1.52-2.67,2.16c-0.86,0.64-1.78,1.13-2.76,1.47
			C118.78,44.88,117.66,45.05,116.38,45.05z"/>
		<path class="st5" d="M160.24,35.75l1.14,0.84c-0.76,1.6-1.63,3.06-2.61,4.38c-0.98,1.32-2.19,2.36-3.63,3.12s-3.24,1.14-5.4,1.14
			c-2.48,0-4.62-0.6-6.42-1.8c-1.8-1.2-3.18-2.87-4.14-5.01c-0.96-2.14-1.44-4.59-1.44-7.35c0-3.16,0.53-5.9,1.59-8.22
			c1.06-2.32,2.6-4.12,4.62-5.4c2.02-1.28,4.47-1.92,7.35-1.92c2.84,0,5.07,0.62,6.69,1.86c1.62,1.24,2.43,2.74,2.43,4.5
			c0,0.88-0.21,1.55-0.63,2.01c-0.42,0.46-1.05,0.69-1.89,0.69c-0.88,0-1.55-0.23-2.01-0.69c-0.46-0.46-0.83-1.03-1.11-1.71
			c-0.28-0.68-0.57-1.36-0.87-2.04c-0.3-0.68-0.72-1.25-1.26-1.71c-0.54-0.46-1.33-0.69-2.37-0.69c-2.44,0-4.35,0.89-5.73,2.67
			c-1.38,1.78-2.07,4.39-2.07,7.83c0,3.64,0.75,6.63,2.25,8.97c1.5,2.34,3.79,3.51,6.87,3.51c1.96,0,3.55-0.4,4.77-1.2
			C157.58,38.73,158.87,37.47,160.24,35.75z"/>
		<path class="st5" d="M180.1,39.23l1.14,0.96c-0.76,1.08-1.47,1.99-2.13,2.73c-0.66,0.74-1.39,1.31-2.19,1.71
			c-0.8,0.4-1.84,0.6-3.12,0.6c-2,0-3.46-0.59-4.38-1.77c-0.92-1.18-1.38-3.11-1.38-5.79v-18.6h-3.3v-1.38
			c1.4-0.88,2.61-2.07,3.63-3.57s2.07-3.53,3.15-6.09h1.5v8.52h6.78v2.52h-6.78v16.92c0,2.12,0.19,3.6,0.57,4.44
			c0.38,0.84,1.15,1.26,2.31,1.26c0.96,0,1.71-0.2,2.25-0.6C178.68,40.69,179.33,40.07,180.1,39.23z"/>
		<path class="st5" d="M211.11,44.63h-13.68v-1.74c1.28,0,2.21-0.11,2.79-0.33c0.58-0.22,0.96-0.64,1.14-1.26
			c0.18-0.62,0.27-1.53,0.27-2.73v-16.8c0-1.08-0.21-1.8-0.63-2.16c-0.42-0.36-1.05-0.54-1.89-0.54c-0.44,0-0.98,0.04-1.62,0.12
			v-1.74l7.5-1.74h1.44v5.52l0.18,1.32v16.26c0,1.12,0.12,1.97,0.36,2.55c0.24,0.58,0.68,0.98,1.32,1.2
			c0.64,0.22,1.58,0.33,2.82,0.33V44.63z M228.51,44.63h-14.22v-1.74c1.44,0,2.48-0.14,3.12-0.42c0.64-0.28,1.05-0.8,1.23-1.56
			c0.18-0.76,0.27-1.84,0.27-3.24V25.79c0-2.56-0.45-4.27-1.35-5.13c-0.9-0.86-2.05-1.29-3.45-1.29c-1.12,0-2.17,0.24-3.15,0.72
			c-0.98,0.48-1.87,1.04-2.67,1.68c-0.8,0.64-1.48,1.24-2.04,1.8l-0.48-3h0.9c1.64-1.4,3.22-2.59,4.74-3.57
			c1.52-0.98,3.3-1.47,5.34-1.47c1.8,0,3.25,0.52,4.35,1.56c1.1,1.04,1.93,2.34,2.49,3.9c0.08,0.12,0.14,0.25,0.18,0.39
			c0.04,0.14,0.08,0.29,0.12,0.45v15.84c0,1.36,0.09,2.42,0.27,3.18c0.18,0.76,0.59,1.29,1.23,1.59c0.64,0.3,1.68,0.45,3.12,0.45
			V44.63z M245.25,44.63h-13.56v-1.74c1.36,0,2.34-0.18,2.94-0.54c0.6-0.36,0.97-0.93,1.11-1.71c0.14-0.78,0.21-1.77,0.21-2.97
			V26.15c0-1.84-0.23-3.24-0.69-4.2c-0.46-0.96-1.08-1.63-1.86-2.01c-0.78-0.38-1.65-0.57-2.61-0.57c-1.32,0-2.62,0.47-3.9,1.41
			c-1.28,0.94-2.44,1.85-3.48,2.73l-0.66-3h0.9c1.64-1.64,3.24-2.88,4.8-3.72c1.56-0.84,3.14-1.26,4.74-1.26
			c2.36,0,4.24,0.74,5.64,2.22c1.4,1.48,2.1,4.04,2.1,7.68v12.24c0,1.24,0.07,2.25,0.21,3.03c0.14,0.78,0.52,1.34,1.14,1.68
			c0.62,0.34,1.61,0.51,2.97,0.51V44.63z"/>
		<path class="st5" d="M256.05,45.05c-2.32,0-4.09-0.64-5.31-1.92c-1.22-1.28-1.83-2.88-1.83-4.8c0-1.6,0.37-2.95,1.11-4.05
			c0.74-1.1,1.72-2.03,2.94-2.79c1.22-0.76,2.54-1.4,3.96-1.92c1.42-0.52,2.81-0.96,4.17-1.32c1.36-0.36,2.56-0.7,3.6-1.02v-2.64
			c0-2.6-0.45-4.45-1.35-5.55c-0.9-1.1-2.25-1.65-4.05-1.65c-1.72,0-2.82,0.36-3.3,1.08c-0.48,0.72-0.72,1.98-0.72,3.78
			c0,0.92-0.23,1.61-0.69,2.07c-0.46,0.46-1.11,0.69-1.95,0.69c-0.6,0-1.17-0.23-1.71-0.69c-0.54-0.46-0.81-1.19-0.81-2.19
			c0-1.12,0.43-2.18,1.29-3.18c0.86-1,2.08-1.82,3.66-2.46c1.58-0.64,3.45-0.96,5.61-0.96c3.28,0,5.6,0.76,6.96,2.28
			c1.36,1.52,2.04,3.84,2.04,6.96v13.62c0,1.24,0.14,2.04,0.42,2.4c0.28,0.36,0.74,0.54,1.38,0.54c0.56,0,1.07-0.14,1.53-0.42
			c0.46-0.28,0.89-0.64,1.29-1.08l0.9,0.96c-1,1.44-1.95,2.49-2.85,3.15s-2.11,0.99-3.63,0.99c-1.4,0-2.31-0.4-2.73-1.2
			c-0.42-0.8-0.73-1.94-0.93-3.42l-0.36-0.72V29.21c-1.8,0.44-3.5,0.96-5.1,1.56c-1.6,0.6-2.9,1.38-3.9,2.34
			c-1,0.96-1.5,2.22-1.5,3.78c0,1.48,0.4,2.66,1.2,3.54c0.8,0.88,1.84,1.32,3.12,1.32c1.04,0,2.13-0.26,3.27-0.78
			c1.14-0.52,2.25-1.26,3.33-2.22l0.48,2.16h-0.72c-0.92,0.8-1.81,1.52-2.67,2.16c-0.86,0.64-1.78,1.13-2.76,1.47
			C258.46,44.88,257.33,45.05,256.05,45.05z"/>
		<path class="st5" d="M290.85,44.63h-13.62v-1.74c1.8,0,2.95-0.25,3.45-0.75c0.5-0.5,0.75-1.57,0.75-3.21v-30
			c0-1.28-0.15-2.11-0.45-2.49c-0.3-0.38-0.95-0.57-1.95-0.57c-0.4,0-1.08,0.04-2.04,0.12V4.37l7.8-2.1h1.62v26.46h0.36l7.74-7.68
			c0.12-0.12,0.33-0.35,0.63-0.69c0.3-0.34,0.45-0.75,0.45-1.23c0-0.4-0.2-0.68-0.6-0.84c-0.4-0.16-1.18-0.24-2.34-0.24v-1.8h12.96
			v1.8c-0.96,0-1.81,0.09-2.55,0.27c-0.74,0.18-1.49,0.52-2.25,1.02c-0.76,0.5-1.69,1.21-2.79,2.13c-1.1,0.92-2.49,2.12-4.17,3.6
			l-3,2.46l10.56,11.88c0.96,1.08,1.75,1.87,2.37,2.37c0.62,0.5,1.23,0.81,1.83,0.93c0.6,0.12,1.32,0.18,2.16,0.18v1.74h-13.26
			v-1.74c0.88,0,1.49-0.05,1.83-0.15c0.34-0.1,0.51-0.29,0.51-0.57c0-0.28-0.07-0.55-0.21-0.81c-0.14-0.26-0.29-0.47-0.45-0.63
			l-9.42-10.68h-0.36v9.12c0,1.52,0.27,2.52,0.81,3s1.75,0.72,3.63,0.72V44.63z"/>
		<path class="st5" d="M321.27,45.23c-2.4,0-4.57-0.57-6.51-1.71c-1.94-1.14-3.47-2.82-4.59-5.04c-1.12-2.22-1.68-4.93-1.68-8.13
			c0-3.36,0.57-6.13,1.71-8.31c1.14-2.18,2.67-3.81,4.59-4.89s4.04-1.62,6.36-1.62c3.28,0,5.92,1.14,7.92,3.42
			c2,2.28,3.08,5.52,3.24,9.72h-19.5l-0.06-2.22h13.92c-0.04-1.48-0.3-2.87-0.78-4.17c-0.48-1.3-1.18-2.35-2.1-3.15
			c-0.92-0.8-2.1-1.2-3.54-1.2c-2.32,0-4.06,0.91-5.22,2.73c-1.16,1.82-1.74,4.39-1.74,7.71c0,2.76,0.44,5.06,1.32,6.9
			c0.88,1.84,2.04,3.21,3.48,4.11s2.98,1.35,4.62,1.35c1.64,0,2.97-0.22,3.99-0.66c1.02-0.44,1.89-1.01,2.61-1.71
			c0.72-0.7,1.4-1.47,2.04-2.31l1.14,0.84c-0.52,1.12-1.12,2.19-1.8,3.21c-0.68,1.02-1.45,1.91-2.31,2.67
			c-0.86,0.76-1.87,1.36-3.03,1.8C324.19,45.01,322.83,45.23,321.27,45.23z"/>
		<path class="st5" d="M349.95,44.63h-13.74v-1.68c1.36,0,2.33-0.13,2.91-0.39c0.58-0.26,0.94-0.71,1.08-1.35
			c0.14-0.64,0.21-1.52,0.21-2.64V21.71c0-1.08-0.22-1.79-0.66-2.13c-0.44-0.34-1.06-0.51-1.86-0.51c-0.52,0-1.06,0.04-1.62,0.12
			v-1.74l7.62-1.74h1.38l-0.06,5.52l0.18,1.26v16.08c0,1.12,0.08,2,0.24,2.64c0.16,0.64,0.56,1.09,1.2,1.35
			c0.64,0.26,1.68,0.39,3.12,0.39V44.63z M367.59,44.63h-13.86v-1.68c1.44,0,2.47-0.13,3.09-0.39c0.62-0.26,1-0.71,1.14-1.35
			c0.14-0.64,0.21-1.52,0.21-2.64V27.71c0-2.4-0.27-4.2-0.81-5.4c-0.54-1.2-1.23-1.99-2.07-2.37c-0.84-0.38-1.72-0.57-2.64-0.57
			c-1.16,0-2.2,0.23-3.12,0.69c-0.92,0.46-1.75,1.01-2.49,1.65c-0.74,0.64-1.43,1.24-2.07,1.8l-0.42-2.94h0.9
			c1.64-1.44,3.19-2.64,4.65-3.6c1.46-0.96,3.13-1.44,5.01-1.44c2.72,0,4.74,0.92,6.06,2.76c1.32,1.84,1.98,4.48,1.98,7.92v12.36
			c0,1.12,0.09,2,0.27,2.64c0.18,0.64,0.59,1.09,1.23,1.35c0.64,0.26,1.62,0.39,2.94,0.39V44.63z"/>
		<path class="st5" d="M373.05,52.55l-0.72-1.5c0.76-0.32,1.52-0.73,2.28-1.23c0.76-0.5,1.4-1.23,1.92-2.19
			c0.52-0.96,0.78-2.24,0.78-3.84c-0.64,0.24-1.26,0.36-1.86,0.36c-1.16,0-2-0.32-2.52-0.96c-0.52-0.64-0.78-1.4-0.78-2.28
			c0-0.96,0.32-1.79,0.96-2.49c0.64-0.7,1.56-1.05,2.76-1.05c1,0,1.84,0.21,2.52,0.63c0.68,0.42,1.2,1.02,1.56,1.8
			c0.36,0.78,0.54,1.73,0.54,2.85c0,1.68-0.27,3.1-0.81,4.26c-0.54,1.16-1.21,2.1-2.01,2.82c-0.8,0.72-1.62,1.3-2.46,1.74
			C374.37,51.91,373.65,52.27,373.05,52.55z"/>
		<path class="st5" d="M17.8,114.63H4.12v-1.74c1.28,0,2.21-0.11,2.79-0.33c0.58-0.22,0.96-0.64,1.14-1.26
			c0.18-0.62,0.27-1.53,0.27-2.73v-16.8c0-1.08-0.21-1.8-0.63-2.16c-0.42-0.36-1.05-0.54-1.89-0.54c-0.44,0-0.98,0.04-1.62,0.12
			v-1.74l7.5-1.74h1.44v5.52l0.18,1.32v16.26c0,1.12,0.12,1.97,0.36,2.55c0.24,0.58,0.68,0.98,1.32,1.2
			c0.64,0.22,1.58,0.33,2.82,0.33V114.63z M35.2,114.63H20.98v-1.74c1.44,0,2.48-0.14,3.12-0.42c0.64-0.28,1.05-0.8,1.23-1.56
			c0.18-0.76,0.27-1.84,0.27-3.24V95.79c0-2.56-0.45-4.27-1.35-5.13c-0.9-0.86-2.05-1.29-3.45-1.29c-1.12,0-2.17,0.24-3.15,0.72
			c-0.98,0.48-1.87,1.04-2.67,1.68c-0.8,0.64-1.48,1.24-2.04,1.8l-0.48-3h0.9c1.64-1.4,3.22-2.59,4.74-3.57
			c1.52-0.98,3.3-1.47,5.34-1.47c1.8,0,3.25,0.52,4.35,1.56c1.1,1.04,1.93,2.34,2.49,3.9c0.08,0.12,0.14,0.25,0.18,0.39
			c0.04,0.14,0.08,0.29,0.12,0.45v15.84c0,1.36,0.09,2.42,0.27,3.18c0.18,0.76,0.59,1.29,1.23,1.59c0.64,0.3,1.68,0.45,3.12,0.45
			V114.63z M51.94,114.63H38.38v-1.74c1.36,0,2.34-0.18,2.94-0.54c0.6-0.36,0.97-0.93,1.11-1.71c0.14-0.78,0.21-1.77,0.21-2.97
			V96.15c0-1.84-0.23-3.24-0.69-4.2c-0.46-0.96-1.08-1.63-1.86-2.01c-0.78-0.38-1.65-0.57-2.61-0.57c-1.32,0-2.62,0.47-3.9,1.41
			c-1.28,0.94-2.44,1.85-3.48,2.73l-0.66-3h0.9c1.64-1.64,3.24-2.88,4.8-3.72c1.56-0.84,3.14-1.26,4.74-1.26
			c2.36,0,4.24,0.74,5.64,2.22c1.4,1.48,2.1,4.04,2.1,7.68v12.24c0,1.24,0.07,2.25,0.21,3.03c0.14,0.78,0.52,1.34,1.14,1.68
			c0.62,0.34,1.61,0.51,2.97,0.51V114.63z"/>
		<path class="st5" d="M68.14,115.23c-2.4,0-4.57-0.57-6.51-1.71c-1.94-1.14-3.47-2.82-4.59-5.04c-1.12-2.22-1.68-4.93-1.68-8.13
			c0-3.36,0.57-6.13,1.71-8.31c1.14-2.18,2.67-3.81,4.59-4.89s4.04-1.62,6.36-1.62c3.28,0,5.92,1.14,7.92,3.42
			c2,2.28,3.08,5.52,3.24,9.72h-19.5l-0.06-2.22h13.92c-0.04-1.48-0.3-2.87-0.78-4.17c-0.48-1.3-1.18-2.35-2.1-3.15
			c-0.92-0.8-2.1-1.2-3.54-1.2c-2.32,0-4.06,0.91-5.22,2.73c-1.16,1.82-1.74,4.39-1.74,7.71c0,2.76,0.44,5.06,1.32,6.9
			c0.88,1.84,2.04,3.21,3.48,4.11c1.44,0.9,2.98,1.35,4.62,1.35c1.64,0,2.97-0.22,3.99-0.66c1.02-0.44,1.89-1.01,2.61-1.71
			c0.72-0.7,1.4-1.47,2.04-2.31l1.14,0.84c-0.52,1.12-1.12,2.19-1.8,3.21c-0.68,1.02-1.45,1.91-2.31,2.67
			c-0.86,0.76-1.87,1.36-3.03,1.8C71.06,115.01,69.7,115.23,68.14,115.23z"/>
		<path class="st5" d="M96.82,114.63H83.08v-1.68c1.36,0,2.33-0.13,2.91-0.39c0.58-0.26,0.94-0.71,1.08-1.35
			c0.14-0.64,0.21-1.52,0.21-2.64V91.71c0-1.08-0.22-1.79-0.66-2.13c-0.44-0.34-1.06-0.51-1.86-0.51c-0.52,0-1.06,0.04-1.62,0.12
			v-1.74l7.62-1.74h1.38l-0.06,5.52l0.18,1.26v16.08c0,1.12,0.08,2,0.24,2.64c0.16,0.64,0.56,1.09,1.2,1.35
			c0.64,0.26,1.68,0.39,3.12,0.39V114.63z M114.46,114.63H100.6v-1.68c1.44,0,2.47-0.13,3.09-0.39c0.62-0.26,1-0.71,1.14-1.35
			c0.14-0.64,0.21-1.52,0.21-2.64V97.71c0-2.4-0.27-4.2-0.81-5.4c-0.54-1.2-1.23-1.99-2.07-2.37c-0.84-0.38-1.72-0.57-2.64-0.57
			c-1.16,0-2.2,0.23-3.12,0.69c-0.92,0.46-1.75,1.01-2.49,1.65c-0.74,0.64-1.43,1.24-2.07,1.8l-0.42-2.94h0.9
			c1.64-1.44,3.19-2.64,4.65-3.6c1.46-0.96,3.13-1.44,5.01-1.44c2.72,0,4.74,0.92,6.06,2.76c1.32,1.84,1.98,4.48,1.98,7.92v12.36
			c0,1.12,0.09,2,0.27,2.64c0.18,0.64,0.59,1.09,1.23,1.35c0.64,0.26,1.62,0.39,2.94,0.39V114.63z"/>
		<path class="st5" d="M118.24,115.11l-0.18-10.32h1.56c0.64,3.08,1.58,5.23,2.82,6.45c1.24,1.22,2.96,1.83,5.16,1.83
			c1.52,0,2.76-0.31,3.72-0.93c0.96-0.62,1.44-1.63,1.44-3.03c0-0.96-0.17-1.76-0.51-2.4c-0.34-0.64-0.99-1.29-1.95-1.95
			c-0.96-0.66-2.38-1.45-4.26-2.37c-1.84-0.92-3.34-1.81-4.5-2.67c-1.16-0.86-2.02-1.81-2.58-2.85c-0.56-1.04-0.84-2.3-0.84-3.78
			c0-2.48,0.89-4.36,2.67-5.64c1.78-1.28,3.95-1.92,6.51-1.92c1.52,0,2.76,0.17,3.72,0.51c0.96,0.34,1.82,0.69,2.58,1.05h0.06
			l1.02-1.26h1.2l0.18,9.18h-1.62c-0.64-2.84-1.54-4.79-2.7-5.85c-1.16-1.06-2.66-1.59-4.5-1.59c-1.36,0-2.51,0.32-3.45,0.96
			c-0.94,0.64-1.41,1.64-1.41,3c0,1.16,0.54,2.2,1.62,3.12c1.08,0.92,2.88,2.02,5.4,3.3c1.84,0.96,3.38,1.89,4.62,2.79
			c1.24,0.9,2.18,1.88,2.82,2.94c0.64,1.06,0.96,2.33,0.96,3.81c0,1.88-0.46,3.39-1.38,4.53c-0.92,1.14-2.15,1.97-3.69,2.49
			c-1.54,0.52-3.21,0.78-5.01,0.78c-1.72,0-3.09-0.18-4.11-0.54c-1.02-0.36-1.93-0.7-2.73-1.02h-0.12l-1.26,1.38H118.24z"/>
		<path class="st5" d="M154.23,115.23c-2.4,0-4.57-0.57-6.51-1.71c-1.94-1.14-3.47-2.82-4.59-5.04c-1.12-2.22-1.68-4.93-1.68-8.13
			c0-3.36,0.57-6.13,1.71-8.31c1.14-2.18,2.67-3.81,4.59-4.89s4.04-1.62,6.36-1.62c3.28,0,5.92,1.14,7.92,3.42
			c2,2.28,3.08,5.52,3.24,9.72h-19.5l-0.06-2.22h13.92c-0.04-1.48-0.3-2.87-0.78-4.17c-0.48-1.3-1.18-2.35-2.1-3.15
			c-0.92-0.8-2.1-1.2-3.54-1.2c-2.32,0-4.06,0.91-5.22,2.73c-1.16,1.82-1.74,4.39-1.74,7.71c0,2.76,0.44,5.06,1.32,6.9
			c0.88,1.84,2.04,3.21,3.48,4.11s2.98,1.35,4.62,1.35c1.64,0,2.97-0.22,3.99-0.66c1.02-0.44,1.89-1.01,2.61-1.71
			c0.72-0.7,1.4-1.47,2.04-2.31l1.14,0.84c-0.52,1.12-1.12,2.19-1.8,3.21c-0.68,1.02-1.45,1.91-2.31,2.67
			c-0.86,0.76-1.87,1.36-3.03,1.8C157.15,115.01,155.79,115.23,154.23,115.23z"/>
		<path class="st5" d="M182.91,114.63h-13.74v-1.68c1.36,0,2.33-0.13,2.91-0.39c0.58-0.26,0.94-0.71,1.08-1.35
			c0.14-0.64,0.21-1.52,0.21-2.64V91.71c0-1.08-0.22-1.79-0.66-2.13c-0.44-0.34-1.06-0.51-1.86-0.51c-0.52,0-1.06,0.04-1.62,0.12
			v-1.74l7.62-1.74h1.38l-0.06,5.52l0.18,1.26v16.08c0,1.12,0.08,2,0.24,2.64c0.16,0.64,0.56,1.09,1.2,1.35
			c0.64,0.26,1.68,0.39,3.12,0.39V114.63z M200.55,114.63h-13.86v-1.68c1.44,0,2.47-0.13,3.09-0.39c0.62-0.26,1-0.71,1.14-1.35
			c0.14-0.64,0.21-1.52,0.21-2.64V97.71c0-2.4-0.27-4.2-0.81-5.4c-0.54-1.2-1.23-1.99-2.07-2.37c-0.84-0.38-1.72-0.57-2.64-0.57
			c-1.16,0-2.2,0.23-3.12,0.69c-0.92,0.46-1.75,1.01-2.49,1.65c-0.74,0.64-1.43,1.24-2.07,1.8l-0.42-2.94h0.9
			c1.64-1.44,3.19-2.64,4.65-3.6c1.46-0.96,3.13-1.44,5.01-1.44c2.72,0,4.74,0.92,6.06,2.76c1.32,1.84,1.98,4.48,1.98,7.92v12.36
			c0,1.12,0.09,2,0.27,2.64c0.18,0.64,0.59,1.09,1.23,1.35c0.64,0.26,1.62,0.39,2.94,0.39V114.63z"/>
		<path class="st5" d="M232.65,114.63h-15v-1.74c1.32,0,2.29-0.11,2.91-0.33c0.62-0.22,1.02-0.62,1.2-1.2
			c0.18-0.58,0.27-1.43,0.27-2.55v-16.5c0-1.08-0.09-1.89-0.27-2.43c-0.18-0.54-0.81-0.81-1.89-0.81c-0.6,0-1.22,0.04-1.86,0.12
			v-1.68l7.44-1.8h1.44v6.18h0.18c1.04-1.48,1.96-2.7,2.76-3.66c0.8-0.96,1.59-1.68,2.37-2.16c0.78-0.48,1.65-0.72,2.61-0.72
			c1.16,0,2.03,0.3,2.61,0.9c0.58,0.6,0.87,1.42,0.87,2.46c0,1.12-0.27,1.94-0.81,2.46c-0.54,0.52-1.15,0.78-1.83,0.78
			c-0.64,0-1.21-0.17-1.71-0.51c-0.5-0.34-0.93-0.68-1.29-1.02c-0.36-0.34-0.66-0.51-0.9-0.51c-0.68,0-1.46,0.52-2.34,1.56
			c-0.88,1.04-1.68,2.16-2.4,3.36v13.68c0,1.24,0.16,2.18,0.48,2.82c0.32,0.64,0.89,1.06,1.71,1.26c0.82,0.2,1.97,0.3,3.45,0.3
			V114.63z"/>
		<path class="st5" d="M247.23,115.05c-2.32,0-4.09-0.64-5.31-1.92c-1.22-1.28-1.83-2.88-1.83-4.8c0-1.6,0.37-2.95,1.11-4.05
			c0.74-1.1,1.72-2.03,2.94-2.79c1.22-0.76,2.54-1.4,3.96-1.92c1.42-0.52,2.81-0.96,4.17-1.32c1.36-0.36,2.56-0.7,3.6-1.02v-2.64
			c0-2.6-0.45-4.45-1.35-5.55c-0.9-1.1-2.25-1.65-4.05-1.65c-1.72,0-2.82,0.36-3.3,1.08c-0.48,0.72-0.72,1.98-0.72,3.78
			c0,0.92-0.23,1.61-0.69,2.07c-0.46,0.46-1.11,0.69-1.95,0.69c-0.6,0-1.17-0.23-1.71-0.69c-0.54-0.46-0.81-1.19-0.81-2.19
			c0-1.12,0.43-2.18,1.29-3.18c0.86-1,2.08-1.82,3.66-2.46c1.58-0.64,3.45-0.96,5.61-0.96c3.28,0,5.6,0.76,6.96,2.28
			c1.36,1.52,2.04,3.84,2.04,6.96v13.62c0,1.24,0.14,2.04,0.42,2.4c0.28,0.36,0.74,0.54,1.38,0.54c0.56,0,1.07-0.14,1.53-0.42
			c0.46-0.28,0.89-0.64,1.29-1.08l0.9,0.96c-1,1.44-1.95,2.49-2.85,3.15s-2.11,0.99-3.63,0.99c-1.4,0-2.31-0.4-2.73-1.2
			c-0.42-0.8-0.73-1.94-0.93-3.42l-0.36-0.72V99.21c-1.8,0.44-3.5,0.96-5.1,1.56c-1.6,0.6-2.9,1.38-3.9,2.34
			c-1,0.96-1.5,2.22-1.5,3.78c0,1.48,0.4,2.66,1.2,3.54c0.8,0.88,1.84,1.32,3.12,1.32c1.04,0,2.13-0.26,3.27-0.78
			c1.14-0.52,2.25-1.26,3.33-2.22l0.48,2.16h-0.72c-0.92,0.8-1.81,1.52-2.67,2.16c-0.86,0.64-1.78,1.13-2.76,1.47
			C249.64,114.88,248.51,115.05,247.23,115.05z"/>
		<path class="st5" d="M282.03,114.63h-13.62v-1.74c1.8,0,2.95-0.25,3.45-0.75c0.5-0.5,0.75-1.57,0.75-3.21v-30
			c0-1.28-0.15-2.11-0.45-2.49c-0.3-0.38-0.95-0.57-1.95-0.57c-0.4,0-1.08,0.04-2.04,0.12v-1.62l7.8-2.1h1.62v26.46h0.36l7.74-7.68
			c0.12-0.12,0.33-0.35,0.63-0.69c0.3-0.34,0.45-0.75,0.45-1.23c0-0.4-0.2-0.68-0.6-0.84c-0.4-0.16-1.18-0.24-2.34-0.24v-1.8h12.96
			v1.8c-0.96,0-1.81,0.09-2.55,0.27c-0.74,0.18-1.49,0.52-2.25,1.02c-0.76,0.5-1.69,1.21-2.79,2.13c-1.1,0.92-2.49,2.12-4.17,3.6
			l-3,2.46l10.56,11.88c0.96,1.08,1.75,1.87,2.37,2.37c0.62,0.5,1.23,0.81,1.83,0.93c0.6,0.12,1.32,0.18,2.16,0.18v1.74h-13.26
			v-1.74c0.88,0,1.49-0.05,1.83-0.15c0.34-0.1,0.51-0.29,0.51-0.57c0-0.28-0.07-0.55-0.21-0.81c-0.14-0.26-0.29-0.47-0.45-0.63
			l-9.42-10.68h-0.36v9.12c0,1.52,0.27,2.52,0.81,3s1.75,0.72,3.63,0.72V114.63z"/>
		<path class="st5" d="M312.45,115.23c-2.4,0-4.57-0.57-6.51-1.71c-1.94-1.14-3.47-2.82-4.59-5.04c-1.12-2.22-1.68-4.93-1.68-8.13
			c0-3.36,0.57-6.13,1.71-8.31c1.14-2.18,2.67-3.81,4.59-4.89s4.04-1.62,6.36-1.62c3.28,0,5.92,1.14,7.92,3.42
			c2,2.28,3.08,5.52,3.24,9.72h-19.5l-0.06-2.22h13.92c-0.04-1.48-0.3-2.87-0.78-4.17c-0.48-1.3-1.18-2.35-2.1-3.15
			c-0.92-0.8-2.1-1.2-3.54-1.2c-2.32,0-4.06,0.91-5.22,2.73c-1.16,1.82-1.74,4.39-1.74,7.71c0,2.76,0.44,5.06,1.32,6.9
			c0.88,1.84,2.04,3.21,3.48,4.11s2.98,1.35,4.62,1.35c1.64,0,2.97-0.22,3.99-0.66c1.02-0.44,1.89-1.01,2.61-1.71
			c0.72-0.7,1.4-1.47,2.04-2.31l1.14,0.84c-0.52,1.12-1.12,2.19-1.8,3.21c-0.68,1.02-1.45,1.91-2.31,2.67
			c-0.86,0.76-1.87,1.36-3.03,1.8C315.37,115.01,314.01,115.23,312.45,115.23z"/>
		<path class="st5" d="M341.13,114.63h-13.74v-1.68c1.36,0,2.33-0.13,2.91-0.39c0.58-0.26,0.94-0.71,1.08-1.35
			c0.14-0.64,0.21-1.52,0.21-2.64V91.71c0-1.08-0.22-1.79-0.66-2.13c-0.44-0.34-1.06-0.51-1.86-0.51c-0.52,0-1.06,0.04-1.62,0.12
			v-1.74l7.62-1.74h1.38l-0.06,5.52l0.18,1.26v16.08c0,1.12,0.08,2,0.24,2.64c0.16,0.64,0.56,1.09,1.2,1.35
			c0.64,0.26,1.68,0.39,3.12,0.39V114.63z M358.77,114.63h-13.86v-1.68c1.44,0,2.47-0.13,3.09-0.39c0.62-0.26,1-0.71,1.14-1.35
			c0.14-0.64,0.21-1.52,0.21-2.64V97.71c0-2.4-0.27-4.2-0.81-5.4c-0.54-1.2-1.23-1.99-2.07-2.37c-0.84-0.38-1.72-0.57-2.64-0.57
			c-1.16,0-2.2,0.23-3.12,0.69c-0.92,0.46-1.75,1.01-2.49,1.65c-0.74,0.64-1.43,1.24-2.07,1.8l-0.42-2.94h0.9
			c1.64-1.44,3.19-2.64,4.65-3.6c1.46-0.96,3.13-1.44,5.01-1.44c2.72,0,4.74,0.92,6.06,2.76c1.32,1.84,1.98,4.48,1.98,7.92v12.36
			c0,1.12,0.09,2,0.27,2.64c0.18,0.64,0.59,1.09,1.23,1.35c0.64,0.26,1.62,0.39,2.94,0.39V114.63z"/>
		<path class="st5" d="M364.23,122.55l-0.72-1.5c0.76-0.32,1.52-0.73,2.28-1.23c0.76-0.5,1.4-1.23,1.92-2.19
			c0.52-0.96,0.78-2.24,0.78-3.84c-0.64,0.24-1.26,0.36-1.86,0.36c-1.16,0-2-0.32-2.52-0.96c-0.52-0.64-0.78-1.4-0.78-2.28
			c0-0.96,0.32-1.79,0.96-2.49c0.64-0.7,1.56-1.05,2.76-1.05c1,0,1.84,0.21,2.52,0.63c0.68,0.42,1.2,1.02,1.56,1.8
			c0.36,0.78,0.54,1.73,0.54,2.85c0,1.68-0.27,3.1-0.81,4.26c-0.54,1.16-1.21,2.1-2.01,2.82c-0.8,0.72-1.62,1.3-2.46,1.74
			C365.55,121.91,364.83,122.27,364.23,122.55z"/>
		<path class="st5" d="M18.1,184.99h-2.88l-8.94-22.62c-0.52-1.24-0.98-2.17-1.38-2.79c-0.4-0.62-0.86-1.04-1.38-1.26
			c-0.52-0.22-1.22-0.33-2.1-0.33v-1.74h12.66v1.74c-1.16,0-1.97,0.13-2.43,0.39c-0.46,0.26-0.69,0.63-0.69,1.11
			c0,0.4,0.06,0.78,0.18,1.14s0.26,0.76,0.42,1.2l5.1,13.38l1.14,3.6h0.36l1.26-3.66l5.16-13.56c0.04-0.16,0.12-0.41,0.24-0.75
			c0.12-0.34,0.18-0.75,0.18-1.23c0-0.68-0.3-1.12-0.9-1.32c-0.6-0.2-1.44-0.3-2.52-0.3v-1.74h10.5v1.74
			c-1.16,0-2.05,0.27-2.67,0.81c-0.62,0.54-1.23,1.59-1.83,3.15L18.1,184.99z"/>
		<path class="st5" d="M45.58,185.23c-2.4,0-4.57-0.57-6.51-1.71c-1.94-1.14-3.47-2.82-4.59-5.04c-1.12-2.22-1.68-4.93-1.68-8.13
			c0-3.36,0.57-6.13,1.71-8.31c1.14-2.18,2.67-3.81,4.59-4.89s4.04-1.62,6.36-1.62c3.28,0,5.92,1.14,7.92,3.42
			c2,2.28,3.08,5.52,3.24,9.72h-19.5l-0.06-2.22h13.92c-0.04-1.48-0.3-2.87-0.78-4.17c-0.48-1.3-1.18-2.35-2.1-3.15
			c-0.92-0.8-2.1-1.2-3.54-1.2c-2.32,0-4.06,0.91-5.22,2.73c-1.16,1.82-1.74,4.39-1.74,7.71c0,2.76,0.44,5.06,1.32,6.9
			c0.88,1.84,2.04,3.21,3.48,4.11s2.98,1.35,4.62,1.35c1.64,0,2.97-0.22,3.99-0.66c1.02-0.44,1.89-1.01,2.61-1.71
			c0.72-0.7,1.4-1.47,2.04-2.31l1.14,0.84c-0.52,1.12-1.12,2.19-1.8,3.21c-0.68,1.02-1.45,1.91-2.31,2.67
			c-0.86,0.76-1.87,1.36-3.03,1.8C48.5,185.01,47.14,185.23,45.58,185.23z"/>
		<path class="st5" d="M75.34,184.63h-15v-1.74c1.32,0,2.29-0.11,2.91-0.33c0.62-0.22,1.02-0.62,1.2-1.2
			c0.18-0.58,0.27-1.43,0.27-2.55v-16.5c0-1.08-0.09-1.89-0.27-2.43c-0.18-0.54-0.81-0.81-1.89-0.81c-0.6,0-1.22,0.04-1.86,0.12
			v-1.68l7.44-1.8h1.44v6.18h0.18c1.04-1.48,1.96-2.7,2.76-3.66c0.8-0.96,1.59-1.68,2.37-2.16c0.78-0.48,1.65-0.72,2.61-0.72
			c1.16,0,2.03,0.3,2.61,0.9c0.58,0.6,0.87,1.42,0.87,2.46c0,1.12-0.27,1.94-0.81,2.46c-0.54,0.52-1.15,0.78-1.83,0.78
			c-0.64,0-1.21-0.17-1.71-0.51c-0.5-0.34-0.93-0.68-1.29-1.02c-0.36-0.34-0.66-0.51-0.9-0.51c-0.68,0-1.46,0.52-2.34,1.56
			c-0.88,1.04-1.68,2.16-2.4,3.36v13.68c0,1.24,0.16,2.18,0.48,2.82c0.32,0.64,0.89,1.06,1.71,1.26c0.82,0.2,1.97,0.3,3.45,0.3
			V184.63z"/>
		<path class="st5" d="M97.24,184.99h-2.76l-9-22.62c-0.52-1.24-1-2.17-1.44-2.79c-0.44-0.62-0.94-1.04-1.5-1.26
			c-0.56-0.22-1.28-0.33-2.16-0.33v-1.74h12.9v1.74c-1.2,0-2.03,0.13-2.49,0.39c-0.46,0.26-0.69,0.63-0.69,1.11
			c0,0.4,0.07,0.78,0.21,1.14c0.14,0.36,0.29,0.76,0.45,1.2l5.22,13.26l1.08,3.48h0.42l1.26-3.48l4.56-11.52l1.98,3.96h-1.02
			L97.24,184.99z M113.74,184.99h-2.88l-6.66-18.3l-0.84-1.68l-0.96-2.64c-0.48-1.32-0.93-2.29-1.35-2.91
			c-0.42-0.62-0.91-1.02-1.47-1.2c-0.56-0.18-1.28-0.27-2.16-0.27v-1.74h12.54v1.74c-1.12,0-1.9,0.13-2.34,0.39
			c-0.44,0.26-0.66,0.63-0.66,1.11c0,0.36,0.05,0.75,0.15,1.17c0.1,0.42,0.23,0.85,0.39,1.29l4.86,13.14l1.08,3.48h0.36l1.2-3.48
			l4.74-13.44c0.04-0.16,0.11-0.43,0.21-0.81c0.1-0.38,0.15-0.83,0.15-1.35c0-0.56-0.28-0.95-0.84-1.17
			c-0.56-0.22-1.4-0.33-2.52-0.33v-1.74h10.38v1.74c-1.16,0-2.04,0.27-2.64,0.81s-1.2,1.59-1.8,3.15L113.74,184.99z"/>
		<path class="st5" d="M141.52,185.23c-4.2,0-7.49-1.31-9.87-3.93c-2.38-2.62-3.57-6.35-3.57-11.19c0-2.92,0.56-5.47,1.68-7.65
			c1.12-2.18,2.69-3.88,4.71-5.1c2.02-1.22,4.37-1.83,7.05-1.83c4.12,0,7.37,1.28,9.75,3.84c2.38,2.56,3.57,6.06,3.57,10.5
			c0,3.36-0.57,6.18-1.71,8.46c-1.14,2.28-2.71,4-4.71,5.16C146.42,184.65,144.12,185.23,141.52,185.23z M141.76,182.83
			c1.64,0,3.02-0.38,4.14-1.14c1.12-0.76,1.97-2.06,2.55-3.9c0.58-1.84,0.87-4.38,0.87-7.62c0-3.68-0.67-6.66-2.01-8.94
			c-1.34-2.28-3.35-3.42-6.03-3.42c-2.28,0-4.12,0.96-5.52,2.88c-1.4,1.92-2.1,4.8-2.1,8.64c0,4.76,0.71,8.21,2.13,10.35
			C137.21,181.82,139.2,182.87,141.76,182.83z"/>
		<path class="st5" d="M172.54,184.63H158.8v-1.68c1.36,0,2.33-0.13,2.91-0.39c0.58-0.26,0.94-0.71,1.08-1.35
			c0.14-0.64,0.21-1.52,0.21-2.64v-16.86c0-1.08-0.22-1.79-0.66-2.13c-0.44-0.34-1.06-0.51-1.86-0.51c-0.52,0-1.06,0.04-1.62,0.12
			v-1.74l7.62-1.74h1.38l-0.06,5.52l0.18,1.26v16.08c0,1.12,0.08,2,0.24,2.64c0.16,0.64,0.56,1.09,1.2,1.35
			c0.64,0.26,1.68,0.39,3.12,0.39V184.63z M190.18,184.63h-13.86v-1.68c1.44,0,2.47-0.13,3.09-0.39c0.62-0.26,1-0.71,1.14-1.35
			c0.14-0.64,0.21-1.52,0.21-2.64v-10.86c0-2.4-0.27-4.2-0.81-5.4c-0.54-1.2-1.23-1.99-2.07-2.37c-0.84-0.38-1.72-0.57-2.64-0.57
			c-1.16,0-2.2,0.23-3.12,0.69c-0.92,0.46-1.75,1.01-2.49,1.65c-0.74,0.64-1.43,1.24-2.07,1.8l-0.42-2.94h0.9
			c1.64-1.44,3.19-2.64,4.65-3.6c1.46-0.96,3.13-1.44,5.01-1.44c2.72,0,4.74,0.92,6.06,2.76c1.32,1.84,1.98,4.48,1.98,7.92v12.36
			c0,1.12,0.09,2,0.27,2.64c0.18,0.64,0.59,1.09,1.23,1.35c0.64,0.26,1.62,0.39,2.94,0.39V184.63z"/>
		<path class="st5" d="M203.68,185.11c-2.24,0-4.13-0.6-5.67-1.8c-1.54-1.2-2.69-2.83-3.45-4.89c-0.76-2.06-1.14-4.37-1.14-6.93
			c0-3.32,0.62-6.17,1.86-8.55c1.24-2.38,2.91-4.21,5.01-5.49c2.1-1.28,4.41-1.92,6.93-1.92c0.96,0,1.91,0.12,2.85,0.36
			c0.94,0.24,1.85,0.6,2.73,1.08h0.24v-7.86c0-1.32-0.15-2.18-0.45-2.58c-0.3-0.4-1.03-0.6-2.19-0.6c-0.28,0-0.8,0.04-1.56,0.12
			v-1.68l7.56-2.1h1.62v35.94c0,1.56,0.22,2.57,0.66,3.03c0.44,0.46,1.22,0.69,2.34,0.69h1.26v1.62l-7.68,1.38h-1.38v-4.14h-0.24
			c-1.12,1-2.45,1.97-3.99,2.91C207.44,184.64,205.67,185.11,203.68,185.11z M206.49,180.79c1.4,0,2.58-0.19,3.54-0.57
			c0.96-0.38,1.96-0.93,3-1.65v-15.84c-0.24-1.24-0.82-2.35-1.74-3.33c-0.92-0.98-2.32-1.47-4.2-1.47c-2.52,0-4.56,0.92-6.12,2.76
			c-1.56,1.84-2.34,4.66-2.34,8.46c0,4.12,0.67,7.09,2.01,8.91C201.98,179.88,203.93,180.79,206.49,180.79z"/>
		<path class="st5" d="M238.59,185.23c-2.4,0-4.57-0.57-6.51-1.71c-1.94-1.14-3.47-2.82-4.59-5.04c-1.12-2.22-1.68-4.93-1.68-8.13
			c0-3.36,0.57-6.13,1.71-8.31c1.14-2.18,2.67-3.81,4.59-4.89s4.04-1.62,6.36-1.62c3.28,0,5.92,1.14,7.92,3.42
			c2,2.28,3.08,5.52,3.24,9.72h-19.5l-0.06-2.22h13.92c-0.04-1.48-0.3-2.87-0.78-4.17c-0.48-1.3-1.18-2.35-2.1-3.15
			c-0.92-0.8-2.1-1.2-3.54-1.2c-2.32,0-4.06,0.91-5.22,2.73c-1.16,1.82-1.74,4.39-1.74,7.71c0,2.76,0.44,5.06,1.32,6.9
			c0.88,1.84,2.04,3.21,3.48,4.11s2.98,1.35,4.62,1.35c1.64,0,2.97-0.22,3.99-0.66c1.02-0.44,1.89-1.01,2.61-1.71
			c0.72-0.7,1.4-1.47,2.04-2.31l1.14,0.84c-0.52,1.12-1.12,2.19-1.8,3.21c-0.68,1.02-1.45,1.91-2.31,2.67
			c-0.86,0.76-1.87,1.36-3.03,1.8C241.51,185.01,240.15,185.23,238.59,185.23z"/>
		<path class="st5" d="M268.35,184.63h-15v-1.74c1.32,0,2.29-0.11,2.91-0.33c0.62-0.22,1.02-0.62,1.2-1.2
			c0.18-0.58,0.27-1.43,0.27-2.55v-16.5c0-1.08-0.09-1.89-0.27-2.43c-0.18-0.54-0.81-0.81-1.89-0.81c-0.6,0-1.22,0.04-1.86,0.12
			v-1.68l7.44-1.8h1.44v6.18h0.18c1.04-1.48,1.96-2.7,2.76-3.66c0.8-0.96,1.59-1.68,2.37-2.16c0.78-0.48,1.65-0.72,2.61-0.72
			c1.16,0,2.03,0.3,2.61,0.9c0.58,0.6,0.87,1.42,0.87,2.46c0,1.12-0.27,1.94-0.81,2.46c-0.54,0.52-1.15,0.78-1.83,0.78
			c-0.64,0-1.21-0.17-1.71-0.51c-0.5-0.34-0.93-0.68-1.29-1.02c-0.36-0.34-0.66-0.51-0.9-0.51c-0.68,0-1.46,0.52-2.34,1.56
			c-0.88,1.04-1.68,2.16-2.4,3.36v13.68c0,1.24,0.16,2.18,0.48,2.82c0.32,0.64,0.89,1.06,1.71,1.26c0.82,0.2,1.97,0.3,3.45,0.3
			V184.63z"/>
		<path class="st5" d="M288.63,185.23c-2.4,0-4.57-0.57-6.51-1.71c-1.94-1.14-3.47-2.82-4.59-5.04c-1.12-2.22-1.68-4.93-1.68-8.13
			c0-3.36,0.57-6.13,1.71-8.31c1.14-2.18,2.67-3.81,4.59-4.89s4.04-1.62,6.36-1.62c3.28,0,5.92,1.14,7.92,3.42
			c2,2.28,3.08,5.52,3.24,9.72h-19.5l-0.06-2.22h13.92c-0.04-1.48-0.3-2.87-0.78-4.17c-0.48-1.3-1.18-2.35-2.1-3.15
			c-0.92-0.8-2.1-1.2-3.54-1.2c-2.32,0-4.06,0.91-5.22,2.73c-1.16,1.82-1.74,4.39-1.74,7.71c0,2.76,0.44,5.06,1.32,6.9
			c0.88,1.84,2.04,3.21,3.48,4.11s2.98,1.35,4.62,1.35c1.64,0,2.97-0.22,3.99-0.66c1.02-0.44,1.89-1.01,2.61-1.71
			c0.72-0.7,1.4-1.47,2.04-2.31l1.14,0.84c-0.52,1.12-1.12,2.19-1.8,3.21c-0.68,1.02-1.45,1.91-2.31,2.67
			c-0.86,0.76-1.87,1.36-3.03,1.8C291.55,185.01,290.19,185.23,288.63,185.23z"/>
		<path class="st5" d="M317.31,184.63h-13.74v-1.68c1.36,0,2.33-0.13,2.91-0.39c0.58-0.26,0.94-0.71,1.08-1.35
			c0.14-0.64,0.21-1.52,0.21-2.64v-16.86c0-1.08-0.22-1.79-0.66-2.13c-0.44-0.34-1.06-0.51-1.86-0.51c-0.52,0-1.06,0.04-1.62,0.12
			v-1.74l7.62-1.74h1.38l-0.06,5.52l0.18,1.26v16.08c0,1.12,0.08,2,0.24,2.64c0.16,0.64,0.56,1.09,1.2,1.35
			c0.64,0.26,1.68,0.39,3.12,0.39V184.63z M334.95,184.63h-13.86v-1.68c1.44,0,2.47-0.13,3.09-0.39c0.62-0.26,1-0.71,1.14-1.35
			c0.14-0.64,0.21-1.52,0.21-2.64v-10.86c0-2.4-0.27-4.2-0.81-5.4c-0.54-1.2-1.23-1.99-2.07-2.37c-0.84-0.38-1.72-0.57-2.64-0.57
			c-1.16,0-2.2,0.23-3.12,0.69c-0.92,0.46-1.75,1.01-2.49,1.65c-0.74,0.64-1.43,1.24-2.07,1.8l-0.42-2.94h0.9
			c1.64-1.44,3.19-2.64,4.65-3.6c1.46-0.96,3.13-1.44,5.01-1.44c2.72,0,4.74,0.92,6.06,2.76c1.32,1.84,1.98,4.48,1.98,7.92v12.36
			c0,1.12,0.09,2,0.27,2.64c0.18,0.64,0.59,1.09,1.23,1.35c0.64,0.26,1.62,0.39,2.94,0.39V184.63z"/>
		<path class="st5" d="M365.13,185.23c-2.4,0-4.57-0.57-6.51-1.71c-1.94-1.14-3.47-2.82-4.59-5.04c-1.12-2.22-1.68-4.93-1.68-8.13
			c0-3.36,0.57-6.13,1.71-8.31c1.14-2.18,2.67-3.81,4.59-4.89s4.04-1.62,6.36-1.62c3.28,0,5.92,1.14,7.92,3.42
			c2,2.28,3.08,5.52,3.24,9.72h-19.5l-0.06-2.22h13.92c-0.04-1.48-0.3-2.87-0.78-4.17c-0.48-1.3-1.18-2.35-2.1-3.15
			c-0.92-0.8-2.1-1.2-3.54-1.2c-2.32,0-4.06,0.91-5.22,2.73c-1.16,1.82-1.74,4.39-1.74,7.71c0,2.76,0.44,5.06,1.32,6.9
			c0.88,1.84,2.04,3.21,3.48,4.11s2.98,1.35,4.62,1.35c1.64,0,2.97-0.22,3.99-0.66c1.02-0.44,1.89-1.01,2.61-1.71
			c0.72-0.7,1.4-1.47,2.04-2.31l1.14,0.84c-0.52,1.12-1.12,2.19-1.8,3.21c-0.68,1.02-1.45,1.91-2.31,2.67
			c-0.86,0.76-1.87,1.36-3.03,1.8C368.05,185.01,366.69,185.23,365.13,185.23z"/>
		<path class="st5" d="M393.81,184.63h-13.74v-1.68c1.36,0,2.33-0.13,2.91-0.39c0.58-0.26,0.94-0.71,1.08-1.35
			c0.14-0.64,0.21-1.52,0.21-2.64v-16.86c0-1.08-0.22-1.79-0.66-2.13c-0.44-0.34-1.06-0.51-1.86-0.51c-0.52,0-1.06,0.04-1.62,0.12
			v-1.74l7.62-1.74h1.38l-0.06,5.52l0.18,1.26v16.08c0,1.12,0.08,2,0.24,2.64c0.16,0.64,0.56,1.09,1.2,1.35
			c0.64,0.26,1.68,0.39,3.12,0.39V184.63z M411.45,184.63h-13.86v-1.68c1.44,0,2.47-0.13,3.09-0.39c0.62-0.26,1-0.71,1.14-1.35
			c0.14-0.64,0.21-1.52,0.21-2.64v-10.86c0-2.4-0.27-4.2-0.81-5.4c-0.54-1.2-1.23-1.99-2.07-2.37c-0.84-0.38-1.72-0.57-2.64-0.57
			c-1.16,0-2.2,0.23-3.12,0.69c-0.92,0.46-1.75,1.01-2.49,1.65c-0.74,0.64-1.43,1.24-2.07,1.8l-0.42-2.94h0.9
			c1.64-1.44,3.19-2.64,4.65-3.6c1.46-0.96,3.13-1.44,5.01-1.44c2.72,0,4.74,0.92,6.06,2.76c1.32,1.84,1.98,4.48,1.98,7.92v12.36
			c0,1.12,0.09,2,0.27,2.64c0.18,0.64,0.59,1.09,1.23,1.35c0.64,0.26,1.62,0.39,2.94,0.39V184.63z"/>
		<path class="st5" d="M18.1,254.99h-2.88l-8.94-22.62c-0.52-1.24-0.98-2.17-1.38-2.79c-0.4-0.62-0.86-1.04-1.38-1.26
			c-0.52-0.22-1.22-0.33-2.1-0.33v-1.74h12.66v1.74c-1.16,0-1.97,0.13-2.43,0.39c-0.46,0.26-0.69,0.63-0.69,1.11
			c0,0.4,0.06,0.78,0.18,1.14s0.26,0.76,0.42,1.2l5.1,13.38l1.14,3.6h0.36l1.26-3.66l5.16-13.56c0.04-0.16,0.12-0.41,0.24-0.75
			c0.12-0.34,0.18-0.75,0.18-1.23c0-0.68-0.3-1.12-0.9-1.32c-0.6-0.2-1.44-0.3-2.52-0.3v-1.74h10.5v1.74
			c-1.16,0-2.05,0.27-2.67,0.81c-0.62,0.54-1.23,1.59-1.83,3.15L18.1,254.99z"/>
		<path class="st5" d="M45.58,255.23c-2.4,0-4.57-0.57-6.51-1.71c-1.94-1.14-3.47-2.82-4.59-5.04c-1.12-2.22-1.68-4.93-1.68-8.13
			c0-3.36,0.57-6.13,1.71-8.31c1.14-2.18,2.67-3.81,4.59-4.89s4.04-1.62,6.36-1.62c3.28,0,5.92,1.14,7.92,3.42
			c2,2.28,3.08,5.52,3.24,9.72h-19.5l-0.06-2.22h13.92c-0.04-1.48-0.3-2.87-0.78-4.17c-0.48-1.3-1.18-2.35-2.1-3.15
			c-0.92-0.8-2.1-1.2-3.54-1.2c-2.32,0-4.06,0.91-5.22,2.73c-1.16,1.82-1.74,4.39-1.74,7.71c0,2.76,0.44,5.06,1.32,6.9
			c0.88,1.84,2.04,3.21,3.48,4.11s2.98,1.35,4.62,1.35c1.64,0,2.97-0.22,3.99-0.66c1.02-0.44,1.89-1.01,2.61-1.71
			c0.72-0.7,1.4-1.47,2.04-2.31l1.14,0.84c-0.52,1.12-1.12,2.19-1.8,3.21c-0.68,1.02-1.45,1.91-2.31,2.67
			c-0.86,0.76-1.87,1.36-3.03,1.8C48.5,255.01,47.14,255.23,45.58,255.23z"/>
		<path class="st5" d="M75.34,254.63h-15v-1.74c1.32,0,2.29-0.11,2.91-0.33c0.62-0.22,1.02-0.62,1.2-1.2
			c0.18-0.58,0.27-1.43,0.27-2.55v-16.5c0-1.08-0.09-1.89-0.27-2.43c-0.18-0.54-0.81-0.81-1.89-0.81c-0.6,0-1.22,0.04-1.86,0.12
			v-1.68l7.44-1.8h1.44v6.18h0.18c1.04-1.48,1.96-2.7,2.76-3.66c0.8-0.96,1.59-1.68,2.37-2.16c0.78-0.48,1.65-0.72,2.61-0.72
			c1.16,0,2.03,0.3,2.61,0.9c0.58,0.6,0.87,1.42,0.87,2.46c0,1.12-0.27,1.94-0.81,2.46c-0.54,0.52-1.15,0.78-1.83,0.78
			c-0.64,0-1.21-0.17-1.71-0.51c-0.5-0.34-0.93-0.68-1.29-1.02c-0.36-0.34-0.66-0.51-0.9-0.51c-0.68,0-1.46,0.52-2.34,1.56
			c-0.88,1.04-1.68,2.16-2.4,3.36v13.68c0,1.24,0.16,2.18,0.48,2.82c0.32,0.64,0.89,1.06,1.71,1.26c0.82,0.2,1.97,0.3,3.45,0.3
			V254.63z"/>
		<path class="st5" d="M97,254.63H83.2v-1.74c1.32,0,2.28-0.13,2.88-0.39c0.6-0.26,0.97-0.7,1.11-1.32
			c0.14-0.62,0.21-1.49,0.21-2.61v-30.12c0-1.24-0.23-1.98-0.69-2.22c-0.46-0.24-1.07-0.36-1.83-0.36c-0.52,0-1.16,0.04-1.92,0.12
			v-1.62l7.92-2.1h1.5v36.3c0,1.16,0.09,2.05,0.27,2.67c0.18,0.62,0.59,1.05,1.23,1.29c0.64,0.24,1.68,0.36,3.12,0.36V254.63z"/>
		<path class="st5" d="M113.2,255.23c-2.4,0-4.57-0.57-6.51-1.71c-1.94-1.14-3.47-2.82-4.59-5.04c-1.12-2.22-1.68-4.93-1.68-8.13
			c0-3.36,0.57-6.13,1.71-8.31c1.14-2.18,2.67-3.81,4.59-4.89s4.04-1.62,6.36-1.62c3.28,0,5.92,1.14,7.92,3.42
			c2,2.28,3.08,5.52,3.24,9.72h-19.5l-0.06-2.22h13.92c-0.04-1.48-0.3-2.87-0.78-4.17c-0.48-1.3-1.18-2.35-2.1-3.15
			c-0.92-0.8-2.1-1.2-3.54-1.2c-2.32,0-4.06,0.91-5.22,2.73c-1.16,1.82-1.74,4.39-1.74,7.71c0,2.76,0.44,5.06,1.32,6.9
			c0.88,1.84,2.04,3.21,3.48,4.11s2.98,1.35,4.62,1.35c1.64,0,2.97-0.22,3.99-0.66c1.02-0.44,1.89-1.01,2.61-1.71
			c0.72-0.7,1.4-1.47,2.04-2.31l1.14,0.84c-0.52,1.12-1.12,2.19-1.8,3.21c-0.68,1.02-1.45,1.91-2.31,2.67
			c-0.86,0.76-1.87,1.36-3.03,1.8C116.11,255.01,114.76,255.23,113.2,255.23z"/>
		<path class="st5" d="M141.63,254.63h-13.5v-1.68c1.36,0,2.33-0.13,2.91-0.39c0.58-0.26,0.94-0.71,1.08-1.35
			c0.14-0.64,0.21-1.52,0.21-2.64v-16.74c0-1.28-0.22-2.07-0.66-2.37c-0.44-0.3-1.1-0.45-1.98-0.45c-0.4,0-0.9,0.04-1.5,0.12v-1.74
			l7.56-1.68h1.56v22.86c0,1.16,0.08,2.06,0.24,2.7c0.16,0.64,0.55,1.08,1.17,1.32c0.62,0.24,1.59,0.36,2.91,0.36V254.63z
			 M134.91,221.03c-1,0-1.82-0.34-2.46-1.02c-0.64-0.68-0.96-1.48-0.96-2.4c0-0.92,0.31-1.71,0.93-2.37
			c0.62-0.66,1.45-0.99,2.49-0.99c1.04,0,1.87,0.33,2.49,0.99c0.62,0.66,0.93,1.45,0.93,2.37c0,0.92-0.31,1.72-0.93,2.4
			C136.78,220.69,135.95,221.03,134.91,221.03z"/>
		<path class="st5" d="M155.55,255.11c-2.24,0-4.13-0.6-5.67-1.8c-1.54-1.2-2.69-2.83-3.45-4.89c-0.76-2.06-1.14-4.37-1.14-6.93
			c0-3.32,0.62-6.17,1.86-8.55c1.24-2.38,2.91-4.21,5.01-5.49c2.1-1.28,4.41-1.92,6.93-1.92c0.96,0,1.91,0.12,2.85,0.36
			c0.94,0.24,1.85,0.6,2.73,1.08h0.24v-7.86c0-1.32-0.15-2.18-0.45-2.58c-0.3-0.4-1.03-0.6-2.19-0.6c-0.28,0-0.8,0.04-1.56,0.12
			v-1.68l7.56-2.1h1.62v35.94c0,1.56,0.22,2.57,0.66,3.03c0.44,0.46,1.22,0.69,2.34,0.69h1.26v1.62l-7.68,1.38h-1.38v-4.14h-0.24
			c-1.12,1-2.45,1.97-3.99,2.91C159.32,254.64,157.55,255.11,155.55,255.11z M158.37,250.79c1.4,0,2.58-0.19,3.54-0.57
			c0.96-0.38,1.96-0.93,3-1.65v-15.84c-0.24-1.24-0.82-2.35-1.74-3.33c-0.92-0.98-2.32-1.47-4.2-1.47c-2.52,0-4.56,0.92-6.12,2.76
			c-1.56,1.84-2.34,4.66-2.34,8.46c0,4.12,0.67,7.09,2.01,8.91C153.86,249.88,155.81,250.79,158.37,250.79z"/>
		<path class="st5" d="M190.47,255.23c-2.4,0-4.57-0.57-6.51-1.71c-1.94-1.14-3.47-2.82-4.59-5.04c-1.12-2.22-1.68-4.93-1.68-8.13
			c0-3.36,0.57-6.13,1.71-8.31c1.14-2.18,2.67-3.81,4.59-4.89s4.04-1.62,6.36-1.62c3.28,0,5.92,1.14,7.92,3.42
			c2,2.28,3.08,5.52,3.24,9.72h-19.5l-0.06-2.22h13.92c-0.04-1.48-0.3-2.87-0.78-4.17c-0.48-1.3-1.18-2.35-2.1-3.15
			c-0.92-0.8-2.1-1.2-3.54-1.2c-2.32,0-4.06,0.91-5.22,2.73c-1.16,1.82-1.74,4.39-1.74,7.71c0,2.76,0.44,5.06,1.32,6.9
			c0.88,1.84,2.04,3.21,3.48,4.11s2.98,1.35,4.62,1.35c1.64,0,2.97-0.22,3.99-0.66c1.02-0.44,1.89-1.01,2.61-1.71
			c0.72-0.7,1.4-1.47,2.04-2.31l1.14,0.84c-0.52,1.12-1.12,2.19-1.8,3.21c-0.68,1.02-1.45,1.91-2.31,2.67
			c-0.86,0.76-1.87,1.36-3.03,1.8C193.39,255.01,192.03,255.23,190.47,255.23z"/>
		<path class="st5" d="M219.15,254.63h-13.74v-1.68c1.36,0,2.33-0.13,2.91-0.39c0.58-0.26,0.94-0.71,1.08-1.35
			c0.14-0.64,0.21-1.52,0.21-2.64v-16.86c0-1.08-0.22-1.79-0.66-2.13c-0.44-0.34-1.06-0.51-1.86-0.51c-0.52,0-1.06,0.04-1.62,0.12
			v-1.74l7.62-1.74h1.38l-0.06,5.52l0.18,1.26v16.08c0,1.12,0.08,2,0.24,2.64c0.16,0.64,0.56,1.09,1.2,1.35
			c0.64,0.26,1.68,0.39,3.12,0.39V254.63z M236.79,254.63h-13.86v-1.68c1.44,0,2.47-0.13,3.09-0.39c0.62-0.26,1-0.71,1.14-1.35
			c0.14-0.64,0.21-1.52,0.21-2.64v-10.86c0-2.4-0.27-4.2-0.81-5.4c-0.54-1.2-1.23-1.99-2.07-2.37c-0.84-0.38-1.72-0.57-2.64-0.57
			c-1.16,0-2.2,0.23-3.12,0.69c-0.92,0.46-1.75,1.01-2.49,1.65c-0.74,0.64-1.43,1.24-2.07,1.8l-0.42-2.94h0.9
			c1.64-1.44,3.19-2.64,4.65-3.6c1.46-0.96,3.13-1.44,5.01-1.44c2.72,0,4.74,0.92,6.06,2.76c1.32,1.84,1.98,4.48,1.98,7.92v12.36
			c0,1.12,0.09,2,0.27,2.64c0.18,0.64,0.59,1.09,1.23,1.35c0.64,0.26,1.62,0.39,2.94,0.39V254.63z"/>
		<path class="st5" d="M245.31,255.11c-1.2,0-2.09-0.34-2.67-1.02c-0.58-0.68-0.87-1.52-0.87-2.52c0-1.04,0.32-1.93,0.96-2.67
			c0.64-0.74,1.52-1.11,2.64-1.11c1.16,0,2.06,0.38,2.7,1.14c0.64,0.76,0.96,1.66,0.96,2.7c0,0.92-0.32,1.73-0.96,2.43
			C247.43,254.76,246.51,255.11,245.31,255.11z"/>
	</g>
</g>
</svg>
