<?xml version="1.0" encoding="UTF-8"?>
<svg id="Laag_1" data-name="Laag 1" xmlns="http://www.w3.org/2000/svg" viewBox="0 0 414.14 194.26">
  <defs>
    <style>
      .cls-1 {
        fill: #232437;
        stroke-width: 0px;
      }
    </style>
  </defs>
  <path class="cls-1" d="m14.12,43.08H1.52v-1.8c1.12,0,2.02-.18,2.7-.54.68-.36,1.34-1.09,1.98-2.19.64-1.1,1.44-2.79,2.4-5.07L21.32,3.36h2.46l14.22,32.58c.88,1.96,1.73,3.34,2.55,4.14.82.8,2.03,1.2,3.63,1.2v1.8h-16.14v-1.8c.6,0,1.22-.04,1.86-.12.64-.08,1.18-.28,1.62-.6.44-.32.66-.82.66-1.5,0-.44-.07-.95-.21-1.53-.14-.58-.41-1.31-.81-2.19l-2.58-6-.42-1.2-6.84-17.4h-.18l-7.02,17.4-.42,1.2-2.94,6.96c-.16.48-.31.95-.45,1.41-.14.46-.21.97-.21,1.53,0,.84.32,1.39.96,1.65.64.26,1.66.39,3.06.39v1.8Zm15.36-13.14H12.8l.9-2.4h14.88l.9,2.4Z"/>
  <path class="cls-1" d="m53.84,43.5c-2.32,0-4.09-.64-5.31-1.92-1.22-1.28-1.83-2.88-1.83-4.8,0-1.6.37-2.95,1.11-4.05.74-1.1,1.72-2.03,2.94-2.79,1.22-.76,2.54-1.4,3.96-1.92,1.42-.52,2.81-.96,4.17-1.32,1.36-.36,2.56-.7,3.6-1.02v-2.64c0-2.6-.45-4.45-1.35-5.55-.9-1.1-2.25-1.65-4.05-1.65s-2.82.36-3.3,1.08c-.48.72-.72,1.98-.72,3.78,0,.92-.23,1.61-.69,2.07-.46.46-1.11.69-1.95.69-.6,0-1.17-.23-1.71-.69s-.81-1.19-.81-2.19c0-1.12.43-2.18,1.29-3.18.86-1,2.08-1.82,3.66-2.46,1.58-.64,3.45-.96,5.61-.96,3.28,0,5.6.76,6.96,2.28,1.36,1.52,2.04,3.84,2.04,6.96v13.62c0,1.24.14,2.04.42,2.4.28.36.74.54,1.38.54.56,0,1.07-.14,1.53-.42.46-.28.89-.64,1.29-1.08l.9.96c-1,1.44-1.95,2.49-2.85,3.15s-2.11.99-3.63.99c-1.4,0-2.31-.4-2.73-1.2s-.73-1.94-.93-3.42l-.36-.72v-10.38c-1.8.44-3.5.96-5.1,1.56-1.6.6-2.9,1.38-3.9,2.34-1,.96-1.5,2.22-1.5,3.78s.4,2.66,1.2,3.54c.8.88,1.84,1.32,3.12,1.32,1.04,0,2.13-.26,3.27-.78,1.14-.52,2.25-1.26,3.33-2.22l.48,2.16h-.72c-.92.8-1.81,1.52-2.67,2.16-.86.64-1.78,1.13-2.76,1.47-.98.34-2.11.51-3.39.51Z"/>
  <path class="cls-1" d="m88.88,43.08h-13.74v-1.68c1.36,0,2.33-.13,2.91-.39.58-.26.94-.71,1.08-1.35.14-.64.21-1.52.21-2.64v-16.86c0-1.08-.22-1.79-.66-2.13-.44-.34-1.06-.51-1.86-.51-.52,0-1.06.04-1.62.12v-1.74l7.62-1.74h1.38l-.06,5.52.18,1.26v16.08c0,1.12.08,2,.24,2.64.16.64.56,1.09,1.2,1.35.64.26,1.68.39,3.12.39v1.68Zm17.64,0h-13.86v-1.68c1.44,0,2.47-.13,3.09-.39.62-.26,1-.71,1.14-1.35.14-.64.21-1.52.21-2.64v-10.86c0-2.4-.27-4.2-.81-5.4-.54-1.2-1.23-1.99-2.07-2.37s-1.72-.57-2.64-.57c-1.16,0-2.2.23-3.12.69-.92.46-1.75,1.01-2.49,1.65-.74.64-1.43,1.24-2.07,1.8l-.42-2.94h.9c1.64-1.44,3.19-2.64,4.65-3.6s3.13-1.44,5.01-1.44c2.72,0,4.74.92,6.06,2.76,1.32,1.84,1.98,4.48,1.98,7.92v12.36c0,1.12.09,2,.27,2.64.18.64.59,1.09,1.23,1.35.64.26,1.62.39,2.94.39v1.68Z"/>
  <path class="cls-1" d="m110.3,43.56l-.18-10.32h1.56c.64,3.08,1.58,5.23,2.82,6.45,1.24,1.22,2.96,1.83,5.16,1.83,1.52,0,2.76-.31,3.72-.93.96-.62,1.44-1.63,1.44-3.03,0-.96-.17-1.76-.51-2.4-.34-.64-.99-1.29-1.95-1.95-.96-.66-2.38-1.45-4.26-2.37-1.84-.92-3.34-1.81-4.5-2.67-1.16-.86-2.02-1.81-2.58-2.85-.56-1.04-.84-2.3-.84-3.78,0-2.48.89-4.36,2.67-5.64,1.78-1.28,3.95-1.92,6.51-1.92,1.52,0,2.76.17,3.72.51.96.34,1.82.69,2.58,1.05h.06l1.02-1.26h1.2l.18,9.18h-1.62c-.64-2.84-1.54-4.79-2.7-5.85-1.16-1.06-2.66-1.59-4.5-1.59-1.36,0-2.51.32-3.45.96-.94.64-1.41,1.64-1.41,3,0,1.16.54,2.2,1.62,3.12s2.88,2.02,5.4,3.3c1.84.96,3.38,1.89,4.62,2.79,1.24.9,2.18,1.88,2.82,2.94.64,1.06.96,2.33.96,3.81,0,1.88-.46,3.39-1.38,4.53-.92,1.14-2.15,1.97-3.69,2.49-1.54.52-3.21.78-5.01.78s-3.09-.18-4.11-.54c-1.02-.36-1.93-.7-2.73-1.02h-.12l-1.26,1.38h-1.26Z"/>
  <path class="cls-1" d="m149.06,37.68l1.14.96c-.76,1.08-1.47,1.99-2.13,2.73-.66.74-1.39,1.31-2.19,1.71-.8.4-1.84.6-3.12.6-2,0-3.46-.59-4.38-1.77-.92-1.18-1.38-3.11-1.38-5.79v-18.6h-3.3v-1.38c1.4-.88,2.61-2.07,3.63-3.57,1.02-1.5,2.07-3.53,3.15-6.09h1.5v8.52h6.78v2.52h-6.78v16.92c0,2.12.19,3.6.57,4.44.38.84,1.15,1.26,2.31,1.26.96,0,1.71-.2,2.25-.6.54-.4,1.19-1.02,1.95-1.86Z"/>
  <path class="cls-1" d="m163.7,43.68c-2.48,0-4.41-.81-5.79-2.43s-2.07-4.47-2.07-8.55v-12.18c0-1.08-.11-1.87-.33-2.37-.22-.5-.63-.82-1.23-.96-.6-.14-1.44-.21-2.52-.21v-1.68l7.74-.9h1.32v17.52c0,2.04.23,3.63.69,4.77s1.1,1.95,1.92,2.43c.82.48,1.75.72,2.79.72,1.52,0,2.83-.34,3.93-1.02,1.1-.68,2.25-1.54,3.45-2.58v-15.78c0-1.08-.14-1.86-.42-2.34-.28-.48-.77-.79-1.47-.93-.7-.14-1.69-.21-2.97-.21v-1.68l8.4-.9h1.44v22.02c0,1.76.24,2.86.72,3.3.48.44,1.44.66,2.88.66h.6v1.62l-7.62,1.38h-1.32v-4.62h-.3c-1.04,1.04-2.07,1.93-3.09,2.67-1.02.74-2.08,1.3-3.18,1.68-1.1.38-2.29.57-3.57.57Z"/>
  <path class="cls-1" d="m201.32,43.08h-15v-1.74c1.32,0,2.29-.11,2.91-.33.62-.22,1.02-.62,1.2-1.2.18-.58.27-1.43.27-2.55v-16.5c0-1.08-.09-1.89-.27-2.43-.18-.54-.81-.81-1.89-.81-.6,0-1.22.04-1.86.12v-1.68l7.44-1.8h1.44v6.18h.18c1.04-1.48,1.96-2.7,2.76-3.66.8-.96,1.59-1.68,2.37-2.16.78-.48,1.65-.72,2.61-.72,1.16,0,2.03.3,2.61.9.58.6.87,1.42.87,2.46,0,1.12-.27,1.94-.81,2.46-.54.52-1.15.78-1.83.78-.64,0-1.21-.17-1.71-.51-.5-.34-.93-.68-1.29-1.02-.36-.34-.66-.51-.9-.51-.68,0-1.46.52-2.34,1.56-.88,1.04-1.68,2.16-2.4,3.36v13.68c0,1.24.16,2.18.48,2.82.32.64.89,1.06,1.71,1.26.82.2,1.97.3,3.45.3v1.74Z"/>
  <path class="cls-1" d="m221.6,43.68c-2.4,0-4.57-.57-6.51-1.71-1.94-1.14-3.47-2.82-4.59-5.04-1.12-2.22-1.68-4.93-1.68-8.13,0-3.36.57-6.13,1.71-8.31,1.14-2.18,2.67-3.81,4.59-4.89s4.04-1.62,6.36-1.62c3.28,0,5.92,1.14,7.92,3.42,2,2.28,3.08,5.52,3.24,9.72h-19.5l-.06-2.22h13.92c-.04-1.48-.3-2.87-.78-4.17-.48-1.3-1.18-2.35-2.1-3.15-.92-.8-2.1-1.2-3.54-1.2-2.32,0-4.06.91-5.22,2.73-1.16,1.82-1.74,4.39-1.74,7.71,0,2.76.44,5.06,1.32,6.9.88,1.84,2.04,3.21,3.48,4.11,1.44.9,2.98,1.35,4.62,1.35s2.97-.22,3.99-.66c1.02-.44,1.89-1.01,2.61-1.71.72-.7,1.4-1.47,2.04-2.31l1.14.84c-.52,1.12-1.12,2.19-1.8,3.21-.68,1.02-1.45,1.91-2.31,2.67s-1.87,1.36-3.03,1.8c-1.16.44-2.52.66-4.08.66Z"/>
  <path class="cls-1" d="m250.28,43.08h-13.74v-1.68c1.36,0,2.33-.13,2.91-.39.58-.26.94-.71,1.08-1.35.14-.64.21-1.52.21-2.64v-16.86c0-1.08-.22-1.79-.66-2.13-.44-.34-1.06-.51-1.86-.51-.52,0-1.06.04-1.62.12v-1.74l7.62-1.74h1.38l-.06,5.52.18,1.26v16.08c0,1.12.08,2,.24,2.64.16.64.56,1.09,1.2,1.35.64.26,1.68.39,3.12.39v1.68Zm17.64,0h-13.86v-1.68c1.44,0,2.47-.13,3.09-.39.62-.26,1-.71,1.14-1.35.14-.64.21-1.52.21-2.64v-10.86c0-2.4-.27-4.2-.81-5.4-.54-1.2-1.23-1.99-2.07-2.37s-1.72-.57-2.64-.57c-1.16,0-2.2.23-3.12.69-.92.46-1.75,1.01-2.49,1.65-.74.64-1.43,1.24-2.07,1.8l-.42-2.94h.9c1.64-1.44,3.19-2.64,4.65-3.6s3.13-1.44,5.01-1.44c2.72,0,4.74.92,6.06,2.76,1.32,1.84,1.98,4.48,1.98,7.92v12.36c0,1.12.09,2,.27,2.64.18.64.59,1.09,1.23,1.35.64.26,1.62.39,2.94.39v1.68Z"/>
  <path class="cls-1" d="m273.38,51l-.72-1.5c.76-.32,1.52-.73,2.28-1.23.76-.5,1.4-1.23,1.92-2.19s.78-2.24.78-3.84c-.64.24-1.26.36-1.86.36-1.16,0-2-.32-2.52-.96-.52-.64-.78-1.4-.78-2.28,0-.96.32-1.79.96-2.49.64-.7,1.56-1.05,2.76-1.05,1,0,1.84.21,2.52.63.68.42,1.2,1.02,1.56,1.8.36.78.54,1.73.54,2.85,0,1.68-.27,3.1-.81,4.26-.54,1.16-1.21,2.1-2.01,2.82-.8.72-1.62,1.3-2.46,1.74-.84.44-1.56.8-2.16,1.08Z"/>
  <path class="cls-1" d="m10.76,111.5c-2.32,0-4.09-.64-5.31-1.92-1.22-1.28-1.83-2.88-1.83-4.8,0-1.6.37-2.95,1.11-4.05.74-1.1,1.72-2.03,2.94-2.79,1.22-.76,2.54-1.4,3.96-1.92,1.42-.52,2.81-.96,4.17-1.32,1.36-.36,2.56-.7,3.6-1.02v-2.64c0-2.6-.45-4.45-1.35-5.55-.9-1.1-2.25-1.65-4.05-1.65s-2.82.36-3.3,1.08c-.48.72-.72,1.98-.72,3.78,0,.92-.23,1.61-.69,2.07-.46.46-1.11.69-1.95.69-.6,0-1.17-.23-1.71-.69s-.81-1.19-.81-2.19c0-1.12.43-2.18,1.29-3.18.86-1,2.08-1.82,3.66-2.46,1.58-.64,3.45-.96,5.61-.96,3.28,0,5.6.76,6.96,2.28,1.36,1.52,2.04,3.84,2.04,6.96v13.62c0,1.24.14,2.04.42,2.4.28.36.74.54,1.38.54.56,0,1.07-.14,1.53-.42.46-.28.89-.64,1.29-1.08l.9.96c-1,1.44-1.95,2.49-2.85,3.15s-2.11.99-3.63.99c-1.4,0-2.31-.4-2.73-1.2s-.73-1.94-.93-3.42l-.36-.72v-10.38c-1.8.44-3.5.96-5.1,1.56-1.6.6-2.9,1.38-3.9,2.34-1,.96-1.5,2.22-1.5,3.78s.4,2.66,1.2,3.54c.8.88,1.84,1.32,3.12,1.32,1.04,0,2.13-.26,3.27-.78,1.14-.52,2.25-1.26,3.33-2.22l.48,2.16h-.72c-.92.8-1.81,1.52-2.67,2.16-.86.64-1.78,1.13-2.76,1.47-.98.34-2.11.51-3.39.51Z"/>
  <path class="cls-1" d="m39.56,111.5c-2.32,0-4.09-.64-5.31-1.92-1.22-1.28-1.83-2.88-1.83-4.8,0-1.6.37-2.95,1.11-4.05.74-1.1,1.72-2.03,2.94-2.79,1.22-.76,2.54-1.4,3.96-1.92,1.42-.52,2.81-.96,4.17-1.32,1.36-.36,2.56-.7,3.6-1.02v-2.64c0-2.6-.45-4.45-1.35-5.55-.9-1.1-2.25-1.65-4.05-1.65s-2.82.36-3.3,1.08c-.48.72-.72,1.98-.72,3.78,0,.92-.23,1.61-.69,2.07-.46.46-1.11.69-1.95.69-.6,0-1.17-.23-1.71-.69s-.81-1.19-.81-2.19c0-1.12.43-2.18,1.29-3.18.86-1,2.08-1.82,3.66-2.46,1.58-.64,3.45-.96,5.61-.96,3.28,0,5.6.76,6.96,2.28,1.36,1.52,2.04,3.84,2.04,6.96v13.62c0,1.24.14,2.04.42,2.4.28.36.74.54,1.38.54.56,0,1.07-.14,1.53-.42.46-.28.89-.64,1.29-1.08l.9.96c-1,1.44-1.95,2.49-2.85,3.15s-2.11.99-3.63.99c-1.4,0-2.31-.4-2.73-1.2s-.73-1.94-.93-3.42l-.36-.72v-10.38c-1.8.44-3.5.96-5.1,1.56-1.6.6-2.9,1.38-3.9,2.34-1,.96-1.5,2.22-1.5,3.78s.4,2.66,1.2,3.54c.8.88,1.84,1.32,3.12,1.32,1.04,0,2.13-.26,3.27-.78,1.14-.52,2.25-1.26,3.33-2.22l.48,2.16h-.72c-.92.8-1.81,1.52-2.67,2.16-.86.64-1.78,1.13-2.76,1.47-.98.34-2.11.51-3.39.51Z"/>
  <path class="cls-1" d="m74.6,111.08h-13.74v-1.68c1.36,0,2.33-.13,2.91-.39.58-.26.94-.71,1.08-1.35.14-.64.21-1.52.21-2.64v-16.86c0-1.08-.22-1.79-.66-2.13-.44-.34-1.06-.51-1.86-.51-.52,0-1.06.04-1.62.12v-1.74l7.62-1.74h1.38l-.06,5.52.18,1.26v16.08c0,1.12.08,2,.24,2.64.16.64.56,1.09,1.2,1.35.64.26,1.68.39,3.12.39v1.68Zm17.64,0h-13.86v-1.68c1.44,0,2.47-.13,3.09-.39.62-.26,1-.71,1.14-1.35.14-.64.21-1.52.21-2.64v-10.86c0-2.4-.27-4.2-.81-5.4-.54-1.2-1.23-1.99-2.07-2.37s-1.72-.57-2.64-.57c-1.16,0-2.2.23-3.12.69-.92.46-1.75,1.01-2.49,1.65-.74.64-1.43,1.24-2.07,1.8l-.42-2.94h.9c1.64-1.44,3.19-2.64,4.65-3.6,1.46-.96,3.13-1.44,5.01-1.44,2.72,0,4.74.92,6.06,2.76,1.32,1.84,1.98,4.48,1.98,7.92v12.36c0,1.12.09,2,.27,2.64.18.64.59,1.09,1.23,1.35.64.26,1.62.39,2.94.39v1.68Z"/>
  <path class="cls-1" d="m107.9,111.44h-2.88l-8.94-22.62c-.52-1.24-.98-2.17-1.38-2.79-.4-.62-.86-1.04-1.38-1.26-.52-.22-1.22-.33-2.1-.33v-1.74h12.66v1.74c-1.16,0-1.97.13-2.43.39-.46.26-.69.63-.69,1.11,0,.4.06.78.18,1.14.12.36.26.76.42,1.2l5.1,13.38,1.14,3.6h.36l1.26-3.66,5.16-13.56c.04-.16.12-.41.24-.75.12-.34.18-.75.18-1.23,0-.68-.3-1.12-.9-1.32-.6-.2-1.44-.3-2.52-.3v-1.74h10.5v1.74c-1.16,0-2.05.27-2.67.81s-1.23,1.59-1.83,3.15l-9.48,23.04Z"/>
  <path class="cls-1" d="m134.18,111.68c-2.48,0-4.41-.81-5.79-2.43s-2.07-4.47-2.07-8.55v-12.18c0-1.08-.11-1.87-.33-2.37-.22-.5-.63-.82-1.23-.96-.6-.14-1.44-.21-2.52-.21v-1.68l7.74-.9h1.32v17.52c0,2.04.23,3.63.69,4.77s1.1,1.95,1.92,2.43c.82.48,1.75.72,2.79.72,1.52,0,2.83-.34,3.93-1.02,1.1-.68,2.25-1.54,3.45-2.58v-15.78c0-1.08-.14-1.86-.42-2.34-.28-.48-.77-.79-1.47-.93-.7-.14-1.69-.21-2.97-.21v-1.68l8.4-.9h1.44v22.02c0,1.76.24,2.86.72,3.3.48.44,1.44.66,2.88.66h.6v1.62l-7.62,1.38h-1.32v-4.62h-.3c-1.04,1.04-2.07,1.93-3.09,2.67-1.02.74-2.08,1.3-3.18,1.68-1.1.38-2.29.57-3.57.57Z"/>
  <path class="cls-1" d="m171.8,111.08h-15v-1.74c1.32,0,2.29-.11,2.91-.33.62-.22,1.02-.62,1.2-1.2.18-.58.27-1.43.27-2.55v-16.5c0-1.08-.09-1.89-.27-2.43-.18-.54-.81-.81-1.89-.81-.6,0-1.22.04-1.86.12v-1.68l7.44-1.8h1.44v6.18h.18c1.04-1.48,1.96-2.7,2.76-3.66.8-.96,1.59-1.68,2.37-2.16.78-.48,1.65-.72,2.61-.72,1.16,0,2.03.3,2.61.9.58.6.87,1.42.87,2.46,0,1.12-.27,1.94-.81,2.46-.54.52-1.15.78-1.83.78-.64,0-1.21-.17-1.71-.51-.5-.34-.93-.68-1.29-1.02-.36-.34-.66-.51-.9-.51-.68,0-1.46.52-2.34,1.56-.88,1.04-1.68,2.16-2.4,3.36v13.68c0,1.24.16,2.18.48,2.82.32.64.89,1.06,1.71,1.26.82.2,1.97.3,3.45.3v1.74Z"/>
  <path class="cls-1" d="m192.08,111.68c-2.4,0-4.57-.57-6.51-1.71-1.94-1.14-3.47-2.82-4.59-5.04-1.12-2.22-1.68-4.93-1.68-8.13,0-3.36.57-6.13,1.71-8.31,1.14-2.18,2.67-3.81,4.59-4.89s4.04-1.62,6.36-1.62c3.28,0,5.92,1.14,7.92,3.42,2,2.28,3.08,5.52,3.24,9.72h-19.5l-.06-2.22h13.92c-.04-1.48-.3-2.87-.78-4.17-.48-1.3-1.18-2.35-2.1-3.15-.92-.8-2.1-1.2-3.54-1.2-2.32,0-4.06.91-5.22,2.73-1.16,1.82-1.74,4.39-1.74,7.71,0,2.76.44,5.06,1.32,6.9.88,1.84,2.04,3.21,3.48,4.11,1.44.9,2.98,1.35,4.62,1.35s2.97-.22,3.99-.66c1.02-.44,1.89-1.01,2.61-1.71.72-.7,1.4-1.47,2.04-2.31l1.14.84c-.52,1.12-1.12,2.19-1.8,3.21-.68,1.02-1.45,1.91-2.31,2.67s-1.87,1.36-3.03,1.8c-1.16.44-2.52.66-4.08.66Z"/>
  <path class="cls-1" d="m220.76,111.08h-13.74v-1.68c1.36,0,2.33-.13,2.91-.39.58-.26.94-.71,1.08-1.35.14-.64.21-1.52.21-2.64v-16.86c0-1.08-.22-1.79-.66-2.13-.44-.34-1.06-.51-1.86-.51-.52,0-1.06.04-1.62.12v-1.74l7.62-1.74h1.38l-.06,5.52.18,1.26v16.08c0,1.12.08,2,.24,2.64.16.64.56,1.09,1.2,1.35.64.26,1.68.39,3.12.39v1.68Zm17.64,0h-13.86v-1.68c1.44,0,2.47-.13,3.09-.39.62-.26,1-.71,1.14-1.35.14-.64.21-1.52.21-2.64v-10.86c0-2.4-.27-4.2-.81-5.4-.54-1.2-1.23-1.99-2.07-2.37s-1.72-.57-2.64-.57c-1.16,0-2.2.23-3.12.69-.92.46-1.75,1.01-2.49,1.65-.74.64-1.43,1.24-2.07,1.8l-.42-2.94h.9c1.64-1.44,3.19-2.64,4.65-3.6s3.13-1.44,5.01-1.44c2.72,0,4.74.92,6.06,2.76,1.32,1.84,1.98,4.48,1.98,7.92v12.36c0,1.12.09,2,.27,2.64.18.64.59,1.09,1.23,1.35.64.26,1.62.39,2.94.39v1.68Z"/>
  <path class="cls-1" d="m16.16,179.68c-2.4,0-4.57-.57-6.51-1.71-1.94-1.14-3.47-2.82-4.59-5.04-1.12-2.22-1.68-4.93-1.68-8.13,0-3.36.57-6.13,1.71-8.31,1.14-2.18,2.67-3.81,4.59-4.89s4.04-1.62,6.36-1.62c3.28,0,5.92,1.14,7.92,3.42,2,2.28,3.08,5.52,3.24,9.72H7.7l-.06-2.22h13.92c-.04-1.48-.3-2.87-.78-4.17s-1.18-2.35-2.1-3.15c-.92-.8-2.1-1.2-3.54-1.2-2.32,0-4.06.91-5.22,2.73-1.16,1.82-1.74,4.39-1.74,7.71,0,2.76.44,5.06,1.32,6.9.88,1.84,2.04,3.21,3.48,4.11,1.44.9,2.98,1.35,4.62,1.35s2.97-.22,3.99-.66c1.02-.44,1.89-1.01,2.61-1.71.72-.7,1.4-1.47,2.04-2.31l1.14.84c-.52,1.12-1.12,2.19-1.8,3.21-.68,1.02-1.45,1.91-2.31,2.67-.86.76-1.87,1.36-3.03,1.8-1.16.44-2.52.66-4.08.66Z"/>
  <path class="cls-1" d="m44.84,179.08h-13.74v-1.68c1.36,0,2.33-.13,2.91-.39.58-.26.94-.71,1.08-1.35.14-.64.21-1.52.21-2.64v-16.86c0-1.08-.22-1.79-.66-2.13-.44-.34-1.06-.51-1.86-.51-.52,0-1.06.04-1.62.12v-1.74l7.62-1.74h1.38l-.06,5.52.18,1.26v16.08c0,1.12.08,2,.24,2.64.16.64.56,1.09,1.2,1.35.64.26,1.68.39,3.12.39v1.68Zm17.64,0h-13.86v-1.68c1.44,0,2.47-.13,3.09-.39.62-.26,1-.71,1.14-1.35.14-.64.21-1.52.21-2.64v-10.86c0-2.4-.27-4.2-.81-5.4-.54-1.2-1.23-1.99-2.07-2.37s-1.72-.57-2.64-.57c-1.16,0-2.2.23-3.12.69-.92.46-1.75,1.01-2.49,1.65-.74.64-1.43,1.24-2.07,1.8l-.42-2.94h.9c1.64-1.44,3.19-2.64,4.65-3.6,1.46-.96,3.13-1.44,5.01-1.44,2.72,0,4.74.92,6.06,2.76,1.32,1.84,1.98,4.48,1.98,7.92v12.36c0,1.12.09,2,.27,2.64.18.64.59,1.09,1.23,1.35.64.26,1.62.39,2.94.39v1.68Z"/>
  <path class="cls-1" d="m93.32,179.68c-4.2,0-7.49-1.31-9.87-3.93-2.38-2.62-3.57-6.35-3.57-11.19,0-2.92.56-5.47,1.68-7.65,1.12-2.18,2.69-3.88,4.71-5.1,2.02-1.22,4.37-1.83,7.05-1.83,4.12,0,7.37,1.28,9.75,3.84,2.38,2.56,3.57,6.06,3.57,10.5,0,3.36-.57,6.18-1.71,8.46-1.14,2.28-2.71,4-4.71,5.16-2,1.16-4.3,1.74-6.9,1.74Zm.24-2.4c1.64,0,3.02-.38,4.14-1.14,1.12-.76,1.97-2.06,2.55-3.9.58-1.84.87-4.38.87-7.62,0-3.68-.67-6.66-2.01-8.94-1.34-2.28-3.35-3.42-6.03-3.42-2.28,0-4.12.96-5.52,2.88s-2.1,4.8-2.1,8.64c0,4.76.71,8.21,2.13,10.35,1.42,2.14,3.41,3.19,5.97,3.15Z"/>
  <path class="cls-1" d="m125.18,192.28h-15.18v-1.68c1.88,0,3.08-.31,3.6-.93.52-.62.78-1.77.78-3.45v-29.7c0-1.16-.13-1.96-.39-2.4-.26-.44-.89-.66-1.89-.66-.4,0-1.04.04-1.92.12v-1.74l7.56-1.68h1.5v5.04h.18c1.44-1.68,2.91-2.97,4.41-3.87,1.5-.9,3.13-1.35,4.89-1.35,2,0,3.75.57,5.25,1.71s2.68,2.72,3.54,4.74c.86,2.02,1.29,4.35,1.29,6.99,0,3.4-.59,6.31-1.77,8.73-1.18,2.42-2.77,4.28-4.77,5.58-2,1.3-4.2,1.95-6.6,1.95-1.12,0-2.19-.13-3.21-.39-1.02-.26-1.97-.69-2.85-1.29h-.24v7.86c0,1.28.16,2.26.48,2.94.32.68.9,1.14,1.74,1.38.84.24,2.04.36,3.6.36v1.74Zm.78-14.94c2.12,0,3.88-1,5.28-3,1.4-2,2.1-5.08,2.1-9.24,0-3.8-.62-6.59-1.86-8.37-1.24-1.78-2.98-2.67-5.22-2.67-1.6,0-3.01.42-4.23,1.26-1.22.84-2.11,1.64-2.67,2.4v15.66c.4.4.9.92,1.5,1.56.6.64,1.32,1.2,2.16,1.68.84.48,1.82.72,2.94.72Z"/>
  <path class="cls-1" d="m143.42,179.56l-.18-10.32h1.56c.64,3.08,1.58,5.23,2.82,6.45,1.24,1.22,2.96,1.83,5.16,1.83,1.52,0,2.76-.31,3.72-.93.96-.62,1.44-1.63,1.44-3.03,0-.96-.17-1.76-.51-2.4-.34-.64-.99-1.29-1.95-1.95-.96-.66-2.38-1.45-4.26-2.37-1.84-.92-3.34-1.81-4.5-2.67-1.16-.86-2.02-1.81-2.58-2.85-.56-1.04-.84-2.3-.84-3.78,0-2.48.89-4.36,2.67-5.64,1.78-1.28,3.95-1.92,6.51-1.92,1.52,0,2.76.17,3.72.51.96.34,1.82.69,2.58,1.05h.06l1.02-1.26h1.2l.18,9.18h-1.62c-.64-2.84-1.54-4.79-2.7-5.85-1.16-1.06-2.66-1.59-4.5-1.59-1.36,0-2.51.32-3.45.96-.94.64-1.41,1.64-1.41,3,0,1.16.54,2.2,1.62,3.12s2.88,2.02,5.4,3.3c1.84.96,3.38,1.89,4.62,2.79,1.24.9,2.18,1.88,2.82,2.94.64,1.06.96,2.33.96,3.81,0,1.88-.46,3.39-1.38,4.53-.92,1.14-2.15,1.97-3.69,2.49-1.54.52-3.21.78-5.01.78s-3.09-.18-4.11-.54c-1.02-.36-1.93-.7-2.73-1.02h-.12l-1.26,1.38h-1.26Z"/>
  <path class="cls-1" d="m189.08,170.2l1.14.84c-.76,1.6-1.63,3.06-2.61,4.38-.98,1.32-2.19,2.36-3.63,3.12-1.44.76-3.24,1.14-5.4,1.14-2.48,0-4.62-.6-6.42-1.8-1.8-1.2-3.18-2.87-4.14-5.01-.96-2.14-1.44-4.59-1.44-7.35,0-3.16.53-5.9,1.59-8.22,1.06-2.32,2.6-4.12,4.62-5.4,2.02-1.28,4.47-1.92,7.35-1.92s5.07.62,6.69,1.86c1.62,1.24,2.43,2.74,2.43,4.5,0,.88-.21,1.55-.63,2.01s-1.05.69-1.89.69-1.55-.23-2.01-.69-.83-1.03-1.11-1.71c-.28-.68-.57-1.36-.87-2.04-.3-.68-.72-1.25-1.26-1.71s-1.33-.69-2.37-.69c-2.44,0-4.35.89-5.73,2.67-1.38,1.78-2.07,4.39-2.07,7.83,0,3.64.75,6.63,2.25,8.97,1.5,2.34,3.79,3.51,6.87,3.51,1.96,0,3.55-.4,4.77-1.2,1.22-.8,2.51-2.06,3.87-3.78Z"/>
  <path class="cls-1" d="m206.78,179.08h-13.62v-1.74c1.56,0,2.65-.22,3.27-.66.62-.44.93-1.5.93-3.18v-30.72c0-1.04-.29-1.7-.87-1.98-.58-.28-1.27-.42-2.07-.42-.48,0-1.06.04-1.74.12v-1.68l8.04-2.1h1.62v36.54c0,1.04.08,1.86.24,2.46.16.6.56,1.02,1.2,1.26.64.24,1.64.36,3,.36v1.74Zm17.94,0h-13.8v-1.74c1.4,0,2.4-.14,3-.42.6-.28.98-.72,1.14-1.32.16-.6.24-1.38.24-2.34v-10.38c0-1.64-.12-3.15-.36-4.53s-.75-2.48-1.53-3.3-1.99-1.23-3.63-1.23c-1.24,0-2.5.33-3.78.99s-2.74,1.79-4.38,3.39l.06-3.3h.84c1.88-1.76,3.57-3.02,5.07-3.78,1.5-.76,3.05-1.14,4.65-1.14,1.72,0,3.11.34,4.17,1.02,1.06.68,1.87,1.57,2.43,2.67.56,1.1.94,2.3,1.14,3.6.2,1.3.3,2.57.3,3.81v11.94c0,1.6.27,2.72.81,3.36.54.64,1.75.96,3.63.96v1.74Z"/>
  <path class="cls-1" d="m239.3,179.68c-2.48,0-4.41-.81-5.79-2.43s-2.07-4.47-2.07-8.55v-12.18c0-1.08-.11-1.87-.33-2.37-.22-.5-.63-.82-1.23-.96-.6-.14-1.44-.21-2.52-.21v-1.68l7.74-.9h1.32v17.52c0,2.04.23,3.63.69,4.77s1.1,1.95,1.92,2.43c.82.48,1.75.72,2.79.72,1.52,0,2.83-.34,3.93-1.02,1.1-.68,2.25-1.54,3.45-2.58v-15.78c0-1.08-.14-1.86-.42-2.34-.28-.48-.77-.79-1.47-.93-.7-.14-1.69-.21-2.97-.21v-1.68l8.4-.9h1.44v22.02c0,1.76.24,2.86.72,3.3.48.44,1.44.66,2.88.66h.6v1.62l-7.62,1.38h-1.32v-4.62h-.3c-1.04,1.04-2.07,1.93-3.09,2.67-1.02.74-2.08,1.3-3.18,1.68-1.1.38-2.29.57-3.57.57Z"/>
  <path class="cls-1" d="m272.42,179.56c-2.24,0-4.13-.6-5.67-1.8-1.54-1.2-2.69-2.83-3.45-4.89-.76-2.06-1.14-4.37-1.14-6.93,0-3.32.62-6.17,1.86-8.55,1.24-2.38,2.91-4.21,5.01-5.49,2.1-1.28,4.41-1.92,6.93-1.92.96,0,1.91.12,2.85.36.94.24,1.85.6,2.73,1.08h.24v-7.86c0-1.32-.15-2.18-.45-2.58-.3-.4-1.03-.6-2.19-.6-.28,0-.8.04-1.56.12v-1.68l7.56-2.1h1.62v35.94c0,1.56.22,2.57.66,3.03.44.46,1.22.69,2.34.69h1.26v1.62l-7.68,1.38h-1.38v-4.14h-.24c-1.12,1-2.45,1.97-3.99,2.91s-3.31,1.41-5.31,1.41Zm2.82-4.32c1.4,0,2.58-.19,3.54-.57.96-.38,1.96-.93,3-1.65v-15.84c-.24-1.24-.82-2.35-1.74-3.33-.92-.98-2.32-1.47-4.2-1.47-2.52,0-4.56.92-6.12,2.76s-2.34,4.66-2.34,8.46c0,4.12.67,7.09,2.01,8.91,1.34,1.82,3.29,2.73,5.85,2.73Z"/>
  <path class="cls-1" d="m304.76,179.56c-2.24,0-4.13-.6-5.67-1.8-1.54-1.2-2.69-2.83-3.45-4.89-.76-2.06-1.14-4.37-1.14-6.93,0-3.32.62-6.17,1.86-8.55,1.24-2.38,2.91-4.21,5.01-5.49,2.1-1.28,4.41-1.92,6.93-1.92.96,0,1.91.12,2.85.36.94.24,1.85.6,2.73,1.08h.24v-7.86c0-1.32-.15-2.18-.45-2.58-.3-.4-1.03-.6-2.19-.6-.28,0-.8.04-1.56.12v-1.68l7.56-2.1h1.62v35.94c0,1.56.22,2.57.66,3.03.44.46,1.22.69,2.34.69h1.26v1.62l-7.68,1.38h-1.38v-4.14h-.24c-1.12,1-2.45,1.97-3.99,2.91s-3.31,1.41-5.31,1.41Zm2.82-4.32c1.4,0,2.58-.19,3.54-.57.96-.38,1.96-.93,3-1.65v-15.84c-.24-1.24-.82-2.35-1.74-3.33-.92-.98-2.32-1.47-4.2-1.47-2.52,0-4.56.92-6.12,2.76s-2.34,4.66-2.34,8.46c0,4.12.67,7.09,2.01,8.91,1.34,1.82,3.29,2.73,5.85,2.73Z"/>
  <path class="cls-1" d="m339.68,179.68c-2.4,0-4.57-.57-6.51-1.71-1.94-1.14-3.47-2.82-4.59-5.04-1.12-2.22-1.68-4.93-1.68-8.13,0-3.36.57-6.13,1.71-8.31,1.14-2.18,2.67-3.81,4.59-4.89s4.04-1.62,6.36-1.62c3.28,0,5.92,1.14,7.92,3.42,2,2.28,3.08,5.52,3.24,9.72h-19.5l-.06-2.22h13.92c-.04-1.48-.3-2.87-.78-4.17-.48-1.3-1.18-2.35-2.1-3.15-.92-.8-2.1-1.2-3.54-1.2-2.32,0-4.06.91-5.22,2.73-1.16,1.82-1.74,4.39-1.74,7.71,0,2.76.44,5.06,1.32,6.9.88,1.84,2.04,3.21,3.48,4.11,1.44.9,2.98,1.35,4.62,1.35s2.97-.22,3.99-.66c1.02-.44,1.89-1.01,2.61-1.71.72-.7,1.4-1.47,2.04-2.31l1.14.84c-.52,1.12-1.12,2.19-1.8,3.21-.68,1.02-1.45,1.91-2.31,2.67s-1.87,1.36-3.03,1.8c-1.16.44-2.52.66-4.08.66Z"/>
  <path class="cls-1" d="m368.35,179.08h-13.74v-1.68c1.36,0,2.33-.13,2.91-.39.58-.26.94-.71,1.08-1.35.14-.64.21-1.52.21-2.64v-16.86c0-1.08-.22-1.79-.66-2.13-.44-.34-1.06-.51-1.86-.51-.52,0-1.06.04-1.62.12v-1.74l7.62-1.74h1.38l-.06,5.52.18,1.26v16.08c0,1.12.08,2,.24,2.64.16.64.56,1.09,1.2,1.35.64.26,1.68.39,3.12.39v1.68Zm17.64,0h-13.86v-1.68c1.44,0,2.47-.13,3.09-.39.62-.26,1-.71,1.14-1.35.14-.64.21-1.52.21-2.64v-10.86c0-2.4-.27-4.2-.81-5.4-.54-1.2-1.23-1.99-2.07-2.37s-1.72-.57-2.64-.57c-1.16,0-2.2.23-3.12.69-.92.46-1.75,1.01-2.49,1.65-.74.64-1.43,1.24-2.07,1.8l-.42-2.94h.9c1.64-1.44,3.19-2.64,4.65-3.6s3.13-1.44,5.01-1.44c2.72,0,4.74.92,6.06,2.76,1.32,1.84,1.98,4.48,1.98,7.92v12.36c0,1.12.09,2,.27,2.64.18.64.59,1.09,1.23,1.35.64.26,1.62.39,2.94.39v1.68Z"/>
  <path class="cls-1" d="m394.51,179.56c-1.2,0-2.09-.34-2.67-1.02-.58-.68-.87-1.52-.87-2.52s.32-1.93.96-2.67,1.52-1.11,2.64-1.11,2.06.38,2.7,1.14c.64.76.96,1.66.96,2.7,0,.92-.32,1.73-.96,2.43-.64.7-1.56,1.05-2.76,1.05Z"/>
</svg>