<?xml version="1.0" encoding="UTF-8"?>
<svg id="Laag_1" data-name="Laag 1" xmlns="http://www.w3.org/2000/svg" viewBox="0 0 414.14 257.86">
  <defs>
    <style>
      .cls-1 {
        fill: lime;
        stroke-width: 0px;
      }
    </style>
  </defs>
  <path class="cls-1" d="m20.66,43.08H3.38v-1.8c1.8,0,3.12-.15,3.96-.45s1.38-.88,1.62-1.74c.24-.86.36-2.15.36-3.87V11.58c0-1.56-.1-2.79-.3-3.69-.2-.9-.71-1.53-1.53-1.89-.82-.36-2.19-.54-4.11-.54v-1.8h17.28v1.8c-1.88,0-3.24.18-4.08.54-.84.36-1.35.99-1.53,1.89-.18.9-.27,2.13-.27,3.69v23.64c0,1.72.12,3.01.36,3.87.24.86.78,1.44,1.62,1.74s2.14.45,3.9.45v1.8Z"/>
  <path class="cls-1" d="m38.36,43.08h-13.68v-1.74c1.28,0,2.21-.11,2.79-.33.58-.22.96-.64,1.14-1.26s.27-1.53.27-2.73v-16.8c0-1.08-.21-1.8-.63-2.16-.42-.36-1.05-.54-1.89-.54-.44,0-.98.04-1.62.12v-1.74l7.5-1.74h1.44v5.52l.18,1.32v16.26c0,1.12.12,1.97.36,2.55.24.58.68.98,1.32,1.2.64.22,1.58.33,2.82.33v1.74Zm17.4,0h-14.22v-1.74c1.44,0,2.48-.14,3.12-.42.64-.28,1.05-.8,1.23-1.56.18-.76.27-1.84.27-3.24v-11.88c0-2.56-.45-4.27-1.35-5.13-.9-.86-2.05-1.29-3.45-1.29-1.12,0-2.17.24-3.15.72-.98.48-1.87,1.04-2.67,1.68-.8.64-1.48,1.24-2.04,1.8l-.48-3h.9c1.64-1.4,3.22-2.59,4.74-3.57s3.3-1.47,5.34-1.47c1.8,0,3.25.52,4.35,1.56,1.1,1.04,1.93,2.34,2.49,3.9.08.12.14.25.18.39.04.14.08.29.12.45v15.84c0,1.36.09,2.42.27,3.18.18.76.59,1.29,1.23,1.59.64.3,1.68.45,3.12.45v1.74Zm16.74,0h-13.56v-1.74c1.36,0,2.34-.18,2.94-.54.6-.36.97-.93,1.11-1.71.14-.78.21-1.77.21-2.97v-11.52c0-1.84-.23-3.24-.69-4.2-.46-.96-1.08-1.63-1.86-2.01-.78-.38-1.65-.57-2.61-.57-1.32,0-2.62.47-3.9,1.41-1.28.94-2.44,1.85-3.48,2.73l-.66-3h.9c1.64-1.64,3.24-2.88,4.8-3.72,1.56-.84,3.14-1.26,4.74-1.26,2.36,0,4.24.74,5.64,2.22s2.1,4.04,2.1,7.68v12.24c0,1.24.07,2.25.21,3.03.14.78.52,1.34,1.14,1.68s1.61.51,2.97.51v1.74Z"/>
  <path class="cls-1" d="m90.38,56.28h-15.18v-1.68c1.88,0,3.08-.31,3.6-.93.52-.62.78-1.77.78-3.45v-29.7c0-1.16-.13-1.96-.39-2.4-.26-.44-.89-.66-1.89-.66-.4,0-1.04.04-1.92.12v-1.74l7.56-1.68h1.5v5.04h.18c1.44-1.68,2.91-2.97,4.41-3.87,1.5-.9,3.13-1.35,4.89-1.35,2,0,3.75.57,5.25,1.71,1.5,1.14,2.68,2.72,3.54,4.74.86,2.02,1.29,4.35,1.29,6.99,0,3.4-.59,6.31-1.77,8.73-1.18,2.42-2.77,4.28-4.77,5.58-2,1.3-4.2,1.95-6.6,1.95-1.12,0-2.19-.13-3.21-.39-1.02-.26-1.97-.69-2.85-1.29h-.24v7.86c0,1.28.16,2.26.48,2.94.32.68.9,1.14,1.74,1.38.84.24,2.04.36,3.6.36v1.74Zm.78-14.94c2.12,0,3.88-1,5.28-3,1.4-2,2.1-5.08,2.1-9.24,0-3.8-.62-6.59-1.86-8.37-1.24-1.78-2.98-2.67-5.22-2.67-1.6,0-3.01.42-4.23,1.26-1.22.84-2.11,1.64-2.67,2.4v15.66c.4.4.9.92,1.5,1.56.6.64,1.32,1.2,2.16,1.68.84.48,1.82.72,2.94.72Z"/>
  <path class="cls-1" d="m115.52,43.5c-2.32,0-4.09-.64-5.31-1.92-1.22-1.28-1.83-2.88-1.83-4.8,0-1.6.37-2.95,1.11-4.05.74-1.1,1.72-2.03,2.94-2.79,1.22-.76,2.54-1.4,3.96-1.92,1.42-.52,2.81-.96,4.17-1.32,1.36-.36,2.56-.7,3.6-1.02v-2.64c0-2.6-.45-4.45-1.35-5.55-.9-1.1-2.25-1.65-4.05-1.65s-2.82.36-3.3,1.08c-.48.72-.72,1.98-.72,3.78,0,.92-.23,1.61-.69,2.07s-1.11.69-1.95.69c-.6,0-1.17-.23-1.71-.69-.54-.46-.81-1.19-.81-2.19,0-1.12.43-2.18,1.29-3.18.86-1,2.08-1.82,3.66-2.46,1.58-.64,3.45-.96,5.61-.96,3.28,0,5.6.76,6.96,2.28,1.36,1.52,2.04,3.84,2.04,6.96v13.62c0,1.24.14,2.04.42,2.4.28.36.74.54,1.38.54.56,0,1.07-.14,1.53-.42.46-.28.89-.64,1.29-1.08l.9.96c-1,1.44-1.95,2.49-2.85,3.15s-2.11.99-3.63.99c-1.4,0-2.31-.4-2.73-1.2-.42-.8-.73-1.94-.93-3.42l-.36-.72v-10.38c-1.8.44-3.5.96-5.1,1.56-1.6.6-2.9,1.38-3.9,2.34s-1.5,2.22-1.5,3.78.4,2.66,1.2,3.54c.8.88,1.84,1.32,3.12,1.32,1.04,0,2.13-.26,3.27-.78,1.14-.52,2.25-1.26,3.33-2.22l.48,2.16h-.72c-.92.8-1.81,1.52-2.67,2.16-.86.64-1.78,1.13-2.76,1.47-.98.34-2.11.51-3.39.51Z"/>
  <path class="cls-1" d="m159.38,34.2l1.14.84c-.76,1.6-1.63,3.06-2.61,4.38-.98,1.32-2.19,2.36-3.63,3.12-1.44.76-3.24,1.14-5.4,1.14-2.48,0-4.62-.6-6.42-1.8-1.8-1.2-3.18-2.87-4.14-5.01s-1.44-4.59-1.44-7.35c0-3.16.53-5.9,1.59-8.22,1.06-2.32,2.6-4.12,4.62-5.4,2.02-1.28,4.47-1.92,7.35-1.92s5.07.62,6.69,1.86c1.62,1.24,2.43,2.74,2.43,4.5,0,.88-.21,1.55-.63,2.01-.42.46-1.05.69-1.89.69s-1.55-.23-2.01-.69c-.46-.46-.83-1.03-1.11-1.71-.28-.68-.57-1.36-.87-2.04-.3-.68-.72-1.25-1.26-1.71-.54-.46-1.33-.69-2.37-.69-2.44,0-4.35.89-5.73,2.67-1.38,1.78-2.07,4.39-2.07,7.83,0,3.64.75,6.63,2.25,8.97s3.79,3.51,6.87,3.51c1.96,0,3.55-.4,4.77-1.2,1.22-.8,2.51-2.06,3.87-3.78Z"/>
  <path class="cls-1" d="m179.24,37.68l1.14.96c-.76,1.08-1.47,1.99-2.13,2.73s-1.39,1.31-2.19,1.71c-.8.4-1.84.6-3.12.6-2,0-3.46-.59-4.38-1.77-.92-1.18-1.38-3.11-1.38-5.79v-18.6h-3.3v-1.38c1.4-.88,2.61-2.07,3.63-3.57,1.02-1.5,2.07-3.53,3.15-6.09h1.5v8.52h6.78v2.52h-6.78v16.92c0,2.12.19,3.6.57,4.44.38.84,1.15,1.26,2.31,1.26.96,0,1.71-.2,2.25-.6.54-.4,1.19-1.02,1.95-1.86Z"/>
  <path class="cls-1" d="m210.26,43.08h-13.68v-1.74c1.28,0,2.21-.11,2.79-.33.58-.22.96-.64,1.14-1.26.18-.62.27-1.53.27-2.73v-16.8c0-1.08-.21-1.8-.63-2.16-.42-.36-1.05-.54-1.89-.54-.44,0-.98.04-1.62.12v-1.74l7.5-1.74h1.44v5.52l.18,1.32v16.26c0,1.12.12,1.97.36,2.55.24.58.68.98,1.32,1.2.64.22,1.58.33,2.82.33v1.74Zm17.4,0h-14.22v-1.74c1.44,0,2.48-.14,3.12-.42.64-.28,1.05-.8,1.23-1.56.18-.76.27-1.84.27-3.24v-11.88c0-2.56-.45-4.27-1.35-5.13-.9-.86-2.05-1.29-3.45-1.29-1.12,0-2.17.24-3.15.72-.98.48-1.87,1.04-2.67,1.68-.8.64-1.48,1.24-2.04,1.8l-.48-3h.9c1.64-1.4,3.22-2.59,4.74-3.57,1.52-.98,3.3-1.47,5.34-1.47,1.8,0,3.25.52,4.35,1.56,1.1,1.04,1.93,2.34,2.49,3.9.08.12.14.25.18.39.04.14.08.29.12.45v15.84c0,1.36.09,2.42.27,3.18.18.76.59,1.29,1.23,1.59.64.3,1.68.45,3.12.45v1.74Zm16.74,0h-13.56v-1.74c1.36,0,2.34-.18,2.94-.54.6-.36.97-.93,1.11-1.71.14-.78.21-1.77.21-2.97v-11.52c0-1.84-.23-3.24-.69-4.2-.46-.96-1.08-1.63-1.86-2.01-.78-.38-1.65-.57-2.61-.57-1.32,0-2.62.47-3.9,1.41-1.28.94-2.44,1.85-3.48,2.73l-.66-3h.9c1.64-1.64,3.24-2.88,4.8-3.72,1.56-.84,3.14-1.26,4.74-1.26,2.36,0,4.24.74,5.64,2.22,1.4,1.48,2.1,4.04,2.1,7.68v12.24c0,1.24.07,2.25.21,3.03.14.78.52,1.34,1.14,1.68s1.61.51,2.97.51v1.74Z"/>
  <path class="cls-1" d="m255.2,43.5c-2.32,0-4.09-.64-5.31-1.92-1.22-1.28-1.83-2.88-1.83-4.8,0-1.6.37-2.95,1.11-4.05.74-1.1,1.72-2.03,2.94-2.79,1.22-.76,2.54-1.4,3.96-1.92,1.42-.52,2.81-.96,4.17-1.32,1.36-.36,2.56-.7,3.6-1.02v-2.64c0-2.6-.45-4.45-1.35-5.55-.9-1.1-2.25-1.65-4.05-1.65s-2.82.36-3.3,1.08c-.48.72-.72,1.98-.72,3.78,0,.92-.23,1.61-.69,2.07s-1.11.69-1.95.69c-.6,0-1.17-.23-1.71-.69-.54-.46-.81-1.19-.81-2.19,0-1.12.43-2.18,1.29-3.18.86-1,2.08-1.82,3.66-2.46,1.58-.64,3.45-.96,5.61-.96,3.28,0,5.6.76,6.96,2.28,1.36,1.52,2.04,3.84,2.04,6.96v13.62c0,1.24.14,2.04.42,2.4.28.36.74.54,1.38.54.56,0,1.07-.14,1.53-.42.46-.28.89-.64,1.29-1.08l.9.96c-1,1.44-1.95,2.49-2.85,3.15s-2.11.99-3.63.99c-1.4,0-2.31-.4-2.73-1.2-.42-.8-.73-1.94-.93-3.42l-.36-.72v-10.38c-1.8.44-3.5.96-5.1,1.56-1.6.6-2.9,1.38-3.9,2.34s-1.5,2.22-1.5,3.78.4,2.66,1.2,3.54c.8.88,1.84,1.32,3.12,1.32,1.04,0,2.13-.26,3.27-.78,1.14-.52,2.25-1.26,3.33-2.22l.48,2.16h-.72c-.92.8-1.81,1.52-2.67,2.16-.86.64-1.78,1.13-2.76,1.47-.98.34-2.11.51-3.39.51Z"/>
  <path class="cls-1" d="m290,43.08h-13.62v-1.74c1.8,0,2.95-.25,3.45-.75s.75-1.57.75-3.21V7.38c0-1.28-.15-2.11-.45-2.49-.3-.38-.95-.57-1.95-.57-.4,0-1.08.04-2.04.12v-1.62l7.8-2.1h1.62v26.46h.36l7.74-7.68c.12-.12.33-.35.63-.69.3-.34.45-.75.45-1.23,0-.4-.2-.68-.6-.84s-1.18-.24-2.34-.24v-1.8h12.96v1.8c-.96,0-1.81.09-2.55.27-.74.18-1.49.52-2.25,1.02s-1.69,1.21-2.79,2.13c-1.1.92-2.49,2.12-4.17,3.6l-3,2.46,10.56,11.88c.96,1.08,1.75,1.87,2.37,2.37.62.5,1.23.81,1.83.93.6.12,1.32.18,2.16.18v1.74h-13.26v-1.74c.88,0,1.49-.05,1.83-.15.34-.1.51-.29.51-.57s-.07-.55-.21-.81c-.14-.26-.29-.47-.45-.63l-9.42-10.68h-.36v9.12c0,1.52.27,2.52.81,3,.54.48,1.75.72,3.63.72v1.74Z"/>
  <path class="cls-1" d="m320.42,43.68c-2.4,0-4.57-.57-6.51-1.71s-3.47-2.82-4.59-5.04-1.68-4.93-1.68-8.13c0-3.36.57-6.13,1.71-8.31,1.14-2.18,2.67-3.81,4.59-4.89s4.04-1.62,6.36-1.62c3.28,0,5.92,1.14,7.92,3.42,2,2.28,3.08,5.52,3.24,9.72h-19.5l-.06-2.22h13.92c-.04-1.48-.3-2.87-.78-4.17-.48-1.3-1.18-2.35-2.1-3.15-.92-.8-2.1-1.2-3.54-1.2-2.32,0-4.06.91-5.22,2.73-1.16,1.82-1.74,4.39-1.74,7.71,0,2.76.44,5.06,1.32,6.9.88,1.84,2.04,3.21,3.48,4.11,1.44.9,2.98,1.35,4.62,1.35s2.97-.22,3.99-.66c1.02-.44,1.89-1.01,2.61-1.71.72-.7,1.4-1.47,2.04-2.31l1.14.84c-.52,1.12-1.12,2.19-1.8,3.21-.68,1.02-1.45,1.91-2.31,2.67-.86.76-1.87,1.36-3.03,1.8-1.16.44-2.52.66-4.08.66Z"/>
  <path class="cls-1" d="m349.1,43.08h-13.74v-1.68c1.36,0,2.33-.13,2.91-.39.58-.26.94-.71,1.08-1.35.14-.64.21-1.52.21-2.64v-16.86c0-1.08-.22-1.79-.66-2.13-.44-.34-1.06-.51-1.86-.51-.52,0-1.06.04-1.62.12v-1.74l7.62-1.74h1.38l-.06,5.52.18,1.26v16.08c0,1.12.08,2,.24,2.64.16.64.56,1.09,1.2,1.35.64.26,1.68.39,3.12.39v1.68Zm17.64,0h-13.86v-1.68c1.44,0,2.47-.13,3.09-.39.62-.26,1-.71,1.14-1.35.14-.64.21-1.52.21-2.64v-10.86c0-2.4-.27-4.2-.81-5.4s-1.23-1.99-2.07-2.37c-.84-.38-1.72-.57-2.64-.57-1.16,0-2.2.23-3.12.69-.92.46-1.75,1.01-2.49,1.65-.74.64-1.43,1.24-2.07,1.8l-.42-2.94h.9c1.64-1.44,3.19-2.64,4.65-3.6s3.13-1.44,5.01-1.44c2.72,0,4.74.92,6.06,2.76s1.98,4.48,1.98,7.92v12.36c0,1.12.09,2,.27,2.64s.59,1.09,1.23,1.35c.64.26,1.62.39,2.94.39v1.68Z"/>
  <path class="cls-1" d="m372.2,51l-.72-1.5c.76-.32,1.52-.73,2.28-1.23s1.4-1.23,1.92-2.19.78-2.24.78-3.84c-.64.24-1.26.36-1.86.36-1.16,0-2-.32-2.52-.96-.52-.64-.78-1.4-.78-2.28,0-.96.32-1.79.96-2.49.64-.7,1.56-1.05,2.76-1.05,1,0,1.84.21,2.52.63.68.42,1.2,1.02,1.56,1.8.36.78.54,1.73.54,2.85,0,1.68-.27,3.1-.81,4.26s-1.21,2.1-2.01,2.82c-.8.72-1.62,1.3-2.46,1.74-.84.44-1.56.8-2.16,1.08Z"/>
  <path class="cls-1" d="m16.94,111.08H3.26v-1.74c1.28,0,2.21-.11,2.79-.33.58-.22.96-.64,1.14-1.26s.27-1.53.27-2.73v-16.8c0-1.08-.21-1.8-.63-2.16-.42-.36-1.05-.54-1.89-.54-.44,0-.98.04-1.62.12v-1.74l7.5-1.74h1.44v5.52l.18,1.32v16.26c0,1.12.12,1.97.36,2.55.24.58.68.98,1.32,1.2.64.22,1.58.33,2.82.33v1.74Zm17.4,0h-14.22v-1.74c1.44,0,2.48-.14,3.12-.42.64-.28,1.05-.8,1.23-1.56.18-.76.27-1.84.27-3.24v-11.88c0-2.56-.45-4.27-1.35-5.13-.9-.86-2.05-1.29-3.45-1.29-1.12,0-2.17.24-3.15.72-.98.48-1.87,1.04-2.67,1.68-.8.64-1.48,1.24-2.04,1.8l-.48-3h.9c1.64-1.4,3.22-2.59,4.74-3.57s3.3-1.47,5.34-1.47c1.8,0,3.25.52,4.35,1.56,1.1,1.04,1.93,2.34,2.49,3.9.08.12.14.25.18.39.04.14.08.29.12.45v15.84c0,1.36.09,2.42.27,3.18.18.76.59,1.29,1.23,1.59.64.3,1.68.45,3.12.45v1.74Zm16.74,0h-13.56v-1.74c1.36,0,2.34-.18,2.94-.54.6-.36.97-.93,1.11-1.71.14-.78.21-1.77.21-2.97v-11.52c0-1.84-.23-3.24-.69-4.2-.46-.96-1.08-1.63-1.86-2.01-.78-.38-1.65-.57-2.61-.57-1.32,0-2.62.47-3.9,1.41-1.28.94-2.44,1.85-3.48,2.73l-.66-3h.9c1.64-1.64,3.24-2.88,4.8-3.72,1.56-.84,3.14-1.26,4.74-1.26,2.36,0,4.24.74,5.64,2.22s2.1,4.04,2.1,7.68v12.24c0,1.24.07,2.25.21,3.03.14.78.52,1.34,1.14,1.68s1.61.51,2.97.51v1.74Z"/>
  <path class="cls-1" d="m67.28,111.68c-2.4,0-4.57-.57-6.51-1.71-1.94-1.14-3.47-2.82-4.59-5.04-1.12-2.22-1.68-4.93-1.68-8.13,0-3.36.57-6.13,1.71-8.31,1.14-2.18,2.67-3.81,4.59-4.89s4.04-1.62,6.36-1.62c3.28,0,5.92,1.14,7.92,3.42,2,2.28,3.08,5.52,3.24,9.72h-19.5l-.06-2.22h13.92c-.04-1.48-.3-2.87-.78-4.17-.48-1.3-1.18-2.35-2.1-3.15-.92-.8-2.1-1.2-3.54-1.2-2.32,0-4.06.91-5.22,2.73-1.16,1.82-1.74,4.39-1.74,7.71,0,2.76.44,5.06,1.32,6.9.88,1.84,2.04,3.21,3.48,4.11,1.44.9,2.98,1.35,4.62,1.35s2.97-.22,3.99-.66c1.02-.44,1.89-1.01,2.61-1.71.72-.7,1.4-1.47,2.04-2.31l1.14.84c-.52,1.12-1.12,2.19-1.8,3.21-.68,1.02-1.45,1.91-2.31,2.67-.86.76-1.87,1.36-3.03,1.8-1.16.44-2.52.66-4.08.66Z"/>
  <path class="cls-1" d="m95.96,111.08h-13.74v-1.68c1.36,0,2.33-.13,2.91-.39.58-.26.94-.71,1.08-1.35.14-.64.21-1.52.21-2.64v-16.86c0-1.08-.22-1.79-.66-2.13-.44-.34-1.06-.51-1.86-.51-.52,0-1.06.04-1.62.12v-1.74l7.62-1.74h1.38l-.06,5.52.18,1.26v16.08c0,1.12.08,2,.24,2.64.16.64.56,1.09,1.2,1.35.64.26,1.68.39,3.12.39v1.68Zm17.64,0h-13.86v-1.68c1.44,0,2.47-.13,3.09-.39.62-.26,1-.71,1.14-1.35.14-.64.21-1.52.21-2.64v-10.86c0-2.4-.27-4.2-.81-5.4s-1.23-1.99-2.07-2.37c-.84-.38-1.72-.57-2.64-.57-1.16,0-2.2.23-3.12.69-.92.46-1.75,1.01-2.49,1.65-.74.64-1.43,1.24-2.07,1.8l-.42-2.94h.9c1.64-1.44,3.19-2.64,4.65-3.6s3.13-1.44,5.01-1.44c2.72,0,4.74.92,6.06,2.76s1.98,4.48,1.98,7.92v12.36c0,1.12.09,2,.27,2.64s.59,1.09,1.23,1.35c.64.26,1.62.39,2.94.39v1.68Z"/>
  <path class="cls-1" d="m117.38,111.56l-.18-10.32h1.56c.64,3.08,1.58,5.23,2.82,6.45,1.24,1.22,2.96,1.83,5.16,1.83,1.52,0,2.76-.31,3.72-.93.96-.62,1.44-1.63,1.44-3.03,0-.96-.17-1.76-.51-2.4-.34-.64-.99-1.29-1.95-1.95s-2.38-1.45-4.26-2.37c-1.84-.92-3.34-1.81-4.5-2.67-1.16-.86-2.02-1.81-2.58-2.85-.56-1.04-.84-2.3-.84-3.78,0-2.48.89-4.36,2.67-5.64,1.78-1.28,3.95-1.92,6.51-1.92,1.52,0,2.76.17,3.72.51s1.82.69,2.58,1.05h.06l1.02-1.26h1.2l.18,9.18h-1.62c-.64-2.84-1.54-4.79-2.7-5.85-1.16-1.06-2.66-1.59-4.5-1.59-1.36,0-2.51.32-3.45.96-.94.64-1.41,1.64-1.41,3,0,1.16.54,2.2,1.62,3.12,1.08.92,2.88,2.02,5.4,3.3,1.84.96,3.38,1.89,4.62,2.79,1.24.9,2.18,1.88,2.82,2.94.64,1.06.96,2.33.96,3.81,0,1.88-.46,3.39-1.38,4.53-.92,1.14-2.15,1.97-3.69,2.49s-3.21.78-5.01.78-3.09-.18-4.11-.54c-1.02-.36-1.93-.7-2.73-1.02h-.12l-1.26,1.38h-1.26Z"/>
  <path class="cls-1" d="m153.38,111.68c-2.4,0-4.57-.57-6.51-1.71s-3.47-2.82-4.59-5.04-1.68-4.93-1.68-8.13c0-3.36.57-6.13,1.71-8.31,1.14-2.18,2.67-3.81,4.59-4.89s4.04-1.62,6.36-1.62c3.28,0,5.92,1.14,7.92,3.42,2,2.28,3.08,5.52,3.24,9.72h-19.5l-.06-2.22h13.92c-.04-1.48-.3-2.87-.78-4.17-.48-1.3-1.18-2.35-2.1-3.15-.92-.8-2.1-1.2-3.54-1.2-2.32,0-4.06.91-5.22,2.73-1.16,1.82-1.74,4.39-1.74,7.71,0,2.76.44,5.06,1.32,6.9.88,1.84,2.04,3.21,3.48,4.11,1.44.9,2.98,1.35,4.62,1.35s2.97-.22,3.99-.66c1.02-.44,1.89-1.01,2.61-1.71.72-.7,1.4-1.47,2.04-2.31l1.14.84c-.52,1.12-1.12,2.19-1.8,3.21-.68,1.02-1.45,1.91-2.31,2.67-.86.76-1.87,1.36-3.03,1.8-1.16.44-2.52.66-4.08.66Z"/>
  <path class="cls-1" d="m182.06,111.08h-13.74v-1.68c1.36,0,2.33-.13,2.91-.39.58-.26.94-.71,1.08-1.35.14-.64.21-1.52.21-2.64v-16.86c0-1.08-.22-1.79-.66-2.13-.44-.34-1.06-.51-1.86-.51-.52,0-1.06.04-1.62.12v-1.74l7.62-1.74h1.38l-.06,5.52.18,1.26v16.08c0,1.12.08,2,.24,2.64.16.64.56,1.09,1.2,1.35.64.26,1.68.39,3.12.39v1.68Zm17.64,0h-13.86v-1.68c1.44,0,2.47-.13,3.09-.39.62-.26,1-.71,1.14-1.35.14-.64.21-1.52.21-2.64v-10.86c0-2.4-.27-4.2-.81-5.4s-1.23-1.99-2.07-2.37c-.84-.38-1.72-.57-2.64-.57-1.16,0-2.2.23-3.12.69-.92.46-1.75,1.01-2.49,1.65-.74.64-1.43,1.24-2.07,1.8l-.42-2.94h.9c1.64-1.44,3.19-2.64,4.65-3.6s3.13-1.44,5.01-1.44c2.72,0,4.74.92,6.06,2.76s1.98,4.48,1.98,7.92v12.36c0,1.12.09,2,.27,2.64s.59,1.09,1.23,1.35c.64.26,1.62.39,2.94.39v1.68Z"/>
  <path class="cls-1" d="m231.8,111.08h-15v-1.74c1.32,0,2.29-.11,2.91-.33.62-.22,1.02-.62,1.2-1.2.18-.58.27-1.43.27-2.55v-16.5c0-1.08-.09-1.89-.27-2.43-.18-.54-.81-.81-1.89-.81-.6,0-1.22.04-1.86.12v-1.68l7.44-1.8h1.44v6.18h.18c1.04-1.48,1.96-2.7,2.76-3.66.8-.96,1.59-1.68,2.37-2.16.78-.48,1.65-.72,2.61-.72,1.16,0,2.03.3,2.61.9.58.6.87,1.42.87,2.46,0,1.12-.27,1.94-.81,2.46-.54.52-1.15.78-1.83.78-.64,0-1.21-.17-1.71-.51-.5-.34-.93-.68-1.29-1.02-.36-.34-.66-.51-.9-.51-.68,0-1.46.52-2.34,1.56-.88,1.04-1.68,2.16-2.4,3.36v13.68c0,1.24.16,2.18.48,2.82.32.64.89,1.06,1.71,1.26.82.2,1.97.3,3.45.3v1.74Z"/>
  <path class="cls-1" d="m246.38,111.5c-2.32,0-4.09-.64-5.31-1.92-1.22-1.28-1.83-2.88-1.83-4.8,0-1.6.37-2.95,1.11-4.05.74-1.1,1.72-2.03,2.94-2.79,1.22-.76,2.54-1.4,3.96-1.92,1.42-.52,2.81-.96,4.17-1.32,1.36-.36,2.56-.7,3.6-1.02v-2.64c0-2.6-.45-4.45-1.35-5.55-.9-1.1-2.25-1.65-4.05-1.65s-2.82.36-3.3,1.08c-.48.72-.72,1.98-.72,3.78,0,.92-.23,1.61-.69,2.07s-1.11.69-1.95.69c-.6,0-1.17-.23-1.71-.69-.54-.46-.81-1.19-.81-2.19,0-1.12.43-2.18,1.29-3.18.86-1,2.08-1.82,3.66-2.46,1.58-.64,3.45-.96,5.61-.96,3.28,0,5.6.76,6.96,2.28,1.36,1.52,2.04,3.84,2.04,6.96v13.62c0,1.24.14,2.04.42,2.4.28.36.74.54,1.38.54.56,0,1.07-.14,1.53-.42.46-.28.89-.64,1.29-1.08l.9.96c-1,1.44-1.95,2.49-2.85,3.15s-2.11.99-3.63.99c-1.4,0-2.31-.4-2.73-1.2-.42-.8-.73-1.94-.93-3.42l-.36-.72v-10.38c-1.8.44-3.5.96-5.1,1.56-1.6.6-2.9,1.38-3.9,2.34s-1.5,2.22-1.5,3.78.4,2.66,1.2,3.54c.8.88,1.84,1.32,3.12,1.32,1.04,0,2.13-.26,3.27-.78,1.14-.52,2.25-1.26,3.33-2.22l.48,2.16h-.72c-.92.8-1.81,1.52-2.67,2.16-.86.64-1.78,1.13-2.76,1.47-.98.34-2.11.51-3.39.51Z"/>
  <path class="cls-1" d="m281.18,111.08h-13.62v-1.74c1.8,0,2.95-.25,3.45-.75s.75-1.57.75-3.21v-30c0-1.28-.15-2.11-.45-2.49-.3-.38-.95-.57-1.95-.57-.4,0-1.08.04-2.04.12v-1.62l7.8-2.1h1.62v26.46h.36l7.74-7.68c.12-.12.33-.35.63-.69.3-.34.45-.75.45-1.23,0-.4-.2-.68-.6-.84s-1.18-.24-2.34-.24v-1.8h12.96v1.8c-.96,0-1.81.09-2.55.27-.74.18-1.49.52-2.25,1.02s-1.69,1.21-2.79,2.13c-1.1.92-2.49,2.12-4.17,3.6l-3,2.46,10.56,11.88c.96,1.08,1.75,1.87,2.37,2.37.62.5,1.23.81,1.83.93.6.12,1.32.18,2.16.18v1.74h-13.26v-1.74c.88,0,1.49-.05,1.83-.15.34-.1.51-.29.51-.57s-.07-.55-.21-.81c-.14-.26-.29-.47-.45-.63l-9.42-10.68h-.36v9.12c0,1.52.27,2.52.81,3,.54.48,1.75.72,3.63.72v1.74Z"/>
  <path class="cls-1" d="m311.6,111.68c-2.4,0-4.57-.57-6.51-1.71s-3.47-2.82-4.59-5.04-1.68-4.93-1.68-8.13c0-3.36.57-6.13,1.71-8.31,1.14-2.18,2.67-3.81,4.59-4.89s4.04-1.62,6.36-1.62c3.28,0,5.92,1.14,7.92,3.42,2,2.28,3.08,5.52,3.24,9.72h-19.5l-.06-2.22h13.92c-.04-1.48-.3-2.87-.78-4.17-.48-1.3-1.18-2.35-2.1-3.15-.92-.8-2.1-1.2-3.54-1.2-2.32,0-4.06.91-5.22,2.73-1.16,1.82-1.74,4.39-1.74,7.71,0,2.76.44,5.06,1.32,6.9.88,1.84,2.04,3.21,3.48,4.11,1.44.9,2.98,1.35,4.62,1.35s2.97-.22,3.99-.66c1.02-.44,1.89-1.01,2.61-1.71.72-.7,1.4-1.47,2.04-2.31l1.14.84c-.52,1.12-1.12,2.19-1.8,3.21-.68,1.02-1.45,1.91-2.31,2.67-.86.76-1.87,1.36-3.03,1.8-1.16.44-2.52.66-4.08.66Z"/>
  <path class="cls-1" d="m340.27,111.08h-13.74v-1.68c1.36,0,2.33-.13,2.91-.39.58-.26.94-.71,1.08-1.35.14-.64.21-1.52.21-2.64v-16.86c0-1.08-.22-1.79-.66-2.13-.44-.34-1.06-.51-1.86-.51-.52,0-1.06.04-1.62.12v-1.74l7.62-1.74h1.38l-.06,5.52.18,1.26v16.08c0,1.12.08,2,.24,2.64.16.64.56,1.09,1.2,1.35.64.26,1.68.39,3.12.39v1.68Zm17.64,0h-13.86v-1.68c1.44,0,2.47-.13,3.09-.39.62-.26,1-.71,1.14-1.35.14-.64.21-1.52.21-2.64v-10.86c0-2.4-.27-4.2-.81-5.4s-1.23-1.99-2.07-2.37c-.84-.38-1.72-.57-2.64-.57-1.16,0-2.2.23-3.12.69-.92.46-1.75,1.01-2.49,1.65-.74.64-1.43,1.24-2.07,1.8l-.42-2.94h.9c1.64-1.44,3.19-2.64,4.65-3.6s3.13-1.44,5.01-1.44c2.72,0,4.74.92,6.06,2.76s1.98,4.48,1.98,7.92v12.36c0,1.12.09,2,.27,2.64s.59,1.09,1.23,1.35c.64.26,1.62.39,2.94.39v1.68Z"/>
  <path class="cls-1" d="m363.37,119l-.72-1.5c.76-.32,1.52-.73,2.28-1.23s1.4-1.23,1.92-2.19.78-2.24.78-3.84c-.64.24-1.26.36-1.86.36-1.16,0-2-.32-2.52-.96-.52-.64-.78-1.4-.78-2.28,0-.96.32-1.79.96-2.49.64-.7,1.56-1.05,2.76-1.05,1,0,1.84.21,2.52.63.68.42,1.2,1.02,1.56,1.8.36.78.54,1.73.54,2.85,0,1.68-.27,3.1-.81,4.26s-1.21,2.1-2.01,2.82c-.8.72-1.62,1.3-2.46,1.74-.84.44-1.56.8-2.16,1.08Z"/>
  <path class="cls-1" d="m17.24,179.44h-2.88l-8.94-22.62c-.52-1.24-.98-2.17-1.38-2.79-.4-.62-.86-1.04-1.38-1.26-.52-.22-1.22-.33-2.1-.33v-1.74h12.66v1.74c-1.16,0-1.97.13-2.43.39-.46.26-.69.63-.69,1.11,0,.4.06.78.18,1.14.12.36.26.76.42,1.2l5.1,13.38,1.14,3.6h.36l1.26-3.66,5.16-13.56c.04-.16.12-.41.24-.75s.18-.75.18-1.23c0-.68-.3-1.12-.9-1.32-.6-.2-1.44-.3-2.52-.3v-1.74h10.5v1.74c-1.16,0-2.05.27-2.67.81-.62.54-1.23,1.59-1.83,3.15l-9.48,23.04Z"/>
  <path class="cls-1" d="m44.72,179.68c-2.4,0-4.57-.57-6.51-1.71-1.94-1.14-3.47-2.82-4.59-5.04-1.12-2.22-1.68-4.93-1.68-8.13,0-3.36.57-6.13,1.71-8.31,1.14-2.18,2.67-3.81,4.59-4.89s4.04-1.62,6.36-1.62c3.28,0,5.92,1.14,7.92,3.42,2,2.28,3.08,5.52,3.24,9.72h-19.5l-.06-2.22h13.92c-.04-1.48-.3-2.87-.78-4.17-.48-1.3-1.18-2.35-2.1-3.15-.92-.8-2.1-1.2-3.54-1.2-2.32,0-4.06.91-5.22,2.73-1.16,1.82-1.74,4.39-1.74,7.71,0,2.76.44,5.06,1.32,6.9.88,1.84,2.04,3.21,3.48,4.11,1.44.9,2.98,1.35,4.62,1.35s2.97-.22,3.99-.66c1.02-.44,1.89-1.01,2.61-1.71.72-.7,1.4-1.47,2.04-2.31l1.14.84c-.52,1.12-1.12,2.19-1.8,3.21-.68,1.02-1.45,1.91-2.31,2.67-.86.76-1.87,1.36-3.03,1.8-1.16.44-2.52.66-4.08.66Z"/>
  <path class="cls-1" d="m74.48,179.08h-15v-1.74c1.32,0,2.29-.11,2.91-.33.62-.22,1.02-.62,1.2-1.2.18-.58.27-1.43.27-2.55v-16.5c0-1.08-.09-1.89-.27-2.43s-.81-.81-1.89-.81c-.6,0-1.22.04-1.86.12v-1.68l7.44-1.8h1.44v6.18h.18c1.04-1.48,1.96-2.7,2.76-3.66.8-.96,1.59-1.68,2.37-2.16.78-.48,1.65-.72,2.61-.72,1.16,0,2.03.3,2.61.9.58.6.87,1.42.87,2.46,0,1.12-.27,1.94-.81,2.46-.54.52-1.15.78-1.83.78-.64,0-1.21-.17-1.71-.51-.5-.34-.93-.68-1.29-1.02-.36-.34-.66-.51-.9-.51-.68,0-1.46.52-2.34,1.56-.88,1.04-1.68,2.16-2.4,3.36v13.68c0,1.24.16,2.18.48,2.82.32.64.89,1.06,1.71,1.26.82.2,1.97.3,3.45.3v1.74Z"/>
  <path class="cls-1" d="m96.38,179.44h-2.76l-9-22.62c-.52-1.24-1-2.17-1.44-2.79-.44-.62-.94-1.04-1.5-1.26-.56-.22-1.28-.33-2.16-.33v-1.74h12.9v1.74c-1.2,0-2.03.13-2.49.39-.46.26-.69.63-.69,1.11,0,.4.07.78.21,1.14.14.36.29.76.45,1.2l5.22,13.26,1.08,3.48h.42l1.26-3.48,4.56-11.52,1.98,3.96h-1.02l-7.02,17.46Zm16.5,0h-2.88l-6.66-18.3-.84-1.68-.96-2.64c-.48-1.32-.93-2.29-1.35-2.91s-.91-1.02-1.47-1.2c-.56-.18-1.28-.27-2.16-.27v-1.74h12.54v1.74c-1.12,0-1.9.13-2.34.39-.44.26-.66.63-.66,1.11,0,.36.05.75.15,1.17.1.42.23.85.39,1.29l4.86,13.14,1.08,3.48h.36l1.2-3.48,4.74-13.44c.04-.16.11-.43.21-.81.1-.38.15-.83.15-1.35,0-.56-.28-.95-.84-1.17-.56-.22-1.4-.33-2.52-.33v-1.74h10.38v1.74c-1.16,0-2.04.27-2.64.81s-1.2,1.59-1.8,3.15l-8.94,23.04Z"/>
  <path class="cls-1" d="m140.66,179.68c-4.2,0-7.49-1.31-9.87-3.93-2.38-2.62-3.57-6.35-3.57-11.19,0-2.92.56-5.47,1.68-7.65,1.12-2.18,2.69-3.88,4.71-5.1,2.02-1.22,4.37-1.83,7.05-1.83,4.12,0,7.37,1.28,9.75,3.84,2.38,2.56,3.57,6.06,3.57,10.5,0,3.36-.57,6.18-1.71,8.46-1.14,2.28-2.71,4-4.71,5.16-2,1.16-4.3,1.74-6.9,1.74Zm.24-2.4c1.64,0,3.02-.38,4.14-1.14,1.12-.76,1.97-2.06,2.55-3.9.58-1.84.87-4.38.87-7.62,0-3.68-.67-6.66-2.01-8.94s-3.35-3.42-6.03-3.42c-2.28,0-4.12.96-5.52,2.88s-2.1,4.8-2.1,8.64c0,4.76.71,8.21,2.13,10.35,1.42,2.14,3.41,3.19,5.97,3.15Z"/>
  <path class="cls-1" d="m171.68,179.08h-13.74v-1.68c1.36,0,2.33-.13,2.91-.39.58-.26.94-.71,1.08-1.35.14-.64.21-1.52.21-2.64v-16.86c0-1.08-.22-1.79-.66-2.13-.44-.34-1.06-.51-1.86-.51-.52,0-1.06.04-1.62.12v-1.74l7.62-1.74h1.38l-.06,5.52.18,1.26v16.08c0,1.12.08,2,.24,2.64.16.64.56,1.09,1.2,1.35.64.26,1.68.39,3.12.39v1.68Zm17.64,0h-13.86v-1.68c1.44,0,2.47-.13,3.09-.39.62-.26,1-.71,1.14-1.35.14-.64.21-1.52.21-2.64v-10.86c0-2.4-.27-4.2-.81-5.4s-1.23-1.99-2.07-2.37c-.84-.38-1.72-.57-2.64-.57-1.16,0-2.2.23-3.12.69-.92.46-1.75,1.01-2.49,1.65-.74.64-1.43,1.24-2.07,1.8l-.42-2.94h.9c1.64-1.44,3.19-2.64,4.65-3.6s3.13-1.44,5.01-1.44c2.72,0,4.74.92,6.06,2.76s1.98,4.48,1.98,7.92v12.36c0,1.12.09,2,.27,2.64s.59,1.09,1.23,1.35c.64.26,1.62.39,2.94.39v1.68Z"/>
  <path class="cls-1" d="m202.82,179.56c-2.24,0-4.13-.6-5.67-1.8-1.54-1.2-2.69-2.83-3.45-4.89-.76-2.06-1.14-4.37-1.14-6.93,0-3.32.62-6.17,1.86-8.55,1.24-2.38,2.91-4.21,5.01-5.49,2.1-1.28,4.41-1.92,6.93-1.92.96,0,1.91.12,2.85.36.94.24,1.85.6,2.73,1.08h.24v-7.86c0-1.32-.15-2.18-.45-2.58-.3-.4-1.03-.6-2.19-.6-.28,0-.8.04-1.56.12v-1.68l7.56-2.1h1.62v35.94c0,1.56.22,2.57.66,3.03.44.46,1.22.69,2.34.69h1.26v1.62l-7.68,1.38h-1.38v-4.14h-.24c-1.12,1-2.45,1.97-3.99,2.91-1.54.94-3.31,1.41-5.31,1.41Zm2.82-4.32c1.4,0,2.58-.19,3.54-.57.96-.38,1.96-.93,3-1.65v-15.84c-.24-1.24-.82-2.35-1.74-3.33-.92-.98-2.32-1.47-4.2-1.47-2.52,0-4.56.92-6.12,2.76-1.56,1.84-2.34,4.66-2.34,8.46,0,4.12.67,7.09,2.01,8.91,1.34,1.82,3.29,2.73,5.85,2.73Z"/>
  <path class="cls-1" d="m237.74,179.68c-2.4,0-4.57-.57-6.51-1.71s-3.47-2.82-4.59-5.04-1.68-4.93-1.68-8.13c0-3.36.57-6.13,1.71-8.31,1.14-2.18,2.67-3.81,4.59-4.89s4.04-1.62,6.36-1.62c3.28,0,5.92,1.14,7.92,3.42,2,2.28,3.08,5.52,3.24,9.72h-19.5l-.06-2.22h13.92c-.04-1.48-.3-2.87-.78-4.17-.48-1.3-1.18-2.35-2.1-3.15-.92-.8-2.1-1.2-3.54-1.2-2.32,0-4.06.91-5.22,2.73-1.16,1.82-1.74,4.39-1.74,7.71,0,2.76.44,5.06,1.32,6.9.88,1.84,2.04,3.21,3.48,4.11,1.44.9,2.98,1.35,4.62,1.35s2.97-.22,3.99-.66c1.02-.44,1.89-1.01,2.61-1.71.72-.7,1.4-1.47,2.04-2.31l1.14.84c-.52,1.12-1.12,2.19-1.8,3.21-.68,1.02-1.45,1.91-2.31,2.67-.86.76-1.87,1.36-3.03,1.8-1.16.44-2.52.66-4.08.66Z"/>
  <path class="cls-1" d="m267.5,179.08h-15v-1.74c1.32,0,2.29-.11,2.91-.33.62-.22,1.02-.62,1.2-1.2.18-.58.27-1.43.27-2.55v-16.5c0-1.08-.09-1.89-.27-2.43-.18-.54-.81-.81-1.89-.81-.6,0-1.22.04-1.86.12v-1.68l7.44-1.8h1.44v6.18h.18c1.04-1.48,1.96-2.7,2.76-3.66.8-.96,1.59-1.68,2.37-2.16.78-.48,1.65-.72,2.61-.72,1.16,0,2.03.3,2.61.9.58.6.87,1.42.87,2.46,0,1.12-.27,1.94-.81,2.46-.54.52-1.15.78-1.83.78-.64,0-1.21-.17-1.71-.51-.5-.34-.93-.68-1.29-1.02-.36-.34-.66-.51-.9-.51-.68,0-1.46.52-2.34,1.56-.88,1.04-1.68,2.16-2.4,3.36v13.68c0,1.24.16,2.18.48,2.82.32.64.89,1.06,1.71,1.26.82.2,1.97.3,3.45.3v1.74Z"/>
  <path class="cls-1" d="m287.78,179.68c-2.4,0-4.57-.57-6.51-1.71s-3.47-2.82-4.59-5.04-1.68-4.93-1.68-8.13c0-3.36.57-6.13,1.71-8.31,1.14-2.18,2.67-3.81,4.59-4.89s4.04-1.62,6.36-1.62c3.28,0,5.92,1.14,7.92,3.42,2,2.28,3.08,5.52,3.24,9.72h-19.5l-.06-2.22h13.92c-.04-1.48-.3-2.87-.78-4.17-.48-1.3-1.18-2.35-2.1-3.15-.92-.8-2.1-1.2-3.54-1.2-2.32,0-4.06.91-5.22,2.73-1.16,1.82-1.74,4.39-1.74,7.71,0,2.76.44,5.06,1.32,6.9.88,1.84,2.04,3.21,3.48,4.11,1.44.9,2.98,1.35,4.62,1.35s2.97-.22,3.99-.66c1.02-.44,1.89-1.01,2.61-1.71.72-.7,1.4-1.47,2.04-2.31l1.14.84c-.52,1.12-1.12,2.19-1.8,3.21-.68,1.02-1.45,1.91-2.31,2.67-.86.76-1.87,1.36-3.03,1.8-1.16.44-2.52.66-4.08.66Z"/>
  <path class="cls-1" d="m316.46,179.08h-13.74v-1.68c1.36,0,2.33-.13,2.91-.39.58-.26.94-.71,1.08-1.35.14-.64.21-1.52.21-2.64v-16.86c0-1.08-.22-1.79-.66-2.13-.44-.34-1.06-.51-1.86-.51-.52,0-1.06.04-1.62.12v-1.74l7.62-1.74h1.38l-.06,5.52.18,1.26v16.08c0,1.12.08,2,.24,2.64.16.64.56,1.09,1.2,1.35.64.26,1.68.39,3.12.39v1.68Zm17.64,0h-13.86v-1.68c1.44,0,2.47-.13,3.09-.39.62-.26,1-.71,1.14-1.35.14-.64.21-1.52.21-2.64v-10.86c0-2.4-.27-4.2-.81-5.4s-1.23-1.99-2.07-2.37c-.84-.38-1.72-.57-2.64-.57-1.16,0-2.2.23-3.12.69-.92.46-1.75,1.01-2.49,1.65-.74.64-1.43,1.24-2.07,1.8l-.42-2.94h.9c1.64-1.44,3.19-2.64,4.65-3.6s3.13-1.44,5.01-1.44c2.72,0,4.74.92,6.06,2.76s1.98,4.48,1.98,7.92v12.36c0,1.12.09,2,.27,2.64s.59,1.09,1.23,1.35c.64.26,1.62.39,2.94.39v1.68Z"/>
  <path class="cls-1" d="m16.16,247.68c-2.4,0-4.57-.57-6.51-1.71-1.94-1.14-3.47-2.82-4.59-5.04-1.12-2.22-1.68-4.93-1.68-8.13,0-3.36.57-6.13,1.71-8.31,1.14-2.18,2.67-3.81,4.59-4.89s4.04-1.62,6.36-1.62c3.28,0,5.92,1.14,7.92,3.42,2,2.28,3.08,5.52,3.24,9.72H7.7l-.06-2.22h13.92c-.04-1.48-.3-2.87-.78-4.17-.48-1.3-1.18-2.35-2.1-3.15-.92-.8-2.1-1.2-3.54-1.2-2.32,0-4.06.91-5.22,2.73-1.16,1.82-1.74,4.39-1.74,7.71,0,2.76.44,5.06,1.32,6.9.88,1.84,2.04,3.21,3.48,4.11,1.44.9,2.98,1.35,4.62,1.35s2.97-.22,3.99-.66c1.02-.44,1.89-1.01,2.61-1.71.72-.7,1.4-1.47,2.04-2.31l1.14.84c-.52,1.12-1.12,2.19-1.8,3.21-.68,1.02-1.45,1.91-2.31,2.67-.86.76-1.87,1.36-3.03,1.8-1.16.44-2.52.66-4.08.66Z"/>
  <path class="cls-1" d="m44.84,247.08h-13.74v-1.68c1.36,0,2.33-.13,2.91-.39.58-.26.94-.71,1.08-1.35.14-.64.21-1.52.21-2.64v-16.86c0-1.08-.22-1.79-.66-2.13s-1.06-.51-1.86-.51c-.52,0-1.06.04-1.62.12v-1.74l7.62-1.74h1.38l-.06,5.52.18,1.26v16.08c0,1.12.08,2,.24,2.64s.56,1.09,1.2,1.35c.64.26,1.68.39,3.12.39v1.68Zm17.64,0h-13.86v-1.68c1.44,0,2.47-.13,3.09-.39.62-.26,1-.71,1.14-1.35.14-.64.21-1.52.21-2.64v-10.86c0-2.4-.27-4.2-.81-5.4s-1.23-1.99-2.07-2.37c-.84-.38-1.72-.57-2.64-.57-1.16,0-2.2.23-3.12.69-.92.46-1.75,1.01-2.49,1.65s-1.43,1.24-2.07,1.8l-.42-2.94h.9c1.64-1.44,3.19-2.64,4.65-3.6,1.46-.96,3.13-1.44,5.01-1.44,2.72,0,4.74.92,6.06,2.76,1.32,1.84,1.98,4.48,1.98,7.92v12.36c0,1.12.09,2,.27,2.64.18.64.59,1.09,1.23,1.35.64.26,1.62.39,2.94.39v1.68Z"/>
  <path class="cls-1" d="m93.74,247.44h-2.88l-8.94-22.62c-.52-1.24-.98-2.17-1.38-2.79-.4-.62-.86-1.04-1.38-1.26-.52-.22-1.22-.33-2.1-.33v-1.74h12.66v1.74c-1.16,0-1.97.13-2.43.39-.46.26-.69.63-.69,1.11,0,.4.06.78.18,1.14.12.36.26.76.42,1.2l5.1,13.38,1.14,3.6h.36l1.26-3.66,5.16-13.56c.04-.16.12-.41.24-.75s.18-.75.18-1.23c0-.68-.3-1.12-.9-1.32-.6-.2-1.44-.3-2.52-.3v-1.74h10.5v1.74c-1.16,0-2.05.27-2.67.81s-1.23,1.59-1.83,3.15l-9.48,23.04Z"/>
  <path class="cls-1" d="m121.22,247.68c-2.4,0-4.57-.57-6.51-1.71s-3.47-2.82-4.59-5.04-1.68-4.93-1.68-8.13c0-3.36.57-6.13,1.71-8.31,1.14-2.18,2.67-3.81,4.59-4.89s4.04-1.62,6.36-1.62c3.28,0,5.92,1.14,7.92,3.42,2,2.28,3.08,5.52,3.24,9.72h-19.5l-.06-2.22h13.92c-.04-1.48-.3-2.87-.78-4.17-.48-1.3-1.18-2.35-2.1-3.15-.92-.8-2.1-1.2-3.54-1.2-2.32,0-4.06.91-5.22,2.73-1.16,1.82-1.74,4.39-1.74,7.71,0,2.76.44,5.06,1.32,6.9.88,1.84,2.04,3.21,3.48,4.11,1.44.9,2.98,1.35,4.62,1.35s2.97-.22,3.99-.66c1.02-.44,1.89-1.01,2.61-1.71.72-.7,1.4-1.47,2.04-2.31l1.14.84c-.52,1.12-1.12,2.19-1.8,3.21-.68,1.02-1.45,1.91-2.31,2.67-.86.76-1.87,1.36-3.03,1.8-1.16.44-2.52.66-4.08.66Z"/>
  <path class="cls-1" d="m150.98,247.08h-15v-1.74c1.32,0,2.29-.11,2.91-.33.62-.22,1.02-.62,1.2-1.2.18-.58.27-1.43.27-2.55v-16.5c0-1.08-.09-1.89-.27-2.43-.18-.54-.81-.81-1.89-.81-.6,0-1.22.04-1.86.12v-1.68l7.44-1.8h1.44v6.18h.18c1.04-1.48,1.96-2.7,2.76-3.66.8-.96,1.59-1.68,2.37-2.16.78-.48,1.65-.72,2.61-.72,1.16,0,2.03.3,2.61.9.58.6.87,1.42.87,2.46,0,1.12-.27,1.94-.81,2.46-.54.52-1.15.78-1.83.78-.64,0-1.21-.17-1.71-.51-.5-.34-.93-.68-1.29-1.02-.36-.34-.66-.51-.9-.51-.68,0-1.46.52-2.34,1.56-.88,1.04-1.68,2.16-2.4,3.36v13.68c0,1.24.16,2.18.48,2.82.32.64.89,1.06,1.71,1.26.82.2,1.97.3,3.45.3v1.74Z"/>
  <path class="cls-1" d="m172.64,247.08h-13.8v-1.74c1.32,0,2.28-.13,2.88-.39.6-.26.97-.7,1.11-1.32.14-.62.21-1.49.21-2.61v-30.12c0-1.24-.23-1.98-.69-2.22s-1.07-.36-1.83-.36c-.52,0-1.16.04-1.92.12v-1.62l7.92-2.1h1.5v36.3c0,1.16.09,2.05.27,2.67.18.62.59,1.05,1.23,1.29.64.24,1.68.36,3.12.36v1.74Z"/>
  <path class="cls-1" d="m188.84,247.68c-2.4,0-4.57-.57-6.51-1.71s-3.47-2.82-4.59-5.04-1.68-4.93-1.68-8.13c0-3.36.57-6.13,1.71-8.31,1.14-2.18,2.67-3.81,4.59-4.89s4.04-1.62,6.36-1.62c3.28,0,5.92,1.14,7.92,3.42,2,2.28,3.08,5.52,3.24,9.72h-19.5l-.06-2.22h13.92c-.04-1.48-.3-2.87-.78-4.17-.48-1.3-1.18-2.35-2.1-3.15-.92-.8-2.1-1.2-3.54-1.2-2.32,0-4.06.91-5.22,2.73-1.16,1.82-1.74,4.39-1.74,7.71,0,2.76.44,5.06,1.32,6.9.88,1.84,2.04,3.21,3.48,4.11,1.44.9,2.98,1.35,4.62,1.35s2.97-.22,3.99-.66c1.02-.44,1.89-1.01,2.61-1.71.72-.7,1.4-1.47,2.04-2.31l1.14.84c-.52,1.12-1.12,2.19-1.8,3.21-.68,1.02-1.45,1.91-2.31,2.67-.86.76-1.87,1.36-3.03,1.8-1.16.44-2.52.66-4.08.66Z"/>
  <path class="cls-1" d="m217.28,247.08h-13.5v-1.68c1.36,0,2.33-.13,2.91-.39.58-.26.94-.71,1.08-1.35.14-.64.21-1.52.21-2.64v-16.74c0-1.28-.22-2.07-.66-2.37-.44-.3-1.1-.45-1.98-.45-.4,0-.9.04-1.5.12v-1.74l7.56-1.68h1.56v22.86c0,1.16.08,2.06.24,2.7.16.64.55,1.08,1.17,1.32s1.59.36,2.91.36v1.68Zm-6.72-33.6c-1,0-1.82-.34-2.46-1.02-.64-.68-.96-1.48-.96-2.4s.31-1.71.93-2.37c.62-.66,1.45-.99,2.49-.99s1.87.33,2.49.99c.62.66.93,1.45.93,2.37s-.31,1.72-.93,2.4c-.62.68-1.45,1.02-2.49,1.02Z"/>
  <path class="cls-1" d="m231.2,247.56c-2.24,0-4.13-.6-5.67-1.8-1.54-1.2-2.69-2.83-3.45-4.89-.76-2.06-1.14-4.37-1.14-6.93,0-3.32.62-6.17,1.86-8.55,1.24-2.38,2.91-4.21,5.01-5.49,2.1-1.28,4.41-1.92,6.93-1.92.96,0,1.91.12,2.85.36.94.24,1.85.6,2.73,1.08h.24v-7.86c0-1.32-.15-2.18-.45-2.58-.3-.4-1.03-.6-2.19-.6-.28,0-.8.04-1.56.12v-1.68l7.56-2.1h1.62v35.94c0,1.56.22,2.57.66,3.03.44.46,1.22.69,2.34.69h1.26v1.62l-7.68,1.38h-1.38v-4.14h-.24c-1.12,1-2.45,1.97-3.99,2.91-1.54.94-3.31,1.41-5.31,1.41Zm2.82-4.32c1.4,0,2.58-.19,3.54-.57.96-.38,1.96-.93,3-1.65v-15.84c-.24-1.24-.82-2.35-1.74-3.33-.92-.98-2.32-1.47-4.2-1.47-2.52,0-4.56.92-6.12,2.76-1.56,1.84-2.34,4.66-2.34,8.46,0,4.12.67,7.09,2.01,8.91,1.34,1.82,3.29,2.73,5.85,2.73Z"/>
  <path class="cls-1" d="m266.11,247.68c-2.4,0-4.57-.57-6.51-1.71s-3.47-2.82-4.59-5.04-1.68-4.93-1.68-8.13c0-3.36.57-6.13,1.71-8.31,1.14-2.18,2.67-3.81,4.59-4.89s4.04-1.62,6.36-1.62c3.28,0,5.92,1.14,7.92,3.42,2,2.28,3.08,5.52,3.24,9.72h-19.5l-.06-2.22h13.92c-.04-1.48-.3-2.87-.78-4.17-.48-1.3-1.18-2.35-2.1-3.15-.92-.8-2.1-1.2-3.54-1.2-2.32,0-4.06.91-5.22,2.73-1.16,1.82-1.74,4.39-1.74,7.71,0,2.76.44,5.06,1.32,6.9.88,1.84,2.04,3.21,3.48,4.11,1.44.9,2.98,1.35,4.62,1.35s2.97-.22,3.99-.66c1.02-.44,1.89-1.01,2.61-1.71.72-.7,1.4-1.47,2.04-2.31l1.14.84c-.52,1.12-1.12,2.19-1.8,3.21-.68,1.02-1.45,1.91-2.31,2.67-.86.76-1.87,1.36-3.03,1.8-1.16.44-2.52.66-4.08.66Z"/>
  <path class="cls-1" d="m294.79,247.08h-13.74v-1.68c1.36,0,2.33-.13,2.91-.39.58-.26.94-.71,1.08-1.35.14-.64.21-1.52.21-2.64v-16.86c0-1.08-.22-1.79-.66-2.13-.44-.34-1.06-.51-1.86-.51-.52,0-1.06.04-1.62.12v-1.74l7.62-1.74h1.38l-.06,5.52.18,1.26v16.08c0,1.12.08,2,.24,2.64.16.64.56,1.09,1.2,1.35.64.26,1.68.39,3.12.39v1.68Zm17.64,0h-13.86v-1.68c1.44,0,2.47-.13,3.09-.39.62-.26,1-.71,1.14-1.35.14-.64.21-1.52.21-2.64v-10.86c0-2.4-.27-4.2-.81-5.4s-1.23-1.99-2.07-2.37c-.84-.38-1.72-.57-2.64-.57-1.16,0-2.2.23-3.12.69-.92.46-1.75,1.01-2.49,1.65-.74.64-1.43,1.24-2.07,1.8l-.42-2.94h.9c1.64-1.44,3.19-2.64,4.65-3.6s3.13-1.44,5.01-1.44c2.72,0,4.74.92,6.06,2.76s1.98,4.48,1.98,7.92v12.36c0,1.12.09,2,.27,2.64s.59,1.09,1.23,1.35c.64.26,1.62.39,2.94.39v1.68Z"/>
  <path class="cls-1" d="m320.95,247.56c-1.2,0-2.09-.34-2.67-1.02-.58-.68-.87-1.52-.87-2.52s.32-1.93.96-2.67c.64-.74,1.52-1.11,2.64-1.11s2.06.38,2.7,1.14c.64.76.96,1.66.96,2.7,0,.92-.32,1.73-.96,2.43s-1.56,1.05-2.76,1.05Z"/>
</svg>