<?xml version="1.0" encoding="UTF-8"?>
<svg id="Laag_1" data-name="Laag 1" xmlns="http://www.w3.org/2000/svg" viewBox="0 0 414.14 257.86">
  <defs>
    <style>
      .cls-1 {
        fill: lime;
        stroke-width: 0px;
      }
    </style>
  </defs>
  <path class="cls-1" d="m35.54,43.08H3.5v-1.8c1.64,0,2.87-.11,3.69-.33.82-.22,1.38-.71,1.68-1.47.3-.76.45-1.92.45-3.48V10.98c0-1.52-.15-2.68-.45-3.48-.3-.8-.86-1.34-1.68-1.62-.82-.28-2.05-.42-3.69-.42v-1.8h31.5l.36,9.84h-1.92c-.28-2-.71-3.51-1.29-4.53-.58-1.02-1.52-1.71-2.82-2.07-1.3-.36-3.19-.54-5.67-.54h-8.82v15.24h7.02c1.84,0,3.24-.16,4.2-.48.96-.32,1.62-.92,1.98-1.8.36-.88.54-2.12.54-3.72h1.92v13.92h-1.92c0-1.64-.18-2.86-.54-3.66-.36-.8-1.02-1.32-1.98-1.56-.96-.24-2.36-.36-4.2-.36h-7.02v16.5h7.74c2.32,0,4.19-.11,5.61-.33,1.42-.22,2.54-.63,3.36-1.23.82-.6,1.5-1.46,2.04-2.58.54-1.12,1.11-2.58,1.71-4.38h1.92l-1.68,11.16Z"/>
  <path class="cls-1" d="m53.72,43.68c-2.4,0-4.57-.57-6.51-1.71-1.94-1.14-3.47-2.82-4.59-5.04-1.12-2.22-1.68-4.93-1.68-8.13,0-3.36.57-6.13,1.71-8.31,1.14-2.18,2.67-3.81,4.59-4.89s4.04-1.62,6.36-1.62c3.28,0,5.92,1.14,7.92,3.42,2,2.28,3.08,5.52,3.24,9.72h-19.5l-.06-2.22h13.92c-.04-1.48-.3-2.87-.78-4.17-.48-1.3-1.18-2.35-2.1-3.15-.92-.8-2.1-1.2-3.54-1.2-2.32,0-4.06.91-5.22,2.73-1.16,1.82-1.74,4.39-1.74,7.71,0,2.76.44,5.06,1.32,6.9.88,1.84,2.04,3.21,3.48,4.11,1.44.9,2.98,1.35,4.62,1.35s2.97-.22,3.99-.66c1.02-.44,1.89-1.01,2.61-1.71.72-.7,1.4-1.47,2.04-2.31l1.14.84c-.52,1.12-1.12,2.19-1.8,3.21-.68,1.02-1.45,1.91-2.31,2.67-.86.76-1.87,1.36-3.03,1.8-1.16.44-2.52.66-4.08.66Z"/>
  <path class="cls-1" d="m82.4,43.08h-13.74v-1.68c1.36,0,2.33-.13,2.91-.39.58-.26.94-.71,1.08-1.35.14-.64.21-1.52.21-2.64v-16.86c0-1.08-.22-1.79-.66-2.13-.44-.34-1.06-.51-1.86-.51-.52,0-1.06.04-1.62.12v-1.74l7.62-1.74h1.38l-.06,5.52.18,1.26v16.08c0,1.12.08,2,.24,2.64.16.64.56,1.09,1.2,1.35.64.26,1.68.39,3.12.39v1.68Zm17.64,0h-13.86v-1.68c1.44,0,2.47-.13,3.09-.39.62-.26,1-.71,1.14-1.35s.21-1.52.21-2.64v-10.86c0-2.4-.27-4.2-.81-5.4-.54-1.2-1.23-1.99-2.07-2.37-.84-.38-1.72-.57-2.64-.57-1.16,0-2.2.23-3.12.69-.92.46-1.75,1.01-2.49,1.65-.74.64-1.43,1.24-2.07,1.8l-.42-2.94h.9c1.64-1.44,3.19-2.64,4.65-3.6,1.46-.96,3.13-1.44,5.01-1.44,2.72,0,4.74.92,6.06,2.76s1.98,4.48,1.98,7.92v12.36c0,1.12.09,2,.27,2.64s.59,1.09,1.23,1.35c.64.26,1.62.39,2.94.39v1.68Z"/>
  <path class="cls-1" d="m130.82,43.08h-13.62v-1.74c1.56,0,2.65-.22,3.27-.66.62-.44.93-1.5.93-3.18V6.78c0-1.04-.29-1.7-.87-1.98-.58-.28-1.27-.42-2.07-.42-.48,0-1.06.04-1.74.12v-1.68l8.04-2.1h1.62v36.54c0,1.04.08,1.86.24,2.46.16.6.56,1.02,1.2,1.26.64.24,1.64.36,3,.36v1.74Zm17.94,0h-13.8v-1.74c1.4,0,2.4-.14,3-.42.6-.28.98-.72,1.14-1.32.16-.6.24-1.38.24-2.34v-10.38c0-1.64-.12-3.15-.36-4.53s-.75-2.48-1.53-3.3c-.78-.82-1.99-1.23-3.63-1.23-1.24,0-2.5.33-3.78.99s-2.74,1.79-4.38,3.39l.06-3.3h.84c1.88-1.76,3.57-3.02,5.07-3.78s3.05-1.14,4.65-1.14c1.72,0,3.11.34,4.17,1.02,1.06.68,1.87,1.57,2.43,2.67.56,1.1.94,2.3,1.14,3.6.2,1.3.3,2.57.3,3.81v11.94c0,1.6.27,2.72.81,3.36.54.64,1.75.96,3.63.96v1.74Z"/>
  <path class="cls-1" d="m164.84,43.68c-2.4,0-4.57-.57-6.51-1.71s-3.47-2.82-4.59-5.04-1.68-4.93-1.68-8.13c0-3.36.57-6.13,1.71-8.31,1.14-2.18,2.67-3.81,4.59-4.89s4.04-1.62,6.36-1.62c3.28,0,5.92,1.14,7.92,3.42,2,2.28,3.08,5.52,3.24,9.72h-19.5l-.06-2.22h13.92c-.04-1.48-.3-2.87-.78-4.17-.48-1.3-1.18-2.35-2.1-3.15-.92-.8-2.1-1.2-3.54-1.2-2.32,0-4.06.91-5.22,2.73-1.16,1.82-1.74,4.39-1.74,7.71,0,2.76.44,5.06,1.32,6.9.88,1.84,2.04,3.21,3.48,4.11,1.44.9,2.98,1.35,4.62,1.35s2.97-.22,3.99-.66c1.02-.44,1.89-1.01,2.61-1.71.72-.7,1.4-1.47,2.04-2.31l1.14.84c-.52,1.12-1.12,2.19-1.8,3.21-.68,1.02-1.45,1.91-2.31,2.67-.86.76-1.87,1.36-3.03,1.8-1.16.44-2.52.66-4.08.66Z"/>
  <path class="cls-1" d="m193.46,43.08h-13.8v-1.74c1.32,0,2.28-.13,2.88-.39.6-.26.97-.7,1.11-1.32.14-.62.21-1.49.21-2.61V6.9c0-1.24-.23-1.98-.69-2.22s-1.07-.36-1.83-.36c-.52,0-1.16.04-1.92.12v-1.62l7.92-2.1h1.5v36.3c0,1.16.09,2.05.27,2.67.18.62.59,1.05,1.23,1.29.64.24,1.68.36,3.12.36v1.74Z"/>
  <path class="cls-1" d="m207.08,43.56c-2.24,0-4.13-.6-5.67-1.8-1.54-1.2-2.69-2.83-3.45-4.89-.76-2.06-1.14-4.37-1.14-6.93,0-3.32.62-6.17,1.86-8.55,1.24-2.38,2.91-4.21,5.01-5.49,2.1-1.28,4.41-1.92,6.93-1.92.96,0,1.91.12,2.85.36.94.24,1.85.6,2.73,1.08h.24v-7.86c0-1.32-.15-2.18-.45-2.58-.3-.4-1.03-.6-2.19-.6-.28,0-.8.04-1.56.12v-1.68l7.56-2.1h1.62v35.94c0,1.56.22,2.57.66,3.03.44.46,1.22.69,2.34.69h1.26v1.62l-7.68,1.38h-1.38v-4.14h-.24c-1.12,1-2.45,1.97-3.99,2.91-1.54.94-3.31,1.41-5.31,1.41Zm2.82-4.32c1.4,0,2.58-.19,3.54-.57.96-.38,1.96-.93,3-1.65v-15.84c-.24-1.24-.82-2.35-1.74-3.33-.92-.98-2.32-1.47-4.2-1.47-2.52,0-4.56.92-6.12,2.76-1.56,1.84-2.34,4.66-2.34,8.46,0,4.12.67,7.09,2.01,8.91,1.34,1.82,3.29,2.73,5.85,2.73Z"/>
  <path class="cls-1" d="m242,43.68c-2.4,0-4.57-.57-6.51-1.71s-3.47-2.82-4.59-5.04-1.68-4.93-1.68-8.13c0-3.36.57-6.13,1.71-8.31,1.14-2.18,2.67-3.81,4.59-4.89s4.04-1.62,6.36-1.62c3.28,0,5.92,1.14,7.92,3.42,2,2.28,3.08,5.52,3.24,9.72h-19.5l-.06-2.22h13.92c-.04-1.48-.3-2.87-.78-4.17-.48-1.3-1.18-2.35-2.1-3.15-.92-.8-2.1-1.2-3.54-1.2-2.32,0-4.06.91-5.22,2.73-1.16,1.82-1.74,4.39-1.74,7.71,0,2.76.44,5.06,1.32,6.9.88,1.84,2.04,3.21,3.48,4.11,1.44.9,2.98,1.35,4.62,1.35s2.97-.22,3.99-.66c1.02-.44,1.89-1.01,2.61-1.71.72-.7,1.4-1.47,2.04-2.31l1.14.84c-.52,1.12-1.12,2.19-1.8,3.21-.68,1.02-1.45,1.91-2.31,2.67-.86.76-1.87,1.36-3.03,1.8-1.16.44-2.52.66-4.08.66Z"/>
  <path class="cls-1" d="m271.76,43.08h-15v-1.74c1.32,0,2.29-.11,2.91-.33.62-.22,1.02-.62,1.2-1.2.18-.58.27-1.43.27-2.55v-16.5c0-1.08-.09-1.89-.27-2.43-.18-.54-.81-.81-1.89-.81-.6,0-1.22.04-1.86.12v-1.68l7.44-1.8h1.44v6.18h.18c1.04-1.48,1.96-2.7,2.76-3.66.8-.96,1.59-1.68,2.37-2.16.78-.48,1.65-.72,2.61-.72,1.16,0,2.03.3,2.61.9.58.6.87,1.42.87,2.46,0,1.12-.27,1.94-.81,2.46-.54.52-1.15.78-1.83.78-.64,0-1.21-.17-1.71-.51-.5-.34-.93-.68-1.29-1.02-.36-.34-.66-.51-.9-.51-.68,0-1.46.52-2.34,1.56-.88,1.04-1.68,2.16-2.4,3.36v13.68c0,1.24.16,2.18.48,2.82.32.64.89,1.06,1.71,1.26.82.2,1.97.3,3.45.3v1.74Z"/>
  <path class="cls-1" d="m292.04,43.68c-2.4,0-4.57-.57-6.51-1.71s-3.47-2.82-4.59-5.04-1.68-4.93-1.68-8.13c0-3.36.57-6.13,1.71-8.31,1.14-2.18,2.67-3.81,4.59-4.89s4.04-1.62,6.36-1.62c3.28,0,5.92,1.14,7.92,3.42,2,2.28,3.08,5.52,3.24,9.72h-19.5l-.06-2.22h13.92c-.04-1.48-.3-2.87-.78-4.17-.48-1.3-1.18-2.35-2.1-3.15-.92-.8-2.1-1.2-3.54-1.2-2.32,0-4.06.91-5.22,2.73-1.16,1.82-1.74,4.39-1.74,7.71,0,2.76.44,5.06,1.32,6.9.88,1.84,2.04,3.21,3.48,4.11,1.44.9,2.98,1.35,4.62,1.35s2.97-.22,3.99-.66c1.02-.44,1.89-1.01,2.61-1.71.72-.7,1.4-1.47,2.04-2.31l1.14.84c-.52,1.12-1.12,2.19-1.8,3.21-.68,1.02-1.45,1.91-2.31,2.67-.86.76-1.87,1.36-3.03,1.8-1.16.44-2.52.66-4.08.66Z"/>
  <path class="cls-1" d="m17.24,111.44h-2.88l-8.94-22.62c-.52-1.24-.98-2.17-1.38-2.79-.4-.62-.86-1.04-1.38-1.26-.52-.22-1.22-.33-2.1-.33v-1.74h12.66v1.74c-1.16,0-1.97.13-2.43.39-.46.26-.69.63-.69,1.11,0,.4.06.78.18,1.14.12.36.26.76.42,1.2l5.1,13.38,1.14,3.6h.36l1.26-3.66,5.16-13.56c.04-.16.12-.41.24-.75s.18-.75.18-1.23c0-.68-.3-1.12-.9-1.32s-1.44-.3-2.52-.3v-1.74h10.5v1.74c-1.16,0-2.05.27-2.67.81-.62.54-1.23,1.59-1.83,3.15l-9.48,23.04Z"/>
  <path class="cls-1" d="m44.72,111.68c-2.4,0-4.57-.57-6.51-1.71-1.94-1.14-3.47-2.82-4.59-5.04-1.12-2.22-1.68-4.93-1.68-8.13,0-3.36.57-6.13,1.71-8.31,1.14-2.18,2.67-3.81,4.59-4.89s4.04-1.62,6.36-1.62c3.28,0,5.92,1.14,7.92,3.42,2,2.28,3.08,5.52,3.24,9.72h-19.5l-.06-2.22h13.92c-.04-1.48-.3-2.87-.78-4.17-.48-1.3-1.18-2.35-2.1-3.15-.92-.8-2.1-1.2-3.54-1.2-2.32,0-4.06.91-5.22,2.73-1.16,1.82-1.74,4.39-1.74,7.71,0,2.76.44,5.06,1.32,6.9.88,1.84,2.04,3.21,3.48,4.11,1.44.9,2.98,1.35,4.62,1.35s2.97-.22,3.99-.66c1.02-.44,1.89-1.01,2.61-1.71.72-.7,1.4-1.47,2.04-2.31l1.14.84c-.52,1.12-1.12,2.19-1.8,3.21-.68,1.02-1.45,1.91-2.31,2.67-.86.76-1.87,1.36-3.03,1.8-1.16.44-2.52.66-4.08.66Z"/>
  <path class="cls-1" d="m74.48,111.08h-15v-1.74c1.32,0,2.29-.11,2.91-.33.62-.22,1.02-.62,1.2-1.2.18-.58.27-1.43.27-2.55v-16.5c0-1.08-.09-1.89-.27-2.43-.18-.54-.81-.81-1.89-.81-.6,0-1.22.04-1.86.12v-1.68l7.44-1.8h1.44v6.18h.18c1.04-1.48,1.96-2.7,2.76-3.66.8-.96,1.59-1.68,2.37-2.16.78-.48,1.65-.72,2.61-.72,1.16,0,2.03.3,2.61.9.58.6.87,1.42.87,2.46,0,1.12-.27,1.94-.81,2.46-.54.52-1.15.78-1.83.78-.64,0-1.21-.17-1.71-.51-.5-.34-.93-.68-1.29-1.02-.36-.34-.66-.51-.9-.51-.68,0-1.46.52-2.34,1.56-.88,1.04-1.68,2.16-2.4,3.36v13.68c0,1.24.16,2.18.48,2.82.32.64.89,1.06,1.71,1.26.82.2,1.97.3,3.45.3v1.74Z"/>
  <path class="cls-1" d="m88.76,68.72h1.56v18.36h.18c1.04-1.28,2.34-2.45,3.9-3.51s3.34-1.59,5.34-1.59,3.75.57,5.25,1.71c1.5,1.14,2.67,2.71,3.51,4.71.84,2,1.26,4.3,1.26,6.9,0,3.56-.62,6.56-1.86,9-1.24,2.44-2.94,4.28-5.1,5.52s-4.64,1.86-7.44,1.86c-2.56,0-4.69-.3-6.39-.9-1.7-.6-2.91-1.1-3.63-1.5v-33.72c0-1.36-.15-2.23-.45-2.61-.3-.38-1.03-.57-2.19-.57-.48,0-1.04.04-1.68.12v-1.68l7.74-2.1Zm1.56,21v16.68c.56.68,1.32,1.32,2.28,1.92.96.6,2.24.9,3.84.9,1.92,0,3.45-.54,4.59-1.62,1.14-1.08,1.97-2.53,2.49-4.35.52-1.82.78-3.83.78-6.03,0-1.92-.2-3.73-.6-5.43-.4-1.7-1.12-3.08-2.16-4.14-1.04-1.06-2.52-1.59-4.44-1.59-1.52,0-2.89.43-4.11,1.29-1.22.86-2.11,1.65-2.67,2.37Z"/>
  <path class="cls-1" d="m127.28,111.08h-13.5v-1.68c1.36,0,2.33-.13,2.91-.39.58-.26.94-.71,1.08-1.35.14-.64.21-1.52.21-2.64v-16.74c0-1.28-.22-2.07-.66-2.37-.44-.3-1.1-.45-1.98-.45-.4,0-.9.04-1.5.12v-1.74l7.56-1.68h1.56v22.86c0,1.16.08,2.06.24,2.7.16.64.55,1.08,1.17,1.32s1.59.36,2.91.36v1.68Zm-6.72-33.6c-1,0-1.82-.34-2.46-1.02-.64-.68-.96-1.48-.96-2.4s.31-1.71.93-2.37c.62-.66,1.45-.99,2.49-.99s1.87.33,2.49.99c.62.66.93,1.45.93,2.37s-.31,1.72-.93,2.4c-.62.68-1.45,1.02-2.49,1.02Z"/>
  <path class="cls-1" d="m144.62,111.08h-13.74v-1.68c1.36,0,2.33-.13,2.91-.39.58-.26.94-.71,1.08-1.35.14-.64.21-1.52.21-2.64v-16.86c0-1.08-.22-1.79-.66-2.13-.44-.34-1.06-.51-1.86-.51-.52,0-1.06.04-1.62.12v-1.74l7.62-1.74h1.38l-.06,5.52.18,1.26v16.08c0,1.12.08,2,.24,2.64.16.64.56,1.09,1.2,1.35.64.26,1.68.39,3.12.39v1.68Zm17.64,0h-13.86v-1.68c1.44,0,2.47-.13,3.09-.39.62-.26,1-.71,1.14-1.35.14-.64.21-1.52.21-2.64v-10.86c0-2.4-.27-4.2-.81-5.4s-1.23-1.99-2.07-2.37c-.84-.38-1.72-.57-2.64-.57-1.16,0-2.2.23-3.12.69-.92.46-1.75,1.01-2.49,1.65-.74.64-1.43,1.24-2.07,1.8l-.42-2.94h.9c1.64-1.44,3.19-2.64,4.65-3.6s3.13-1.44,5.01-1.44c2.72,0,4.74.92,6.06,2.76s1.98,4.48,1.98,7.92v12.36c0,1.12.09,2,.27,2.64s.59,1.09,1.23,1.35c.64.26,1.62.39,2.94.39v1.68Z"/>
  <path class="cls-1" d="m175.76,111.56c-2.24,0-4.13-.6-5.67-1.8-1.54-1.2-2.69-2.83-3.45-4.89-.76-2.06-1.14-4.37-1.14-6.93,0-3.32.62-6.17,1.86-8.55,1.24-2.38,2.91-4.21,5.01-5.49,2.1-1.28,4.41-1.92,6.93-1.92.96,0,1.91.12,2.85.36.94.24,1.85.6,2.73,1.08h.24v-7.86c0-1.32-.15-2.18-.45-2.58-.3-.4-1.03-.6-2.19-.6-.28,0-.8.04-1.56.12v-1.68l7.56-2.1h1.62v35.94c0,1.56.22,2.57.66,3.03.44.46,1.22.69,2.34.69h1.26v1.62l-7.68,1.38h-1.38v-4.14h-.24c-1.12,1-2.45,1.97-3.99,2.91-1.54.94-3.31,1.41-5.31,1.41Zm2.82-4.32c1.4,0,2.58-.19,3.54-.57.96-.38,1.96-.93,3-1.65v-15.84c-.24-1.24-.82-2.35-1.74-3.33-.92-.98-2.32-1.47-4.2-1.47-2.52,0-4.56.92-6.12,2.76-1.56,1.84-2.34,4.66-2.34,8.46,0,4.12.67,7.09,2.01,8.91,1.34,1.82,3.29,2.73,5.85,2.73Z"/>
  <path class="cls-1" d="m211.28,111.08h-13.5v-1.68c1.36,0,2.33-.13,2.91-.39.58-.26.94-.71,1.08-1.35.14-.64.21-1.52.21-2.64v-16.74c0-1.28-.22-2.07-.66-2.37-.44-.3-1.1-.45-1.98-.45-.4,0-.9.04-1.5.12v-1.74l7.56-1.68h1.56v22.86c0,1.16.08,2.06.24,2.7.16.64.55,1.08,1.17,1.32s1.59.36,2.91.36v1.68Zm-6.72-33.6c-1,0-1.82-.34-2.46-1.02-.64-.68-.96-1.48-.96-2.4s.31-1.71.93-2.37c.62-.66,1.45-.99,2.49-.99s1.87.33,2.49.99c.62.66.93,1.45.93,2.37s-.31,1.72-.93,2.4c-.62.68-1.45,1.02-2.49,1.02Z"/>
  <path class="cls-1" d="m228.62,111.08h-13.74v-1.68c1.36,0,2.33-.13,2.91-.39.58-.26.94-.71,1.08-1.35.14-.64.21-1.52.21-2.64v-16.86c0-1.08-.22-1.79-.66-2.13-.44-.34-1.06-.51-1.86-.51-.52,0-1.06.04-1.62.12v-1.74l7.62-1.74h1.38l-.06,5.52.18,1.26v16.08c0,1.12.08,2,.24,2.64.16.64.56,1.09,1.2,1.35.64.26,1.68.39,3.12.39v1.68Zm17.64,0h-13.86v-1.68c1.44,0,2.47-.13,3.09-.39.62-.26,1-.71,1.14-1.35.14-.64.21-1.52.21-2.64v-10.86c0-2.4-.27-4.2-.81-5.4s-1.23-1.99-2.07-2.37c-.84-.38-1.72-.57-2.64-.57-1.16,0-2.2.23-3.12.69-.92.46-1.75,1.01-2.49,1.65-.74.64-1.43,1.24-2.07,1.8l-.42-2.94h.9c1.64-1.44,3.19-2.64,4.65-3.6s3.13-1.44,5.01-1.44c2.72,0,4.74.92,6.06,2.76s1.98,4.48,1.98,7.92v12.36c0,1.12.09,2,.27,2.64s.59,1.09,1.23,1.35c.64.26,1.62.39,2.94.39v1.68Z"/>
  <path class="cls-1" d="m258.97,125.18c-2.6,0-4.65-.32-6.15-.96-1.5-.64-2.55-1.47-3.15-2.49-.6-1.02-.9-2.07-.9-3.15,0-1,.41-2.05,1.23-3.15.82-1.1,2.03-2.43,3.63-3.99v-.66l1.8.36c-.76,1.28-1.28,2.33-1.56,3.15-.28.82-.42,1.57-.42,2.25,0,1.72.74,3.02,2.22,3.9,1.48.88,3.74,1.32,6.78,1.32,2.36,0,4.27-.3,5.73-.9,1.46-.6,2.52-1.34,3.18-2.22.66-.88.99-1.74.99-2.58,0-1.08-.35-1.91-1.05-2.49-.7-.58-1.59-.99-2.67-1.23s-2.22-.39-3.42-.45c-1.2-.06-2.3-.09-3.3-.09-1.8-.04-3.16-.06-4.08-.06s-1.58-.01-1.98-.03c-.4-.02-.76-.03-1.08-.03l-.6-.3c-.6-.2-1.2-.52-1.8-.96-.6-.44-1.1-.97-1.5-1.59-.4-.62-.6-1.27-.6-1.95,0-.72.21-1.47.63-2.25s1.01-1.56,1.77-2.34c.76-.78,1.6-1.53,2.52-2.25v-.54l1.56,1.14c-.2.2-.44.56-.72,1.08-.28.52-.52,1.07-.72,1.65s-.3,1.07-.3,1.47c0,.6.21,1.07.63,1.41s1.14.59,2.16.75c1.02.16,2.45.24,4.29.24,2.52,0,4.79.12,6.81.36s3.61.86,4.77,1.86c1.16,1,1.74,2.64,1.74,4.92,0,2-.49,3.69-1.47,5.07s-2.28,2.49-3.9,3.33c-1.62.84-3.4,1.45-5.34,1.83-1.94.38-3.85.57-5.73.57Zm2.76-23.46c-1.04,0-2.01-.1-2.91-.3-.9-.2-1.77-.44-2.61-.72l-.66-.6c-1.04-.56-1.93-1.22-2.67-1.98-.74-.76-1.31-1.67-1.71-2.73-.4-1.06-.6-2.27-.6-3.63,0-2,.46-3.73,1.38-5.19.92-1.46,2.2-2.59,3.84-3.39,1.64-.8,3.52-1.2,5.64-1.2,1.2,0,2.33.11,3.39.33,1.06.22,2.05.55,2.97.99.92.44,1.72.96,2.4,1.56v1.56c.44.6.91,1.4,1.41,2.4s.75,2.26.75,3.78c0,1.84-.45,3.45-1.35,4.83-.9,1.38-2.14,2.44-3.72,3.18-1.58.74-3.43,1.11-5.55,1.11Zm.06-2.1c1.52,0,2.77-.52,3.75-1.56.98-1.04,1.47-2.98,1.47-5.82,0-2.44-.52-4.4-1.56-5.88-1.04-1.48-2.52-2.22-4.44-2.22-1.56,0-2.81.6-3.75,1.8-.94,1.2-1.41,3.06-1.41,5.58s.5,4.55,1.5,5.97,2.48,2.13,4.44,2.13Zm14.04-16.56v3.24l-6.48-.18-2.1-2.58,8.58-.48Z"/>
  <path class="cls-1" d="m18.92,173.68l1.14.96c-.76,1.08-1.47,1.99-2.13,2.73-.66.74-1.39,1.31-2.19,1.71-.8.4-1.84.6-3.12.6-2,0-3.46-.59-4.38-1.77-.92-1.18-1.38-3.11-1.38-5.79v-18.6h-3.3v-1.38c1.4-.88,2.61-2.07,3.63-3.57s2.07-3.53,3.15-6.09h1.5v8.52h6.78v2.52h-6.78v16.92c0,2.12.19,3.6.57,4.44.38.84,1.15,1.26,2.31,1.26.96,0,1.71-.2,2.25-.6.54-.4,1.19-1.02,1.95-1.86Z"/>
  <path class="cls-1" d="m33.56,179.68c-2.48,0-4.41-.81-5.79-2.43-1.38-1.62-2.07-4.47-2.07-8.55v-12.18c0-1.08-.11-1.87-.33-2.37-.22-.5-.63-.82-1.23-.96-.6-.14-1.44-.21-2.52-.21v-1.68l7.74-.9h1.32v17.52c0,2.04.23,3.63.69,4.77.46,1.14,1.1,1.95,1.92,2.43.82.48,1.75.72,2.79.72,1.52,0,2.83-.34,3.93-1.02,1.1-.68,2.25-1.54,3.45-2.58v-15.78c0-1.08-.14-1.86-.42-2.34-.28-.48-.77-.79-1.47-.93-.7-.14-1.69-.21-2.97-.21v-1.68l8.4-.9h1.44v22.02c0,1.76.24,2.86.72,3.3.48.44,1.44.66,2.88.66h.6v1.62l-7.62,1.38h-1.32v-4.62h-.3c-1.04,1.04-2.07,1.93-3.09,2.67-1.02.74-2.08,1.3-3.18,1.68-1.1.38-2.29.57-3.57.57Z"/>
  <path class="cls-1" d="m56.96,179.56l-.18-10.32h1.56c.64,3.08,1.58,5.23,2.82,6.45,1.24,1.22,2.96,1.83,5.16,1.83,1.52,0,2.76-.31,3.72-.93.96-.62,1.44-1.63,1.44-3.03,0-.96-.17-1.76-.51-2.4-.34-.64-.99-1.29-1.95-1.95s-2.38-1.45-4.26-2.37c-1.84-.92-3.34-1.81-4.5-2.67-1.16-.86-2.02-1.81-2.58-2.85-.56-1.04-.84-2.3-.84-3.78,0-2.48.89-4.36,2.67-5.64,1.78-1.28,3.95-1.92,6.51-1.92,1.52,0,2.76.17,3.72.51s1.82.69,2.58,1.05h.06l1.02-1.26h1.2l.18,9.18h-1.62c-.64-2.84-1.54-4.79-2.7-5.85-1.16-1.06-2.66-1.59-4.5-1.59-1.36,0-2.51.32-3.45.96-.94.64-1.41,1.64-1.41,3,0,1.16.54,2.2,1.62,3.12,1.08.92,2.88,2.02,5.4,3.3,1.84.96,3.38,1.89,4.62,2.79,1.24.9,2.18,1.88,2.82,2.94.64,1.06.96,2.33.96,3.81,0,1.88-.46,3.39-1.38,4.53-.92,1.14-2.15,1.97-3.69,2.49-1.54.52-3.21.78-5.01.78s-3.09-.18-4.11-.54c-1.02-.36-1.93-.7-2.73-1.02h-.12l-1.26,1.38h-1.26Z"/>
  <path class="cls-1" d="m80.66,179.56l-.18-10.32h1.56c.64,3.08,1.58,5.23,2.82,6.45,1.24,1.22,2.96,1.83,5.16,1.83,1.52,0,2.76-.31,3.72-.93.96-.62,1.44-1.63,1.44-3.03,0-.96-.17-1.76-.51-2.4-.34-.64-.99-1.29-1.95-1.95s-2.38-1.45-4.26-2.37c-1.84-.92-3.34-1.81-4.5-2.67-1.16-.86-2.02-1.81-2.58-2.85-.56-1.04-.84-2.3-.84-3.78,0-2.48.89-4.36,2.67-5.64,1.78-1.28,3.95-1.92,6.51-1.92,1.52,0,2.76.17,3.72.51s1.82.69,2.58,1.05h.06l1.02-1.26h1.2l.18,9.18h-1.62c-.64-2.84-1.54-4.79-2.7-5.85-1.16-1.06-2.66-1.59-4.5-1.59-1.36,0-2.51.32-3.45.96-.94.64-1.41,1.64-1.41,3,0,1.16.54,2.2,1.62,3.12,1.08.92,2.88,2.02,5.4,3.3,1.84.96,3.38,1.89,4.62,2.79,1.24.9,2.18,1.88,2.82,2.94.64,1.06.96,2.33.96,3.81,0,1.88-.46,3.39-1.38,4.53-.92,1.14-2.15,1.97-3.69,2.49s-3.21.78-5.01.78-3.09-.18-4.11-.54c-1.02-.36-1.93-.7-2.73-1.02h-.12l-1.26,1.38h-1.26Z"/>
  <path class="cls-1" d="m116.66,179.68c-2.4,0-4.57-.57-6.51-1.71s-3.47-2.82-4.59-5.04-1.68-4.93-1.68-8.13c0-3.36.57-6.13,1.71-8.31,1.14-2.18,2.67-3.81,4.59-4.89s4.04-1.62,6.36-1.62c3.28,0,5.92,1.14,7.92,3.42,2,2.28,3.08,5.52,3.24,9.72h-19.5l-.06-2.22h13.92c-.04-1.48-.3-2.87-.78-4.17-.48-1.3-1.18-2.35-2.1-3.15-.92-.8-2.1-1.2-3.54-1.2-2.32,0-4.06.91-5.22,2.73-1.16,1.82-1.74,4.39-1.74,7.71,0,2.76.44,5.06,1.32,6.9.88,1.84,2.04,3.21,3.48,4.11,1.44.9,2.98,1.35,4.62,1.35s2.97-.22,3.99-.66c1.02-.44,1.89-1.01,2.61-1.71.72-.7,1.4-1.47,2.04-2.31l1.14.84c-.52,1.12-1.12,2.19-1.8,3.21-.68,1.02-1.45,1.91-2.31,2.67-.86.76-1.87,1.36-3.03,1.8-1.16.44-2.52.66-4.08.66Z"/>
  <path class="cls-1" d="m145.34,179.08h-13.74v-1.68c1.36,0,2.33-.13,2.91-.39.58-.26.94-.71,1.08-1.35.14-.64.21-1.52.21-2.64v-16.86c0-1.08-.22-1.79-.66-2.13-.44-.34-1.06-.51-1.86-.51-.52,0-1.06.04-1.62.12v-1.74l7.62-1.74h1.38l-.06,5.52.18,1.26v16.08c0,1.12.08,2,.24,2.64.16.64.56,1.09,1.2,1.35.64.26,1.68.39,3.12.39v1.68Zm17.64,0h-13.86v-1.68c1.44,0,2.47-.13,3.09-.39.62-.26,1-.71,1.14-1.35.14-.64.21-1.52.21-2.64v-10.86c0-2.4-.27-4.2-.81-5.4s-1.23-1.99-2.07-2.37c-.84-.38-1.72-.57-2.64-.57-1.16,0-2.2.23-3.12.69-.92.46-1.75,1.01-2.49,1.65-.74.64-1.43,1.24-2.07,1.8l-.42-2.94h.9c1.64-1.44,3.19-2.64,4.65-3.6s3.13-1.44,5.01-1.44c2.72,0,4.74.92,6.06,2.76s1.98,4.48,1.98,7.92v12.36c0,1.12.09,2,.27,2.64s.59,1.09,1.23,1.35c.64.26,1.62.39,2.94.39v1.68Z"/>
  <path class="cls-1" d="m180.86,179.56l-.18-10.32h1.56c.64,3.08,1.58,5.23,2.82,6.45,1.24,1.22,2.96,1.83,5.16,1.83,1.52,0,2.76-.31,3.72-.93.96-.62,1.44-1.63,1.44-3.03,0-.96-.17-1.76-.51-2.4-.34-.64-.99-1.29-1.95-1.95s-2.38-1.45-4.26-2.37c-1.84-.92-3.34-1.81-4.5-2.67-1.16-.86-2.02-1.81-2.58-2.85-.56-1.04-.84-2.3-.84-3.78,0-2.48.89-4.36,2.67-5.64,1.78-1.28,3.95-1.92,6.51-1.92,1.52,0,2.76.17,3.72.51s1.82.69,2.58,1.05h.06l1.02-1.26h1.2l.18,9.18h-1.62c-.64-2.84-1.54-4.79-2.7-5.85-1.16-1.06-2.66-1.59-4.5-1.59-1.36,0-2.51.32-3.45.96-.94.64-1.41,1.64-1.41,3,0,1.16.54,2.2,1.62,3.12,1.08.92,2.88,2.02,5.4,3.3,1.84.96,3.38,1.89,4.62,2.79,1.24.9,2.18,1.88,2.82,2.94.64,1.06.96,2.33.96,3.81,0,1.88-.46,3.39-1.38,4.53-.92,1.14-2.15,1.97-3.69,2.49s-3.21.78-5.01.78-3.09-.18-4.11-.54c-1.02-.36-1.93-.7-2.73-1.02h-.12l-1.26,1.38h-1.26Z"/>
  <path class="cls-1" d="m219.62,173.68l1.14.96c-.76,1.08-1.47,1.99-2.13,2.73s-1.39,1.31-2.19,1.71c-.8.4-1.84.6-3.12.6-2,0-3.46-.59-4.38-1.77-.92-1.18-1.38-3.11-1.38-5.79v-18.6h-3.3v-1.38c1.4-.88,2.61-2.07,3.63-3.57,1.02-1.5,2.07-3.53,3.15-6.09h1.5v8.52h6.78v2.52h-6.78v16.92c0,2.12.19,3.6.57,4.44.38.84,1.15,1.26,2.31,1.26.96,0,1.71-.2,2.25-.6.54-.4,1.19-1.02,1.95-1.86Z"/>
  <path class="cls-1" d="m237.68,179.08h-15v-1.74c1.32,0,2.29-.11,2.91-.33.62-.22,1.02-.62,1.2-1.2.18-.58.27-1.43.27-2.55v-16.5c0-1.08-.09-1.89-.27-2.43-.18-.54-.81-.81-1.89-.81-.6,0-1.22.04-1.86.12v-1.68l7.44-1.8h1.44v6.18h.18c1.04-1.48,1.96-2.7,2.76-3.66.8-.96,1.59-1.68,2.37-2.16.78-.48,1.65-.72,2.61-.72,1.16,0,2.03.3,2.61.9.58.6.87,1.42.87,2.46,0,1.12-.27,1.94-.81,2.46-.54.52-1.15.78-1.83.78-.64,0-1.21-.17-1.71-.51-.5-.34-.93-.68-1.29-1.02-.36-.34-.66-.51-.9-.51-.68,0-1.46.52-2.34,1.56-.88,1.04-1.68,2.16-2.4,3.36v13.68c0,1.24.16,2.18.48,2.82.32.64.89,1.06,1.71,1.26.82.2,1.97.3,3.45.3v1.74Z"/>
  <path class="cls-1" d="m252.25,179.5c-2.32,0-4.09-.64-5.31-1.92-1.22-1.28-1.83-2.88-1.83-4.8,0-1.6.37-2.95,1.11-4.05.74-1.1,1.72-2.03,2.94-2.79,1.22-.76,2.54-1.4,3.96-1.92,1.42-.52,2.81-.96,4.17-1.32,1.36-.36,2.56-.7,3.6-1.02v-2.64c0-2.6-.45-4.45-1.35-5.55-.9-1.1-2.25-1.65-4.05-1.65s-2.82.36-3.3,1.08c-.48.72-.72,1.98-.72,3.78,0,.92-.23,1.61-.69,2.07s-1.11.69-1.95.69c-.6,0-1.17-.23-1.71-.69-.54-.46-.81-1.19-.81-2.19,0-1.12.43-2.18,1.29-3.18.86-1,2.08-1.82,3.66-2.46,1.58-.64,3.45-.96,5.61-.96,3.28,0,5.6.76,6.96,2.28,1.36,1.52,2.04,3.84,2.04,6.96v13.62c0,1.24.14,2.04.42,2.4.28.36.74.54,1.38.54.56,0,1.07-.14,1.53-.42.46-.28.89-.64,1.29-1.08l.9.96c-1,1.44-1.95,2.49-2.85,3.15s-2.11.99-3.63.99c-1.4,0-2.31-.4-2.73-1.2-.42-.8-.73-1.94-.93-3.42l-.36-.72v-10.38c-1.8.44-3.5.96-5.1,1.56-1.6.6-2.9,1.38-3.9,2.34s-1.5,2.22-1.5,3.78.4,2.66,1.2,3.54c.8.88,1.84,1.32,3.12,1.32,1.04,0,2.13-.26,3.27-.78,1.14-.52,2.25-1.26,3.33-2.22l.48,2.16h-.72c-.92.8-1.81,1.52-2.67,2.16-.86.64-1.78,1.13-2.76,1.47-.98.34-2.11.51-3.39.51Z"/>
  <path class="cls-1" d="m289.21,173.68l1.14.96c-.76,1.08-1.47,1.99-2.13,2.73s-1.39,1.31-2.19,1.71c-.8.4-1.84.6-3.12.6-2,0-3.46-.59-4.38-1.77-.92-1.18-1.38-3.11-1.38-5.79v-18.6h-3.3v-1.38c1.4-.88,2.61-2.07,3.63-3.57,1.02-1.5,2.07-3.53,3.15-6.09h1.5v8.52h6.78v2.52h-6.78v16.92c0,2.12.19,3.6.57,4.44.38.84,1.15,1.26,2.31,1.26.96,0,1.71-.2,2.25-.6.54-.4,1.19-1.02,1.95-1.86Z"/>
  <path class="cls-1" d="m305.05,179.68c-2.4,0-4.57-.57-6.51-1.71s-3.47-2.82-4.59-5.04-1.68-4.93-1.68-8.13c0-3.36.57-6.13,1.71-8.31,1.14-2.18,2.67-3.81,4.59-4.89s4.04-1.62,6.36-1.62c3.28,0,5.92,1.14,7.92,3.42,2,2.28,3.08,5.52,3.24,9.72h-19.5l-.06-2.22h13.92c-.04-1.48-.3-2.87-.78-4.17-.48-1.3-1.18-2.35-2.1-3.15-.92-.8-2.1-1.2-3.54-1.2-2.32,0-4.06.91-5.22,2.73-1.16,1.82-1.74,4.39-1.74,7.71,0,2.76.44,5.06,1.32,6.9.88,1.84,2.04,3.21,3.48,4.11,1.44.9,2.98,1.35,4.62,1.35s2.97-.22,3.99-.66c1.02-.44,1.89-1.01,2.61-1.71.72-.7,1.4-1.47,2.04-2.31l1.14.84c-.52,1.12-1.12,2.19-1.8,3.21-.68,1.02-1.45,1.91-2.31,2.67-.86.76-1.87,1.36-3.03,1.8-1.16.44-2.52.66-4.08.66Z"/>
  <path class="cls-1" d="m329.53,193.18c-2.6,0-4.65-.32-6.15-.96-1.5-.64-2.55-1.47-3.15-2.49-.6-1.02-.9-2.07-.9-3.15,0-1,.41-2.05,1.23-3.15.82-1.1,2.03-2.43,3.63-3.99v-.66l1.8.36c-.76,1.28-1.28,2.33-1.56,3.15-.28.82-.42,1.57-.42,2.25,0,1.72.74,3.02,2.22,3.9,1.48.88,3.74,1.32,6.78,1.32,2.36,0,4.27-.3,5.73-.9,1.46-.6,2.52-1.34,3.18-2.22.66-.88.99-1.74.99-2.58,0-1.08-.35-1.91-1.05-2.49-.7-.58-1.59-.99-2.67-1.23s-2.22-.39-3.42-.45c-1.2-.06-2.3-.09-3.3-.09-1.8-.04-3.16-.06-4.08-.06s-1.58-.01-1.98-.03c-.4-.02-.76-.03-1.08-.03l-.6-.3c-.6-.2-1.2-.52-1.8-.96-.6-.44-1.1-.97-1.5-1.59-.4-.62-.6-1.27-.6-1.95,0-.72.21-1.47.63-2.25s1.01-1.56,1.77-2.34c.76-.78,1.6-1.53,2.52-2.25v-.54l1.56,1.14c-.2.2-.44.56-.72,1.08-.28.52-.52,1.07-.72,1.65s-.3,1.07-.3,1.47c0,.6.21,1.07.63,1.41s1.14.59,2.16.75c1.02.16,2.45.24,4.29.24,2.52,0,4.79.12,6.81.36s3.61.86,4.77,1.86c1.16,1,1.74,2.64,1.74,4.92,0,2-.49,3.69-1.47,5.07s-2.28,2.49-3.9,3.33c-1.62.84-3.4,1.45-5.34,1.83-1.94.38-3.85.57-5.73.57Zm2.76-23.46c-1.04,0-2.01-.1-2.91-.3-.9-.2-1.77-.44-2.61-.72l-.66-.6c-1.04-.56-1.93-1.22-2.67-1.98-.74-.76-1.31-1.67-1.71-2.73-.4-1.06-.6-2.27-.6-3.63,0-2,.46-3.73,1.38-5.19.92-1.46,2.2-2.59,3.84-3.39,1.64-.8,3.52-1.2,5.64-1.2,1.2,0,2.33.11,3.39.33,1.06.22,2.05.55,2.97.99.92.44,1.72.96,2.4,1.56v1.56c.44.6.91,1.4,1.41,2.4s.75,2.26.75,3.78c0,1.84-.45,3.45-1.35,4.83-.9,1.38-2.14,2.44-3.72,3.18-1.58.74-3.43,1.11-5.55,1.11Zm.06-2.1c1.52,0,2.77-.52,3.75-1.56.98-1.04,1.47-2.98,1.47-5.82,0-2.44-.52-4.4-1.56-5.88-1.04-1.48-2.52-2.22-4.44-2.22-1.56,0-2.81.6-3.75,1.8-.94,1.2-1.41,3.06-1.41,5.58s.5,4.55,1.5,5.97,2.48,2.13,4.44,2.13Zm14.04-16.56v3.24l-6.48-.18-2.1-2.58,8.58-.48Z"/>
  <path class="cls-1" d="m362.53,179.08h-13.5v-1.68c1.36,0,2.33-.13,2.91-.39.58-.26.94-.71,1.08-1.35.14-.64.21-1.52.21-2.64v-16.74c0-1.28-.22-2.07-.66-2.37-.44-.3-1.1-.45-1.98-.45-.4,0-.9.04-1.5.12v-1.74l7.56-1.68h1.56v22.86c0,1.16.08,2.06.24,2.7.16.64.55,1.08,1.17,1.32s1.59.36,2.91.36v1.68Zm-6.72-33.6c-1,0-1.82-.34-2.46-1.02-.64-.68-.96-1.48-.96-2.4s.31-1.71.93-2.37c.62-.66,1.45-.99,2.49-.99s1.87.33,2.49.99c.62.66.93,1.45.93,2.37s-.31,1.72-.93,2.4c-.62.68-1.45,1.02-2.49,1.02Z"/>
  <path class="cls-1" d="m379.03,179.68c-2.4,0-4.57-.57-6.51-1.71s-3.47-2.82-4.59-5.04-1.68-4.93-1.68-8.13c0-3.36.57-6.13,1.71-8.31,1.14-2.18,2.67-3.81,4.59-4.89s4.04-1.62,6.36-1.62c3.28,0,5.92,1.14,7.92,3.42,2,2.28,3.08,5.52,3.24,9.72h-19.5l-.06-2.22h13.92c-.04-1.48-.3-2.87-.78-4.17-.48-1.3-1.18-2.35-2.1-3.15-.92-.8-2.1-1.2-3.54-1.2-2.32,0-4.06.91-5.22,2.73-1.16,1.82-1.74,4.39-1.74,7.71,0,2.76.44,5.06,1.32,6.9.88,1.84,2.04,3.21,3.48,4.11,1.44.9,2.98,1.35,4.62,1.35s2.97-.22,3.99-.66c1.02-.44,1.89-1.01,2.61-1.71.72-.7,1.4-1.47,2.04-2.31l1.14.84c-.52,1.12-1.12,2.19-1.8,3.21-.68,1.02-1.45,1.91-2.31,2.67-.86.76-1.87,1.36-3.03,1.8-1.16.44-2.52.66-4.08.66Z"/>
  <path class="cls-1" d="m16.16,247.68c-2.4,0-4.57-.57-6.51-1.71-1.94-1.14-3.47-2.82-4.59-5.04-1.12-2.22-1.68-4.93-1.68-8.13,0-3.36.57-6.13,1.71-8.31,1.14-2.18,2.67-3.81,4.59-4.89s4.04-1.62,6.36-1.62c3.28,0,5.92,1.14,7.92,3.42,2,2.28,3.08,5.52,3.24,9.72H7.7l-.06-2.22h13.92c-.04-1.48-.3-2.87-.78-4.17-.48-1.3-1.18-2.35-2.1-3.15-.92-.8-2.1-1.2-3.54-1.2-2.32,0-4.06.91-5.22,2.73-1.16,1.82-1.74,4.39-1.74,7.71,0,2.76.44,5.06,1.32,6.9.88,1.84,2.04,3.21,3.48,4.11,1.44.9,2.98,1.35,4.62,1.35s2.97-.22,3.99-.66c1.02-.44,1.89-1.01,2.61-1.71.72-.7,1.4-1.47,2.04-2.31l1.14.84c-.52,1.12-1.12,2.19-1.8,3.21-.68,1.02-1.45,1.91-2.31,2.67-.86.76-1.87,1.36-3.03,1.8-1.16.44-2.52.66-4.08.66Z"/>
  <path class="cls-1" d="m44.84,247.08h-13.74v-1.68c1.36,0,2.33-.13,2.91-.39.58-.26.94-.71,1.08-1.35.14-.64.21-1.52.21-2.64v-16.86c0-1.08-.22-1.79-.66-2.13-.44-.34-1.06-.51-1.86-.51-.52,0-1.06.04-1.62.12v-1.74l7.62-1.74h1.38l-.06,5.52.18,1.26v16.08c0,1.12.08,2,.24,2.64.16.64.56,1.09,1.2,1.35.64.26,1.68.39,3.12.39v1.68Zm17.64,0h-13.86v-1.68c1.44,0,2.47-.13,3.09-.39.62-.26,1-.71,1.14-1.35.14-.64.21-1.52.21-2.64v-10.86c0-2.4-.27-4.2-.81-5.4s-1.23-1.99-2.07-2.37c-.84-.38-1.72-.57-2.64-.57-1.16,0-2.2.23-3.12.69-.92.46-1.75,1.01-2.49,1.65-.74.64-1.43,1.24-2.07,1.8l-.42-2.94h.9c1.64-1.44,3.19-2.64,4.65-3.6,1.46-.96,3.13-1.44,5.01-1.44,2.72,0,4.74.92,6.06,2.76,1.32,1.84,1.98,4.48,1.98,7.92v12.36c0,1.12.09,2,.27,2.64.18.64.59,1.09,1.23,1.35.64.26,1.62.39,2.94.39v1.68Z"/>
  <path class="cls-1" d="m102.32,238.2l1.14.84c-.76,1.6-1.63,3.06-2.61,4.38-.98,1.32-2.19,2.36-3.63,3.12-1.44.76-3.24,1.14-5.4,1.14-2.48,0-4.62-.6-6.42-1.8-1.8-1.2-3.18-2.87-4.14-5.01s-1.44-4.59-1.44-7.35c0-3.16.53-5.9,1.59-8.22,1.06-2.32,2.6-4.12,4.62-5.4,2.02-1.28,4.47-1.92,7.35-1.92s5.07.62,6.69,1.86c1.62,1.24,2.43,2.74,2.43,4.5,0,.88-.21,1.55-.63,2.01-.42.46-1.05.69-1.89.69s-1.55-.23-2.01-.69c-.46-.46-.83-1.03-1.11-1.71-.28-.68-.57-1.36-.87-2.04-.3-.68-.72-1.25-1.26-1.71-.54-.46-1.33-.69-2.37-.69-2.44,0-4.35.89-5.73,2.67-1.38,1.78-2.07,4.39-2.07,7.83,0,3.64.75,6.63,2.25,8.97,1.5,2.34,3.79,3.51,6.87,3.51,1.96,0,3.55-.4,4.77-1.2,1.22-.8,2.51-2.06,3.87-3.78Z"/>
  <path class="cls-1" d="m121.34,247.08h-15v-1.74c1.32,0,2.29-.11,2.91-.33.62-.22,1.02-.62,1.2-1.2.18-.58.27-1.43.27-2.55v-16.5c0-1.08-.09-1.89-.27-2.43-.18-.54-.81-.81-1.89-.81-.6,0-1.22.04-1.86.12v-1.68l7.44-1.8h1.44v6.18h.18c1.04-1.48,1.96-2.7,2.76-3.66.8-.96,1.59-1.68,2.37-2.16.78-.48,1.65-.72,2.61-.72,1.16,0,2.03.3,2.61.9.58.6.87,1.42.87,2.46,0,1.12-.27,1.94-.81,2.46-.54.52-1.15.78-1.83.78-.64,0-1.21-.17-1.71-.51-.5-.34-.93-.68-1.29-1.02-.36-.34-.66-.51-.9-.51-.68,0-1.46.52-2.34,1.56-.88,1.04-1.68,2.16-2.4,3.36v13.68c0,1.24.16,2.18.48,2.82.32.64.89,1.06,1.71,1.26.82.2,1.97.3,3.45.3v1.74Z"/>
  <path class="cls-1" d="m141.62,247.68c-2.4,0-4.57-.57-6.51-1.71s-3.47-2.82-4.59-5.04-1.68-4.93-1.68-8.13c0-3.36.57-6.13,1.71-8.31,1.14-2.18,2.67-3.81,4.59-4.89s4.04-1.62,6.36-1.62c3.28,0,5.92,1.14,7.92,3.42,2,2.28,3.08,5.52,3.24,9.72h-19.5l-.06-2.22h13.92c-.04-1.48-.3-2.87-.78-4.17-.48-1.3-1.18-2.35-2.1-3.15-.92-.8-2.1-1.2-3.54-1.2-2.32,0-4.06.91-5.22,2.73-1.16,1.82-1.74,4.39-1.74,7.71,0,2.76.44,5.06,1.32,6.9.88,1.84,2.04,3.21,3.48,4.11,1.44.9,2.98,1.35,4.62,1.35s2.97-.22,3.99-.66c1.02-.44,1.89-1.01,2.61-1.71.72-.7,1.4-1.47,2.04-2.31l1.14.84c-.52,1.12-1.12,2.19-1.8,3.21-.68,1.02-1.45,1.91-2.31,2.67-.86.76-1.87,1.36-3.03,1.8-1.16.44-2.52.66-4.08.66Z"/>
  <path class="cls-1" d="m164.06,247.5c-2.32,0-4.09-.64-5.31-1.92-1.22-1.28-1.83-2.88-1.83-4.8,0-1.6.37-2.95,1.11-4.05.74-1.1,1.72-2.03,2.94-2.79,1.22-.76,2.54-1.4,3.96-1.92,1.42-.52,2.81-.96,4.17-1.32,1.36-.36,2.56-.7,3.6-1.02v-2.64c0-2.6-.45-4.45-1.35-5.55-.9-1.1-2.25-1.65-4.05-1.65s-2.82.36-3.3,1.08c-.48.72-.72,1.98-.72,3.78,0,.92-.23,1.61-.69,2.07s-1.11.69-1.95.69c-.6,0-1.17-.23-1.71-.69-.54-.46-.81-1.19-.81-2.19,0-1.12.43-2.18,1.29-3.18.86-1,2.08-1.82,3.66-2.46,1.58-.64,3.45-.96,5.61-.96,3.28,0,5.6.76,6.96,2.28,1.36,1.52,2.04,3.84,2.04,6.96v13.62c0,1.24.14,2.04.42,2.4.28.36.74.54,1.38.54.56,0,1.07-.14,1.53-.42.46-.28.89-.64,1.29-1.08l.9.96c-1,1.44-1.95,2.49-2.85,3.15s-2.11.99-3.63.99c-1.4,0-2.31-.4-2.73-1.2-.42-.8-.73-1.94-.93-3.42l-.36-.72v-10.38c-1.8.44-3.5.96-5.1,1.56-1.6.6-2.9,1.38-3.9,2.34s-1.5,2.22-1.5,3.78.4,2.66,1.2,3.54c.8.88,1.84,1.32,3.12,1.32,1.04,0,2.13-.26,3.27-.78,1.14-.52,2.25-1.26,3.33-2.22l.48,2.16h-.72c-.92.8-1.81,1.52-2.67,2.16-.86.64-1.78,1.13-2.76,1.47-.98.34-2.11.51-3.39.51Z"/>
  <path class="cls-1" d="m201.02,241.68l1.14.96c-.76,1.08-1.47,1.99-2.13,2.73s-1.39,1.31-2.19,1.71c-.8.4-1.84.6-3.12.6-2,0-3.46-.59-4.38-1.77-.92-1.18-1.38-3.11-1.38-5.79v-18.6h-3.3v-1.38c1.4-.88,2.61-2.07,3.63-3.57,1.02-1.5,2.07-3.53,3.15-6.09h1.5v8.52h6.78v2.52h-6.78v16.92c0,2.12.19,3.6.57,4.44.38.84,1.15,1.26,2.31,1.26.96,0,1.71-.2,2.25-.6.54-.4,1.19-1.02,1.95-1.86Z"/>
  <path class="cls-1" d="m217.76,247.08h-13.5v-1.68c1.36,0,2.33-.13,2.91-.39.58-.26.94-.71,1.08-1.35.14-.64.21-1.52.21-2.64v-16.74c0-1.28-.22-2.07-.66-2.37-.44-.3-1.1-.45-1.98-.45-.4,0-.9.04-1.5.12v-1.74l7.56-1.68h1.56v22.86c0,1.16.08,2.06.24,2.7.16.64.55,1.08,1.17,1.32s1.59.36,2.91.36v1.68Zm-6.72-33.6c-1,0-1.82-.34-2.46-1.02-.64-.68-.96-1.48-.96-2.4s.31-1.71.93-2.37c.62-.66,1.45-.99,2.49-.99s1.87.33,2.49.99c.62.66.93,1.45.93,2.37s-.31,1.72-.93,2.4c-.62.68-1.45,1.02-2.49,1.02Z"/>
  <path class="cls-1" d="m234.26,247.68c-2.4,0-4.57-.57-6.51-1.71s-3.47-2.82-4.59-5.04-1.68-4.93-1.68-8.13c0-3.36.57-6.13,1.71-8.31,1.14-2.18,2.67-3.81,4.59-4.89s4.04-1.62,6.36-1.62c3.28,0,5.92,1.14,7.92,3.42,2,2.28,3.08,5.52,3.24,9.72h-19.5l-.06-2.22h13.92c-.04-1.48-.3-2.87-.78-4.17-.48-1.3-1.18-2.35-2.1-3.15-.92-.8-2.1-1.2-3.54-1.2-2.32,0-4.06.91-5.22,2.73-1.16,1.82-1.74,4.39-1.74,7.71,0,2.76.44,5.06,1.32,6.9.88,1.84,2.04,3.21,3.48,4.11,1.44.9,2.98,1.35,4.62,1.35s2.97-.22,3.99-.66c1.02-.44,1.89-1.01,2.61-1.71.72-.7,1.4-1.47,2.04-2.31l1.14.84c-.52,1.12-1.12,2.19-1.8,3.21-.68,1.02-1.45,1.91-2.31,2.67-.86.76-1.87,1.36-3.03,1.8-1.16.44-2.52.66-4.08.66Z"/>
  <path class="cls-1" d="m254.54,247.56c-1.2,0-2.09-.34-2.67-1.02-.58-.68-.87-1.52-.87-2.52s.32-1.93.96-2.67c.64-.74,1.52-1.11,2.64-1.11s2.06.38,2.7,1.14c.64.76.96,1.66.96,2.7,0,.92-.32,1.73-.96,2.43s-1.56,1.05-2.76,1.05Z"/>
</svg>