<?xml version="1.0" encoding="utf-8"?>
<!-- Generator: Adobe Illustrator 27.8.1, SVG Export Plug-In . SVG Version: 6.00 Build 0)  -->
<svg version="1.1" id="Laag_1" xmlns="http://www.w3.org/2000/svg" xmlns:xlink="http://www.w3.org/1999/xlink" x="0px" y="0px"
	 viewBox="0 0 347.16 205.39" style="enable-background:new 0 0 347.16 205.39;" xml:space="preserve">
<style type="text/css">
	.st0{fill:#ECECEC;}
	.st1{fill:#4E4955;}
	.st2{fill:#F3F3F3;}
	.st3{fill:#00FF00;}
	.st4{fill-rule:evenodd;clip-rule:evenodd;fill:#4E4955;}
	.st5{fill:#EDEDED;}
</style>
<g>
	<path class="st1" d="M20.76,45.54H3.48v-1.8c1.8,0,3.12-0.15,3.96-0.45s1.38-0.88,1.62-1.74c0.24-0.86,0.36-2.15,0.36-3.87V14.04
		c0-1.56-0.1-2.79-0.3-3.69c-0.2-0.9-0.71-1.53-1.53-1.89C6.77,8.11,5.4,7.92,3.48,7.92v-1.8h17.28v1.8c-1.88,0-3.24,0.18-4.08,0.54
		c-0.84,0.36-1.35,0.99-1.53,1.89c-0.18,0.9-0.27,2.13-0.27,3.69v23.64c0,1.72,0.12,3.01,0.36,3.87c0.24,0.86,0.78,1.44,1.62,1.74
		s2.14,0.45,3.9,0.45V45.54z"/>
	<path class="st1" d="M38.28,45.54H24.66V43.8c1.8,0,2.95-0.25,3.45-0.75c0.5-0.5,0.75-1.57,0.75-3.21v-30
		c0-1.28-0.15-2.11-0.45-2.49c-0.3-0.38-0.95-0.57-1.95-0.57c-0.4,0-1.08,0.04-2.04,0.12V5.28l7.8-2.1h1.62v26.46h0.36l7.74-7.68
		c0.12-0.12,0.33-0.35,0.63-0.69s0.45-0.75,0.45-1.23c0-0.4-0.2-0.68-0.6-0.84c-0.4-0.16-1.18-0.24-2.34-0.24v-1.8h12.96v1.8
		c-0.96,0-1.81,0.09-2.55,0.27c-0.74,0.18-1.49,0.52-2.25,1.02c-0.76,0.5-1.69,1.21-2.79,2.13c-1.1,0.92-2.49,2.12-4.17,3.6l-3,2.46
		l10.56,11.88c0.96,1.08,1.75,1.87,2.37,2.37c0.62,0.5,1.23,0.81,1.83,0.93c0.6,0.12,1.32,0.18,2.16,0.18v1.74H41.94V43.8
		c0.88,0,1.49-0.05,1.83-0.15c0.34-0.1,0.51-0.29,0.51-0.57c0-0.28-0.07-0.55-0.21-0.81c-0.14-0.26-0.29-0.47-0.45-0.63L34.2,30.96
		h-0.36v9.12c0,1.52,0.27,2.52,0.81,3c0.54,0.48,1.75,0.72,3.63,0.72V45.54z"/>
	<path class="st1" d="M72,46.03L71.82,35.7h1.56c0.64,3.08,1.58,5.23,2.82,6.45c1.24,1.22,2.96,1.83,5.16,1.83
		c1.52,0,2.76-0.31,3.72-0.93c0.96-0.62,1.44-1.63,1.44-3.03c0-0.96-0.17-1.76-0.51-2.4c-0.34-0.64-0.99-1.29-1.95-1.95
		c-0.96-0.66-2.38-1.45-4.26-2.37c-1.84-0.92-3.34-1.81-4.5-2.67c-1.16-0.86-2.02-1.81-2.58-2.85c-0.56-1.04-0.84-2.3-0.84-3.78
		c0-2.48,0.89-4.36,2.67-5.64c1.78-1.28,3.95-1.92,6.51-1.92c1.52,0,2.76,0.17,3.72,0.51c0.96,0.34,1.82,0.69,2.58,1.05h0.06
		l1.02-1.26h1.2l0.18,9.18H88.2c-0.64-2.84-1.54-4.79-2.7-5.85c-1.16-1.06-2.66-1.59-4.5-1.59c-1.36,0-2.51,0.32-3.45,0.96
		c-0.94,0.64-1.41,1.64-1.41,3c0,1.16,0.54,2.2,1.62,3.12s2.88,2.02,5.4,3.3c1.84,0.96,3.38,1.89,4.62,2.79
		c1.24,0.9,2.18,1.88,2.82,2.94c0.64,1.06,0.96,2.33,0.96,3.81c0,1.88-0.46,3.39-1.38,4.53c-0.92,1.14-2.15,1.97-3.69,2.49
		c-1.54,0.52-3.21,0.78-5.01,0.78c-1.72,0-3.09-0.18-4.11-0.54c-1.02-0.36-1.93-0.7-2.73-1.02h-0.12l-1.26,1.38H72z"/>
	<path class="st1" d="M110.76,40.15l1.14,0.96c-0.76,1.08-1.47,1.99-2.13,2.73c-0.66,0.74-1.39,1.31-2.19,1.71
		c-0.8,0.4-1.84,0.6-3.12,0.6c-2,0-3.46-0.59-4.38-1.77c-0.92-1.18-1.38-3.11-1.38-5.79v-18.6h-3.3v-1.38
		c1.4-0.88,2.61-2.07,3.63-3.57c1.02-1.5,2.07-3.53,3.15-6.09h1.5v8.52h6.78v2.52h-6.78v16.92c0,2.12,0.19,3.6,0.57,4.44
		c0.38,0.84,1.15,1.26,2.31,1.26c0.96,0,1.71-0.2,2.25-0.6C109.35,41.61,110,40.99,110.76,40.15z"/>
	<path class="st1" d="M127.26,46.15c-4.2,0-7.49-1.31-9.87-3.93c-2.38-2.62-3.57-6.35-3.57-11.19c0-2.92,0.56-5.47,1.68-7.65
		c1.12-2.18,2.69-3.88,4.71-5.1c2.02-1.22,4.37-1.83,7.05-1.83c4.12,0,7.37,1.28,9.75,3.84c2.38,2.56,3.57,6.06,3.57,10.5
		c0,3.36-0.57,6.18-1.71,8.46c-1.14,2.28-2.71,4-4.71,5.16C132.16,45.56,129.86,46.15,127.26,46.15z M127.5,43.74
		c1.64,0,3.02-0.38,4.14-1.14c1.12-0.76,1.97-2.06,2.55-3.9c0.58-1.84,0.87-4.38,0.87-7.62c0-3.68-0.67-6.66-2.01-8.94
		c-1.34-2.28-3.35-3.42-6.03-3.42c-2.28,0-4.12,0.96-5.52,2.88s-2.1,4.8-2.1,8.64c0,4.76,0.71,8.21,2.13,10.35
		C122.95,42.74,124.94,43.78,127.5,43.74z"/>
	<path class="st1" d="M158.1,46.15c-4.2,0-7.49-1.31-9.87-3.93c-2.38-2.62-3.57-6.35-3.57-11.19c0-2.92,0.56-5.47,1.68-7.65
		c1.12-2.18,2.69-3.88,4.71-5.1c2.02-1.22,4.37-1.83,7.05-1.83c4.12,0,7.37,1.28,9.75,3.84c2.38,2.56,3.57,6.06,3.57,10.5
		c0,3.36-0.57,6.18-1.71,8.46c-1.14,2.28-2.71,4-4.71,5.16C163,45.56,160.7,46.15,158.1,46.15z M158.34,43.74
		c1.64,0,3.02-0.38,4.14-1.14c1.12-0.76,1.97-2.06,2.55-3.9c0.58-1.84,0.87-4.38,0.87-7.62c0-3.68-0.67-6.66-2.01-8.94
		c-1.34-2.28-3.35-3.42-6.03-3.42c-2.28,0-4.12,0.96-5.52,2.88s-2.1,4.8-2.1,8.64c0,4.76,0.71,8.21,2.13,10.35
		C153.79,42.74,155.78,43.78,158.34,43.74z"/>
	<path class="st1" d="M188.88,45.54h-13.62V43.8c1.8,0,2.95-0.25,3.45-0.75c0.5-0.5,0.75-1.57,0.75-3.21v-30
		c0-1.28-0.15-2.11-0.45-2.49s-0.95-0.57-1.95-0.57c-0.4,0-1.08,0.04-2.04,0.12V5.28l7.8-2.1h1.62v26.46h0.36l7.74-7.68
		c0.12-0.12,0.33-0.35,0.63-0.69s0.45-0.75,0.45-1.23c0-0.4-0.2-0.68-0.6-0.84c-0.4-0.16-1.18-0.24-2.34-0.24v-1.8h12.96v1.8
		c-0.96,0-1.81,0.09-2.55,0.27c-0.74,0.18-1.49,0.52-2.25,1.02c-0.76,0.5-1.69,1.21-2.79,2.13c-1.1,0.92-2.49,2.12-4.17,3.6l-3,2.46
		l10.56,11.88c0.96,1.08,1.75,1.87,2.37,2.37s1.23,0.81,1.83,0.93c0.6,0.12,1.32,0.18,2.16,0.18v1.74h-13.26V43.8
		c0.88,0,1.49-0.05,1.83-0.15c0.34-0.1,0.51-0.29,0.51-0.57c0-0.28-0.07-0.55-0.21-0.81c-0.14-0.26-0.29-0.47-0.45-0.63l-9.42-10.68
		h-0.36v9.12c0,1.52,0.27,2.52,0.81,3c0.54,0.48,1.75,0.72,3.63,0.72V45.54z"/>
	<path class="st1" d="M16.86,115.54H3.24v-1.74c1.56,0,2.65-0.22,3.27-0.66c0.62-0.44,0.93-1.5,0.93-3.18V79.24
		c0-1.04-0.29-1.7-0.87-1.98S5.3,76.84,4.5,76.84c-0.48,0-1.06,0.04-1.74,0.12v-1.68l8.04-2.1h1.62v36.54
		c0,1.04,0.08,1.86,0.24,2.46c0.16,0.6,0.56,1.02,1.2,1.26s1.64,0.36,3,0.36V115.54z M34.8,115.54H21v-1.74c1.4,0,2.4-0.14,3-0.42
		c0.6-0.28,0.98-0.72,1.14-1.32c0.16-0.6,0.24-1.38,0.24-2.34V99.34c0-1.64-0.12-3.15-0.36-4.53s-0.75-2.48-1.53-3.3
		c-0.78-0.82-1.99-1.23-3.63-1.23c-1.24,0-2.5,0.33-3.78,0.99c-1.28,0.66-2.74,1.79-4.38,3.39l0.06-3.3h0.84
		c1.88-1.76,3.57-3.02,5.07-3.78c1.5-0.76,3.05-1.14,4.65-1.14c1.72,0,3.11,0.34,4.17,1.02c1.06,0.68,1.87,1.57,2.43,2.67
		c0.56,1.1,0.94,2.3,1.14,3.6s0.3,2.57,0.3,3.81v11.94c0,1.6,0.27,2.72,0.81,3.36c0.54,0.64,1.75,0.96,3.63,0.96V115.54z"/>
	<path class="st1" d="M50.88,116.15c-2.4,0-4.57-0.57-6.51-1.71c-1.94-1.14-3.47-2.82-4.59-5.04c-1.12-2.22-1.68-4.93-1.68-8.13
		c0-3.36,0.57-6.13,1.71-8.31c1.14-2.18,2.67-3.81,4.59-4.89s4.04-1.62,6.36-1.62c3.28,0,5.92,1.14,7.92,3.42
		c2,2.28,3.08,5.52,3.24,9.72h-19.5l-0.06-2.22h13.92c-0.04-1.48-0.3-2.87-0.78-4.17c-0.48-1.3-1.18-2.35-2.1-3.15
		c-0.92-0.8-2.1-1.2-3.54-1.2c-2.32,0-4.06,0.91-5.22,2.73c-1.16,1.82-1.74,4.39-1.74,7.71c0,2.76,0.44,5.06,1.32,6.9
		c0.88,1.84,2.04,3.21,3.48,4.11c1.44,0.9,2.98,1.35,4.62,1.35c1.64,0,2.97-0.22,3.99-0.66c1.02-0.44,1.89-1.01,2.61-1.71
		c0.72-0.7,1.4-1.47,2.04-2.31l1.14,0.84c-0.52,1.12-1.12,2.19-1.8,3.21c-0.68,1.02-1.45,1.91-2.31,2.67
		c-0.86,0.76-1.87,1.36-3.03,1.8S52.44,116.15,50.88,116.15z"/>
	<path class="st1" d="M81.48,110.15l1.14,0.96c-0.76,1.08-1.47,1.99-2.13,2.73c-0.66,0.74-1.39,1.31-2.19,1.71
		c-0.8,0.4-1.84,0.6-3.12,0.6c-2,0-3.46-0.59-4.38-1.77c-0.92-1.18-1.38-3.11-1.38-5.79v-18.6h-3.3v-1.38
		c1.4-0.88,2.61-2.07,3.63-3.57c1.02-1.5,2.07-3.53,3.15-6.09h1.5v8.52h6.78v2.52H74.4v16.92c0,2.12,0.19,3.6,0.57,4.44
		c0.38,0.84,1.15,1.26,2.31,1.26c0.96,0,1.71-0.2,2.25-0.6C80.07,111.61,80.72,110.99,81.48,110.15z"/>
	<path class="st1" d="M121.38,106.66l1.14,0.84c-0.76,1.6-1.63,3.06-2.61,4.38c-0.98,1.32-2.19,2.36-3.63,3.12
		c-1.44,0.76-3.24,1.14-5.4,1.14c-2.48,0-4.62-0.6-6.42-1.8c-1.8-1.2-3.18-2.87-4.14-5.01c-0.96-2.14-1.44-4.59-1.44-7.35
		c0-3.16,0.53-5.9,1.59-8.22c1.06-2.32,2.6-4.12,4.62-5.4c2.02-1.28,4.47-1.92,7.35-1.92c2.84,0,5.07,0.62,6.69,1.86
		c1.62,1.24,2.43,2.74,2.43,4.5c0,0.88-0.21,1.55-0.63,2.01s-1.05,0.69-1.89,0.69c-0.88,0-1.55-0.23-2.01-0.69s-0.83-1.03-1.11-1.71
		c-0.28-0.68-0.57-1.36-0.87-2.04c-0.3-0.68-0.72-1.25-1.26-1.71s-1.33-0.69-2.37-0.69c-2.44,0-4.35,0.89-5.73,2.67
		c-1.38,1.78-2.07,4.39-2.07,7.83c0,3.64,0.75,6.63,2.25,8.97c1.5,2.34,3.79,3.51,6.87,3.51c1.96,0,3.55-0.4,4.77-1.2
		C118.73,109.65,120.02,108.39,121.38,106.66z"/>
	<path class="st1" d="M140.4,115.54h-15v-1.74c1.32,0,2.29-0.11,2.91-0.33c0.62-0.22,1.02-0.62,1.2-1.2
		c0.18-0.58,0.27-1.43,0.27-2.55v-16.5c0-1.08-0.09-1.89-0.27-2.43c-0.18-0.54-0.81-0.81-1.89-0.81c-0.6,0-1.22,0.04-1.86,0.12
		v-1.68l7.44-1.8h1.44v6.18h0.18c1.04-1.48,1.96-2.7,2.76-3.66c0.8-0.96,1.59-1.68,2.37-2.16c0.78-0.48,1.65-0.72,2.61-0.72
		c1.16,0,2.03,0.3,2.61,0.9c0.58,0.6,0.87,1.42,0.87,2.46c0,1.12-0.27,1.94-0.81,2.46c-0.54,0.52-1.15,0.78-1.83,0.78
		c-0.64,0-1.21-0.17-1.71-0.51c-0.5-0.34-0.93-0.68-1.29-1.02c-0.36-0.34-0.66-0.51-0.9-0.51c-0.68,0-1.46,0.52-2.34,1.56
		c-0.88,1.04-1.68,2.16-2.4,3.36v13.68c0,1.24,0.16,2.18,0.48,2.82c0.32,0.64,0.89,1.06,1.71,1.26c0.82,0.2,1.97,0.3,3.45,0.3
		V115.54z"/>
	<path class="st1" d="M160.68,116.15c-2.4,0-4.57-0.57-6.51-1.71c-1.94-1.14-3.47-2.82-4.59-5.04c-1.12-2.22-1.68-4.93-1.68-8.13
		c0-3.36,0.57-6.13,1.71-8.31c1.14-2.18,2.67-3.81,4.59-4.89s4.04-1.62,6.36-1.62c3.28,0,5.92,1.14,7.92,3.42
		c2,2.28,3.08,5.52,3.24,9.72h-19.5l-0.06-2.22h13.92c-0.04-1.48-0.3-2.87-0.78-4.17c-0.48-1.3-1.18-2.35-2.1-3.15
		c-0.92-0.8-2.1-1.2-3.54-1.2c-2.32,0-4.06,0.91-5.22,2.73c-1.16,1.82-1.74,4.39-1.74,7.71c0,2.76,0.44,5.06,1.32,6.9
		c0.88,1.84,2.04,3.21,3.48,4.11c1.44,0.9,2.98,1.35,4.62,1.35c1.64,0,2.97-0.22,3.99-0.66c1.02-0.44,1.89-1.01,2.61-1.71
		c0.72-0.7,1.4-1.47,2.04-2.31l1.14,0.84c-0.52,1.12-1.12,2.19-1.8,3.21c-0.68,1.02-1.45,1.91-2.31,2.67s-1.87,1.36-3.03,1.8
		C163.6,115.92,162.24,116.15,160.68,116.15z"/>
	<path class="st1" d="M183.12,115.96c-2.32,0-4.09-0.64-5.31-1.92c-1.22-1.28-1.83-2.88-1.83-4.8c0-1.6,0.37-2.95,1.11-4.05
		c0.74-1.1,1.72-2.03,2.94-2.79c1.22-0.76,2.54-1.4,3.96-1.92c1.42-0.52,2.81-0.96,4.17-1.32c1.36-0.36,2.56-0.7,3.6-1.02V95.5
		c0-2.6-0.45-4.45-1.35-5.55c-0.9-1.1-2.25-1.65-4.05-1.65c-1.72,0-2.82,0.36-3.3,1.08c-0.48,0.72-0.72,1.98-0.72,3.78
		c0,0.92-0.23,1.61-0.69,2.07c-0.46,0.46-1.11,0.69-1.95,0.69c-0.6,0-1.17-0.23-1.71-0.69s-0.81-1.19-0.81-2.19
		c0-1.12,0.43-2.18,1.29-3.18c0.86-1,2.08-1.82,3.66-2.46c1.58-0.64,3.45-0.96,5.61-0.96c3.28,0,5.6,0.76,6.96,2.28
		c1.36,1.52,2.04,3.84,2.04,6.96v13.62c0,1.24,0.14,2.04,0.42,2.4c0.28,0.36,0.74,0.54,1.38,0.54c0.56,0,1.07-0.14,1.53-0.42
		c0.46-0.28,0.89-0.64,1.29-1.08l0.9,0.96c-1,1.44-1.95,2.49-2.85,3.15s-2.11,0.99-3.63,0.99c-1.4,0-2.31-0.4-2.73-1.2
		s-0.73-1.94-0.93-3.42l-0.36-0.72v-10.38c-1.8,0.44-3.5,0.96-5.1,1.56c-1.6,0.6-2.9,1.38-3.9,2.34s-1.5,2.22-1.5,3.78
		c0,1.48,0.4,2.66,1.2,3.54c0.8,0.88,1.84,1.32,3.12,1.32c1.04,0,2.13-0.26,3.27-0.78c1.14-0.52,2.25-1.26,3.33-2.22l0.48,2.16
		h-0.72c-0.92,0.8-1.81,1.52-2.67,2.16c-0.86,0.64-1.78,1.13-2.76,1.47C185.53,115.79,184.4,115.96,183.12,115.96z"/>
	<path class="st1" d="M220.08,110.15l1.14,0.96c-0.76,1.08-1.47,1.99-2.13,2.73c-0.66,0.74-1.39,1.31-2.19,1.71
		c-0.8,0.4-1.84,0.6-3.12,0.6c-2,0-3.46-0.59-4.38-1.77c-0.92-1.18-1.38-3.11-1.38-5.79v-18.6h-3.3v-1.38
		c1.4-0.88,2.61-2.07,3.63-3.57c1.02-1.5,2.07-3.53,3.15-6.09h1.5v8.52h6.78v2.52H213v16.92c0,2.12,0.19,3.6,0.57,4.44
		c0.38,0.84,1.15,1.26,2.31,1.26c0.96,0,1.71-0.2,2.25-0.6C218.67,111.61,219.32,110.99,220.08,110.15z"/>
	<path class="st1" d="M236.82,115.54h-13.5v-1.68c1.36,0,2.33-0.13,2.91-0.39c0.58-0.26,0.94-0.71,1.08-1.35
		c0.14-0.64,0.21-1.52,0.21-2.64V92.74c0-1.28-0.22-2.07-0.66-2.37c-0.44-0.3-1.1-0.45-1.98-0.45c-0.4,0-0.9,0.04-1.5,0.12V88.3
		l7.56-1.68h1.56v22.86c0,1.16,0.08,2.06,0.24,2.7c0.16,0.64,0.55,1.08,1.17,1.32c0.62,0.24,1.59,0.36,2.91,0.36V115.54z
		 M230.1,81.95c-1,0-1.82-0.34-2.46-1.02c-0.64-0.68-0.96-1.48-0.96-2.4s0.31-1.71,0.93-2.37s1.45-0.99,2.49-0.99
		c1.04,0,1.87,0.33,2.49,0.99c0.62,0.66,0.93,1.45,0.93,2.37s-0.31,1.72-0.93,2.4C231.97,81.61,231.14,81.95,230.1,81.95z"/>
	<path class="st1" d="M253.32,116.15c-2.4,0-4.57-0.57-6.51-1.71c-1.94-1.14-3.47-2.82-4.59-5.04c-1.12-2.22-1.68-4.93-1.68-8.13
		c0-3.36,0.57-6.13,1.71-8.31c1.14-2.18,2.67-3.81,4.59-4.89s4.04-1.62,6.36-1.62c3.28,0,5.92,1.14,7.92,3.42
		c2,2.28,3.08,5.52,3.24,9.72h-19.5l-0.06-2.22h13.92c-0.04-1.48-0.3-2.87-0.78-4.17c-0.48-1.3-1.18-2.35-2.1-3.15
		c-0.92-0.8-2.1-1.2-3.54-1.2c-2.32,0-4.06,0.91-5.22,2.73c-1.16,1.82-1.74,4.39-1.74,7.71c0,2.76,0.44,5.06,1.32,6.9
		c0.88,1.84,2.04,3.21,3.48,4.11c1.44,0.9,2.98,1.35,4.62,1.35c1.64,0,2.97-0.22,3.99-0.66c1.02-0.44,1.89-1.01,2.61-1.71
		c0.72-0.7,1.4-1.47,2.04-2.31l1.14,0.84c-0.52,1.12-1.12,2.19-1.8,3.21c-0.68,1.02-1.45,1.91-2.31,2.67s-1.87,1.36-3.03,1.8
		C256.24,115.92,254.88,116.15,253.32,116.15z"/>
	<path class="st1" d="M282.24,115.91h-2.88l-8.94-22.62c-0.52-1.24-0.98-2.17-1.38-2.79c-0.4-0.62-0.86-1.04-1.38-1.26
		c-0.52-0.22-1.22-0.33-2.1-0.33v-1.74h12.66v1.74c-1.16,0-1.97,0.13-2.43,0.39c-0.46,0.26-0.69,0.63-0.69,1.11
		c0,0.4,0.06,0.78,0.18,1.14c0.12,0.36,0.26,0.76,0.42,1.2l5.1,13.38l1.14,3.6h0.36l1.26-3.66l5.16-13.56
		c0.04-0.16,0.12-0.41,0.24-0.75c0.12-0.34,0.18-0.75,0.18-1.23c0-0.68-0.3-1.12-0.9-1.32c-0.6-0.2-1.44-0.3-2.52-0.3v-1.74h10.5
		v1.74c-1.16,0-2.05,0.27-2.67,0.81s-1.23,1.59-1.83,3.15L282.24,115.91z"/>
	<path class="st1" d="M309.72,116.15c-2.4,0-4.57-0.57-6.51-1.71c-1.94-1.14-3.47-2.82-4.59-5.04c-1.12-2.22-1.68-4.93-1.68-8.13
		c0-3.36,0.57-6.13,1.71-8.31c1.14-2.18,2.67-3.81,4.59-4.89s4.04-1.62,6.36-1.62c3.28,0,5.92,1.14,7.92,3.42
		c2,2.28,3.08,5.52,3.24,9.72h-19.5l-0.06-2.22h13.92c-0.04-1.48-0.3-2.87-0.78-4.17c-0.48-1.3-1.18-2.35-2.1-3.15
		c-0.92-0.8-2.1-1.2-3.54-1.2c-2.32,0-4.06,0.91-5.22,2.73c-1.16,1.82-1.74,4.39-1.74,7.71c0,2.76,0.44,5.06,1.32,6.9
		c0.88,1.84,2.04,3.21,3.48,4.11c1.44,0.9,2.98,1.35,4.62,1.35c1.64,0,2.97-0.22,3.99-0.66c1.02-0.44,1.89-1.01,2.61-1.71
		c0.72-0.7,1.4-1.47,2.04-2.31l1.14,0.84c-0.52,1.12-1.12,2.19-1.8,3.21c-0.68,1.02-1.45,1.91-2.31,2.67s-1.87,1.36-3.03,1.8
		C312.64,115.92,311.28,116.15,309.72,116.15z"/>
	<path class="st1" d="M17.34,185.91h-2.88l-8.94-22.62c-0.52-1.24-0.98-2.17-1.38-2.79c-0.4-0.62-0.86-1.04-1.38-1.26
		c-0.52-0.22-1.22-0.33-2.1-0.33v-1.74h12.66v1.74c-1.16,0-1.97,0.13-2.43,0.39c-0.46,0.26-0.69,0.63-0.69,1.11
		c0,0.4,0.06,0.78,0.18,1.14c0.12,0.36,0.26,0.76,0.42,1.2l5.1,13.38l1.14,3.6h0.36l1.26-3.66l5.16-13.56
		c0.04-0.16,0.12-0.41,0.24-0.75c0.12-0.34,0.18-0.75,0.18-1.23c0-0.68-0.3-1.12-0.9-1.32c-0.6-0.2-1.44-0.3-2.52-0.3v-1.74h10.5
		v1.74c-1.16,0-2.05,0.27-2.67,0.81s-1.23,1.59-1.83,3.15L17.34,185.91z"/>
	<path class="st1" d="M43.62,186.15c-2.48,0-4.41-0.81-5.79-2.43s-2.07-4.47-2.07-8.55v-12.18c0-1.08-0.11-1.87-0.33-2.37
		c-0.22-0.5-0.63-0.82-1.23-0.96c-0.6-0.14-1.44-0.21-2.52-0.21v-1.68l7.74-0.9h1.32v17.52c0,2.04,0.23,3.63,0.69,4.77
		s1.1,1.95,1.92,2.43c0.82,0.48,1.75,0.72,2.79,0.72c1.52,0,2.83-0.34,3.93-1.02c1.1-0.68,2.25-1.54,3.45-2.58v-15.78
		c0-1.08-0.14-1.86-0.42-2.34c-0.28-0.48-0.77-0.79-1.47-0.93c-0.7-0.14-1.69-0.21-2.97-0.21v-1.68l8.4-0.9h1.44v22.02
		c0,1.76,0.24,2.86,0.72,3.3c0.48,0.44,1.44,0.66,2.88,0.66h0.6v1.62l-7.62,1.38h-1.32v-4.62h-0.3c-1.04,1.04-2.07,1.93-3.09,2.67
		c-1.02,0.74-2.08,1.3-3.18,1.68C46.09,185.95,44.9,186.15,43.62,186.15z"/>
	<path class="st1" d="M77.82,186.15c-2.48,0-4.41-0.81-5.79-2.43s-2.07-4.47-2.07-8.55v-12.18c0-1.08-0.11-1.87-0.33-2.37
		c-0.22-0.5-0.63-0.82-1.23-0.96c-0.6-0.14-1.44-0.21-2.52-0.21v-1.68l7.74-0.9h1.32v17.52c0,2.04,0.23,3.63,0.69,4.77
		s1.1,1.95,1.92,2.43c0.82,0.48,1.75,0.72,2.79,0.72c1.52,0,2.83-0.34,3.93-1.02c1.1-0.68,2.25-1.54,3.45-2.58v-15.78
		c0-1.08-0.14-1.86-0.42-2.34c-0.28-0.48-0.77-0.79-1.47-0.93c-0.7-0.14-1.69-0.21-2.97-0.21v-1.68l8.4-0.9h1.44v22.02
		c0,1.76,0.24,2.86,0.72,3.3c0.48,0.44,1.44,0.66,2.88,0.66h0.6v1.62l-7.62,1.38h-1.32v-4.62h-0.3c-1.04,1.04-2.07,1.93-3.09,2.67
		c-1.02,0.74-2.08,1.3-3.18,1.68C80.29,185.95,79.1,186.15,77.82,186.15z"/>
	<path class="st1" d="M115.44,185.54h-15v-1.74c1.32,0,2.29-0.11,2.91-0.33c0.62-0.22,1.02-0.62,1.2-1.2
		c0.18-0.58,0.27-1.43,0.27-2.55v-16.5c0-1.08-0.09-1.89-0.27-2.43c-0.18-0.54-0.81-0.81-1.89-0.81c-0.6,0-1.22,0.04-1.86,0.12
		v-1.68l7.44-1.8h1.44v6.18h0.18c1.04-1.48,1.96-2.7,2.76-3.66c0.8-0.96,1.59-1.68,2.37-2.16c0.78-0.48,1.65-0.72,2.61-0.72
		c1.16,0,2.03,0.3,2.61,0.9c0.58,0.6,0.87,1.42,0.87,2.46c0,1.12-0.27,1.94-0.81,2.46c-0.54,0.52-1.15,0.78-1.83,0.78
		c-0.64,0-1.21-0.17-1.71-0.51c-0.5-0.34-0.93-0.68-1.29-1.02c-0.36-0.34-0.66-0.51-0.9-0.51c-0.68,0-1.46,0.52-2.34,1.56
		c-0.88,1.04-1.68,2.16-2.4,3.36v13.68c0,1.24,0.16,2.18,0.48,2.82c0.32,0.64,0.89,1.06,1.71,1.26c0.82,0.2,1.97,0.3,3.45,0.3
		V185.54z"/>
	<path class="st1" d="M152.22,185.54h-15.54v-1.74c1.48,0,2.57-0.13,3.27-0.39c0.7-0.26,1.17-0.77,1.41-1.53
		c0.24-0.76,0.36-1.92,0.36-3.48v-18.42h-4.56v-2.52h4.56c0-1.52,0.07-2.89,0.21-4.11c0.14-1.22,0.38-2.33,0.72-3.33
		s0.83-1.94,1.47-2.82c1.16-1.48,2.69-2.59,4.59-3.33c1.9-0.74,4.05-1.11,6.45-1.11c2.08,0,3.85,0.24,5.31,0.72
		c1.46,0.48,2.57,1.04,3.33,1.68v4.5h-3c-0.4-1.36-1.1-2.48-2.1-3.36c-1-0.88-2.56-1.32-4.68-1.32c-1.32,0-2.53,0.26-3.63,0.78
		c-1.1,0.52-1.99,1.42-2.67,2.7c-0.68,1.28-1.02,3.04-1.02,5.28v3.72h7.14v2.52h-7.14v18.42c0,1.56,0.16,2.72,0.48,3.48
		c0.32,0.76,0.88,1.27,1.68,1.53c0.8,0.26,1.92,0.39,3.36,0.39V185.54z"/>
	<path class="st1" d="M170.28,185.54h-13.8v-1.74c1.32,0,2.28-0.13,2.88-0.39c0.6-0.26,0.97-0.7,1.11-1.32
		c0.14-0.62,0.21-1.49,0.21-2.61v-35.4h1.08l2.7-0.9h1.26v36.3c0,1.16,0.08,2.05,0.24,2.67c0.16,0.62,0.57,1.05,1.23,1.29
		c0.66,0.24,1.69,0.36,3.09,0.36V185.54z"/>
	<path class="st1" d="M187.14,185.54h-13.5v-1.68c1.36,0,2.33-0.13,2.91-0.39c0.58-0.26,0.94-0.71,1.08-1.35
		c0.14-0.64,0.21-1.52,0.21-2.64v-16.74c0-1.28-0.22-2.07-0.66-2.37c-0.44-0.3-1.1-0.45-1.98-0.45c-0.4,0-0.9,0.04-1.5,0.12v-1.74
		l7.56-1.68h1.56v22.86c0,1.16,0.08,2.06,0.24,2.7c0.16,0.64,0.55,1.08,1.17,1.32c0.62,0.24,1.59,0.36,2.91,0.36V185.54z
		 M180.42,151.95c-1,0-1.82-0.34-2.46-1.02c-0.64-0.68-0.96-1.48-0.96-2.4s0.31-1.71,0.93-2.37s1.45-0.99,2.49-0.99
		c1.04,0,1.87,0.33,2.49,0.99c0.62,0.66,0.93,1.45,0.93,2.37s-0.31,1.72-0.93,2.4C182.29,151.61,181.46,151.95,180.42,151.95z"/>
	<path class="st1" d="M204.48,185.54h-13.74v-1.68c1.36,0,2.33-0.13,2.91-0.39c0.58-0.26,0.94-0.71,1.08-1.35
		c0.14-0.64,0.21-1.52,0.21-2.64v-16.86c0-1.08-0.22-1.79-0.66-2.13c-0.44-0.34-1.06-0.51-1.86-0.51c-0.52,0-1.06,0.04-1.62,0.12
		v-1.74l7.62-1.74h1.38l-0.06,5.52l0.18,1.26v16.08c0,1.12,0.08,2,0.24,2.64c0.16,0.64,0.56,1.09,1.2,1.35
		c0.64,0.26,1.68,0.39,3.12,0.39V185.54z M222.12,185.54h-13.86v-1.68c1.44,0,2.47-0.13,3.09-0.39c0.62-0.26,1-0.71,1.14-1.35
		c0.14-0.64,0.21-1.52,0.21-2.64v-10.86c0-2.4-0.27-4.2-0.81-5.4c-0.54-1.2-1.23-1.99-2.07-2.37s-1.72-0.57-2.64-0.57
		c-1.16,0-2.2,0.23-3.12,0.69c-0.92,0.46-1.75,1.01-2.49,1.65c-0.74,0.64-1.43,1.24-2.07,1.8l-0.42-2.94h0.9
		c1.64-1.44,3.19-2.64,4.65-3.6s3.13-1.44,5.01-1.44c2.72,0,4.74,0.92,6.06,2.76c1.32,1.84,1.98,4.48,1.98,7.92v12.36
		c0,1.12,0.09,2,0.27,2.64c0.18,0.64,0.59,1.09,1.23,1.35c0.64,0.26,1.62,0.39,2.94,0.39V185.54z"/>
	<path class="st1" d="M238.8,185.54h-13.62v-1.74c1.8,0,2.95-0.25,3.45-0.75c0.5-0.5,0.75-1.57,0.75-3.21v-30
		c0-1.28-0.15-2.11-0.45-2.49s-0.95-0.57-1.95-0.57c-0.4,0-1.08,0.04-2.04,0.12v-1.62l7.8-2.1h1.62v26.46h0.36l7.74-7.68
		c0.12-0.12,0.33-0.35,0.63-0.69s0.45-0.75,0.45-1.23c0-0.4-0.2-0.68-0.6-0.84c-0.4-0.16-1.18-0.24-2.34-0.24v-1.8h12.96v1.8
		c-0.96,0-1.81,0.09-2.55,0.27c-0.74,0.18-1.49,0.52-2.25,1.02c-0.76,0.5-1.69,1.21-2.79,2.13c-1.1,0.92-2.49,2.12-4.17,3.6l-3,2.46
		l10.56,11.88c0.96,1.08,1.75,1.87,2.37,2.37s1.23,0.81,1.83,0.93c0.6,0.12,1.32,0.18,2.16,0.18v1.74h-13.26v-1.74
		c0.88,0,1.49-0.05,1.83-0.15c0.34-0.1,0.51-0.29,0.51-0.57c0-0.28-0.07-0.55-0.21-0.81c-0.14-0.26-0.29-0.47-0.45-0.63l-9.42-10.68
		h-0.36v9.12c0,1.52,0.27,2.52,0.81,3c0.54,0.48,1.75,0.72,3.63,0.72V185.54z"/>
	<path class="st1" d="M285.48,186.15c-4.2,0-7.49-1.31-9.87-3.93c-2.38-2.62-3.57-6.35-3.57-11.19c0-2.92,0.56-5.47,1.68-7.65
		c1.12-2.18,2.69-3.88,4.71-5.1c2.02-1.22,4.37-1.83,7.05-1.83c4.12,0,7.37,1.28,9.75,3.84c2.38,2.56,3.57,6.06,3.57,10.5
		c0,3.36-0.57,6.18-1.71,8.46c-1.14,2.28-2.71,4-4.71,5.16C290.38,185.56,288.08,186.15,285.48,186.15z M285.72,183.74
		c1.64,0,3.02-0.38,4.14-1.14c1.12-0.76,1.97-2.06,2.55-3.9c0.58-1.84,0.87-4.38,0.87-7.62c0-3.68-0.67-6.66-2.01-8.94
		c-1.34-2.28-3.35-3.42-6.03-3.42c-2.28,0-4.12,0.96-5.52,2.88s-2.1,4.8-2.1,8.64c0,4.76,0.71,8.21,2.13,10.35
		C281.17,182.74,283.16,183.78,285.72,183.74z"/>
	<path class="st1" d="M317.34,198.74h-15.18v-1.68c1.88,0,3.08-0.31,3.6-0.93c0.52-0.62,0.78-1.77,0.78-3.45v-29.7
		c0-1.16-0.13-1.96-0.39-2.4c-0.26-0.44-0.89-0.66-1.89-0.66c-0.4,0-1.04,0.04-1.92,0.12v-1.74l7.56-1.68h1.5v5.04h0.18
		c1.44-1.68,2.91-2.97,4.41-3.87c1.5-0.9,3.13-1.35,4.89-1.35c2,0,3.75,0.57,5.25,1.71s2.68,2.72,3.54,4.74
		c0.86,2.02,1.29,4.35,1.29,6.99c0,3.4-0.59,6.31-1.77,8.73c-1.18,2.42-2.77,4.28-4.77,5.58c-2,1.3-4.2,1.95-6.6,1.95
		c-1.12,0-2.19-0.13-3.21-0.39c-1.02-0.26-1.97-0.69-2.85-1.29h-0.24v7.86c0,1.28,0.16,2.26,0.48,2.94c0.32,0.68,0.9,1.14,1.74,1.38
		c0.84,0.24,2.04,0.36,3.6,0.36V198.74z M318.12,183.8c2.12,0,3.88-1,5.28-3c1.4-2,2.1-5.08,2.1-9.24c0-3.8-0.62-6.59-1.86-8.37
		c-1.24-1.78-2.98-2.67-5.22-2.67c-1.6,0-3.01,0.42-4.23,1.26c-1.22,0.84-2.11,1.64-2.67,2.4v15.66c0.4,0.4,0.9,0.92,1.5,1.56
		c0.6,0.64,1.32,1.2,2.16,1.68C316.02,183.57,317,183.8,318.12,183.8z"/>
	<path class="st1" d="M339.12,186.03c-1.2,0-2.09-0.34-2.67-1.02c-0.58-0.68-0.87-1.52-0.87-2.52c0-1.04,0.32-1.93,0.96-2.67
		s1.52-1.11,2.64-1.11c1.16,0,2.06,0.38,2.7,1.14c0.64,0.76,0.96,1.66,0.96,2.7c0,0.92-0.32,1.73-0.96,2.43
		C341.24,185.67,340.32,186.03,339.12,186.03z"/>
</g>
</svg>
